<svg width="30" height="30" viewBox="0 0 30 30" fill="none" xmlns="http://www.w3.org/2000/svg">
<path fill-rule="evenodd" clip-rule="evenodd" d="M26.25 13.75V15C26.25 19.1421 22.8921 22.5 18.75 22.5L9.48334 22.4999L11.7678 24.7855L10 26.5533L4.6967 21.25L10 15.9467L11.7678 17.7144L9.48334 19.9999L18.75 20C21.4838 20 23.7052 17.8059 23.7493 15.0826L23.75 15L23.75 13.75H26.25ZM20 3.44666L25.3033 8.74996L20 14.0533L18.2322 12.2855L20.5166 9.99996H11.25C8.51619 9.99996 6.29482 12.194 6.25067 14.9173L6.25 15L6.24996 16.2499H3.75V15C3.75 10.8992 7.04104 7.56719 11.126 7.50096L11.25 7.49996L20.5167 7.49994L18.2322 5.21442L20 3.44666Z" fill="#595959"/>
</svg>
