<svg width="500" height="500" viewBox="0 0 500 500" fill="none" xmlns="http://www.w3.org/2000/svg">
<path d="M176.925 375.25C181.092 373.774 185.362 372.604 189.7 371.75L190.225 373.675C190.284 373.902 190.422 374.1 190.615 374.233C190.808 374.366 191.042 374.425 191.275 374.4L208.45 372.4C213.175 361.625 221.85 345.3 221.975 345.05C221.85 340.975 221.975 337.55 221.975 333.65C212.15 337.3 193.975 344.225 184.475 348.65C184.26 348.788 184.094 348.991 184 349.228C183.906 349.466 183.888 349.727 183.95 349.975C183.95 349.975 184.125 350.6 184.35 351.5C179.7 351.5 165.775 350.825 162.425 354C161.904 354.726 161.648 355.608 161.7 356.5C161.5 359.95 163.225 386.75 165.975 394.625C167.4 398.75 170.4 398.3 172.45 394.35C174.823 388.401 176.346 382.148 176.975 375.775C176.975 375.45 176.9 375.475 176.925 375.25ZM174.05 352.875C177.1 352.625 178.05 352.675 184.6 352.475C185.775 356.925 188.2 366.075 189.45 370.75C185.039 371.433 180.685 372.444 176.425 373.775C175.097 366.88 174.303 359.892 174.05 352.875Z" fill="white"/>
<path d="M407.025 134.075C407.65 133.2 406.85 132.075 406.175 131.2C408.087 129.233 410.208 127.481 412.5 125.975C416.368 124.047 419.904 121.516 422.975 118.475C424.25 117.15 426.65 114.425 425.75 112.825C424.85 111.225 423.25 111.125 421.075 112.05C422.017 111.061 422.786 109.92 423.35 108.675C424.05 106.725 422.4 105.15 418.825 106.6C420.125 104.525 420.425 102.35 418.225 101.3C416.45 100.45 413.85 102.475 412.35 103.8C409.405 106.374 406.64 109.147 404.075 112.1C402.5 108.8 400 105 396.875 106.2C393.75 107.4 396.175 112.775 397.775 115.7L392.1 119.625C391.242 119.162 390.273 118.946 389.3 119C382.85 120.1 353.225 142.65 350.225 142.65C347.925 142.65 315.075 126.9 286.675 122.35C286.62 122.18 286.518 122.028 286.381 121.913C286.244 121.798 286.077 121.724 285.9 121.7C280.946 120.855 275.924 120.478 270.9 120.575C270.748 120.585 270.599 120.629 270.466 120.702C270.332 120.775 270.215 120.877 270.125 121H268.025C267.525 118.975 265.675 114.3 265.025 112.5C266.725 111.025 269.075 110.275 270.3 107.9C272.55 103.5 272.45 95.85 271.825 90.95C274.65 88.8 274.725 85.35 274.075 81.825C273.825 80.4 273.05 77.175 271.85 76.375C271.175 75.925 269.75 76.375 268.525 76.825C267.3 73.975 267.3 75.275 267.8 74.125C268.032 73.595 268.168 73.0277 268.2 72.45C269.525 72.85 272.275 70.2 271.325 66.7C270.827 65.4471 270.216 64.2421 269.5 63.1C269.85 62.25 270.6 61.225 268.25 58.1C267.238 57.0083 265.924 56.2424 264.475 55.9H263.325C262.496 54.6957 261.278 53.813 259.875 53.4C257.758 52.8601 255.513 53.1744 253.625 54.275C253.125 54.65 252.725 55.15 252.225 55.5C251.095 54.8136 249.797 54.4506 248.475 54.4506C247.152 54.4506 245.855 54.8136 244.725 55.5C244.063 55.7597 243.461 56.1504 242.954 56.6488C242.447 57.1471 242.046 57.7428 241.775 58.4C240.55 57.9774 239.25 57.8147 237.959 57.9223C236.668 58.0299 235.413 58.4054 234.275 59.025C229.956 61.3669 226.726 65.3062 225.275 70C225.235 70.7078 225.235 71.4172 225.275 72.125H225C221.25 71.575 216.475 80.475 220.3 87.4C220.75 88.225 221.325 89 221.875 89.9C223.475 92.4 222.85 93.15 226.425 96.2C227.475 97.1 227.65 97.025 228.3 97.575C228.95 98.125 228.7 97.85 229.075 99.25C229.279 100.075 229.645 100.851 230.152 101.533C230.658 102.215 231.295 102.79 232.025 103.225C232.291 105.67 233.333 107.966 235 109.775C235.528 110.366 236.143 110.872 236.825 111.275C237.009 111.379 237.214 111.438 237.425 111.45C238.175 116.1 239.1 122.15 239.5 124.725L237.275 125.925C234.364 127.096 231.533 128.458 228.8 130C228.586 130.148 228.434 130.371 228.375 130.625C225.725 132.025 223.225 133.35 221.8 134.2C201.95 145.975 145.575 223.6 145 227.15C144.937 227.354 144.937 227.571 145 227.775C145.808 229.064 146.793 230.234 147.925 231.25C147.576 231.887 147.157 232.482 146.675 233.025C141.675 236.3 134.175 241.175 130.15 245.525C129.868 245.777 129.656 246.098 129.535 246.456C129.415 246.815 129.39 247.198 129.463 247.569C129.537 247.94 129.705 248.286 129.953 248.572C130.2 248.858 130.518 249.074 130.875 249.2C131.625 249.45 131.75 249.375 136.625 246.7C135.285 247.875 134.189 249.302 133.4 250.9C133.075 252.275 134.325 253.075 135.9 252.825C136.786 252.593 137.63 252.221 138.4 251.725C137.949 252.421 137.709 253.233 137.709 254.062C137.709 254.892 137.949 255.704 138.4 256.4C140.9 259.55 147.45 249.625 150.9 247.175C152.3 248.95 154.2 253.1 157.225 252C159.85 251.025 156.975 245.25 157.225 243.575C158.242 242.598 159.328 241.696 160.475 240.875C162.403 242.305 164.609 243.318 166.95 243.85C171.075 243.85 214.125 200.4 217.4 196.925C216.225 207.975 210.3 255.4 211.55 264.625C212.125 268.8 222.15 269.4 226.375 269.625C225.1 299.625 224.25 345.075 224.025 345.55C217.4 359.825 215.6 363.725 213.375 368.05C209.325 375.8 192.275 404.4 190.35 410.9C190.075 411.925 190.05 412.325 191.125 414.225C187.903 417.612 184.913 421.212 182.175 425C180.8 427.5 186.7 450.8 190.875 459.05C191.825 460.9 193.375 463.75 195.45 463.675C201.7 463.45 201.675 441 201.5 434.725C201.499 434.532 201.428 434.345 201.3 434.2C202.433 432.509 203.669 430.889 205 429.35C205.795 429.897 206.631 430.382 207.5 430.8C208.35 431.175 209.3 430.525 210 429.95C218.325 423.4 263.225 367.45 272.85 341.05C277.225 329 283.05 312.35 284.7 300.55C285.709 293.089 285.801 285.533 284.975 278.05C284.975 277.944 285.017 277.842 285.092 277.767C285.167 277.692 285.269 277.65 285.375 277.65C285.481 277.65 285.583 277.692 285.658 277.767C285.733 277.842 285.775 277.944 285.775 278.05C287.027 285.576 287.271 293.235 286.5 300.825C284.65 317.2 271.725 351.325 264.825 363.875C270.775 362.775 282.875 360.375 288.725 358.625C308.225 352.7 326.225 335.025 327.8 315.175C328.31 305.824 328.31 296.451 327.8 287.1C327.631 274.19 325.953 261.345 322.8 248.825C328.1 245.95 332.95 242.575 334.525 239.475C337.9 232.85 328.975 194.725 327.025 184.025C337.7 185.2 355.875 187.325 364.35 180.7C374.05 172.9 395 150.95 407.025 134.075ZM200.15 433.35C195.65 430.625 189.35 424.15 188.4 419.075C189.425 417.775 190.5 416.575 191.5 415.225C194.888 420.395 199.112 424.966 204 428.75C202.627 430.206 201.341 431.742 200.15 433.35ZM398.9 116.4C399.029 116.317 399.122 116.189 399.159 116.04C399.196 115.891 399.175 115.734 399.1 115.6C398.225 113.975 395.6 108.25 397.425 107.6C398.475 107.2 399.4 107.85 400.175 108.725C401.358 110.226 402.28 111.917 402.9 113.725C402.946 113.872 403.032 114.004 403.147 114.106C403.262 114.208 403.403 114.277 403.555 114.305C403.706 114.334 403.863 114.32 404.007 114.266C404.152 114.212 404.279 114.12 404.375 114C406.875 111.225 412.725 104.9 416.025 103.2C418.525 101.9 419.125 104.3 413 109.9C411.593 110.973 410.241 112.116 408.95 113.325C408.879 113.423 408.841 113.541 408.841 113.662C408.841 113.784 408.879 113.902 408.95 114C408.95 114.65 409.475 115.375 410.375 114.7C412.548 112.792 414.845 111.03 417.25 109.425C418.478 108.553 419.905 108.003 421.4 107.825C420.65 110.125 413.675 116.375 413.075 117.075C412.885 117.246 412.769 117.484 412.753 117.739C412.737 117.994 412.821 118.245 412.988 118.439C413.155 118.632 413.392 118.752 413.646 118.773C413.901 118.794 414.154 118.714 414.35 118.55C417.125 116.75 421.975 112.55 423.65 113.175C425.325 113.8 420.35 118.45 419.1 119.55C411.925 125.775 413.775 121.775 405.475 130.225C401.862 126.267 397.714 122.834 393.15 120.025L398.9 116.4ZM290.275 235.975C289.85 232.525 289.325 228.8 288.675 224.925L289.75 223.5C294.75 217.075 296.25 206.85 295.775 198.825C298.45 210.55 300.575 222.075 302.2 233.525L290.275 235.975ZM253.1 150.375C246.525 145.375 235.95 136.75 229.8 130.85L239.8 125.85C248.982 134.427 256.843 144.318 263.125 155.2C272.73 172.846 279.856 191.732 284.3 211.325L248.65 160.9L253.3 151.25C253.362 151.101 253.375 150.937 253.34 150.781C253.304 150.624 253.22 150.482 253.1 150.375ZM270 122.025C270.15 122.3 271.875 125.975 274.5 132.4C274.5 132.675 274.025 138.925 273.8 141.125C270.609 139.86 267.6 138.179 264.85 136.125C265.4 133.95 267.875 124.075 268.05 121.85L270 122.025ZM261.125 148.875C261.3 148.425 261.475 147.825 261.675 147.125L263.35 148C264.3 148.625 263.925 146.725 264.775 152.225C264.775 153.15 265.025 154.175 265.075 155.3C263.925 153.225 262.5 151 261.15 148.875H261.125ZM259.725 146.775C255.002 140.076 249.626 133.862 243.675 128.225L262.5 136.4C261.775 138.125 260.725 143.4 259.75 146.775H259.725ZM278.95 161.425C276.45 154.6 274.525 146.975 273.575 144.975C273.631 144.351 273.631 143.724 273.575 143.1C273.937 143.235 274.315 143.319 274.7 143.35C274.941 143.353 275.175 143.268 275.359 143.112C275.543 142.956 275.664 142.738 275.7 142.5C275.9 141.675 276.225 137.5 276.275 136.575C283.547 154.936 289.619 173.751 294.45 192.9C280.325 162.85 282.5 171.55 278.975 161.425H278.95ZM299.625 209.15C293.925 181.825 283.9 147.75 272.5 122.5C276.687 122.502 280.866 122.837 285 123.5C287.125 142.5 285.35 141.85 286.775 142.6C288.2 143.35 296.775 146.8 298.05 147.325C297.925 149.25 299.725 204.3 299.65 209.15H299.625ZM270.85 77.975C272.153 80.8191 272.613 83.9774 272.175 87.075C271.971 87.8634 271.553 88.5798 270.967 89.1446C270.38 89.7094 269.648 90.1003 268.853 90.2739C268.057 90.4476 267.229 90.397 266.461 90.128C265.692 89.8589 265.013 89.3819 264.5 88.75C263.307 86.2372 262.409 83.5945 261.825 80.875C262.5 80 269.7 78.25 270.85 77.975ZM236.45 102.975C235.537 102.559 234.602 102.192 233.65 101.875C233.011 101.612 232.441 101.207 231.983 100.69C231.524 100.172 231.191 99.5571 231.008 98.891C230.824 98.2249 230.796 97.5257 230.924 96.8469C231.053 96.1681 231.335 95.5277 231.75 94.975C233.325 93.65 234.75 93.725 236.05 95.7C236.875 97.225 236.85 97.35 237.225 97.5C237.333 97.5474 237.449 97.5713 237.567 97.57C237.684 97.5687 237.8 97.5424 237.907 97.4927C238.013 97.4429 238.108 97.371 238.184 97.2818C238.261 97.1925 238.317 97.0879 238.35 96.975C238.721 95.4102 238.78 93.7878 238.525 92.2C238.225 90.475 238.175 82.825 238.225 82.575C238.955 82.9599 239.776 83.1413 240.6 83.1C245.125 82.925 246.025 80.6 247.825 78.7C249.9 78.9 250.325 79.9 252.675 78.7C253.775 78.074 254.785 77.3002 255.675 76.4C256.393 76.6942 257.087 77.0453 257.75 77.45C259.248 78.1705 260.938 78.3918 262.571 78.0813C264.205 77.7709 265.696 76.945 266.825 75.725C267.1 76.25 267.35 76.775 267.575 77.325C265.278 78.0379 263.115 79.1277 261.175 80.55C260.75 81.075 261.375 83.925 261.525 84.6C259.431 84.8635 257.404 85.5164 255.55 86.525C255.175 85.225 254.35 82.8 253.05 82.125C252.659 82.0053 252.241 82.0053 251.85 82.125C249.6 82.475 241.525 84.9 240.55 86.225C239.7 87.15 242.125 94.3 242.875 95.475C245.75 99.925 254.175 98.625 255.75 93.425C256.14 91.6799 256.14 89.8701 255.75 88.125C256.475 88.125 258.65 87.35 258.9 87.275C260.625 91.15 261.125 91.375 263.125 95.55C262.85 95.775 262.4 96.15 262.025 96.4C260.25 97.575 259.875 97.375 259.975 97.875C260.004 97.9742 260.068 98.0595 260.156 98.1147C260.243 98.1699 260.348 98.1914 260.45 98.175C261.499 98.0251 262.524 97.7393 263.5 97.325C264.084 97.1072 264.565 96.6793 264.85 96.125C265.55 94.55 261.675 88.625 260.15 86.85C260.45 86.85 261.15 86.35 261.675 86.075C262.375 88.875 262.85 91.075 265.55 92.175C266.33 92.4696 267.162 92.6037 267.995 92.5694C268.829 92.535 269.647 92.3328 270.4 91.975C270.8 96.375 270.725 103.525 268.625 107.425C267.55 109.45 264.9 110.225 263.2 111.9C262.7 112.375 263.025 113.05 263.2 113.775C265.975 121.5 266.025 121.475 265.875 122.475C265.139 126.626 264.112 130.719 262.8 134.725C262.175 134.45 255.15 130.725 241.4 125.375C240.975 122.55 238.7 107.475 237.975 104.7C238.025 103.725 237.9 103.5 236.45 102.85V102.975ZM253.95 92.775C253.15 95.5 249.375 96.675 246.675 95.925C243.975 95.175 243.8 93.8 242.525 90.55C241.927 89.3084 241.515 87.9861 241.3 86.625C242.125 85.725 251.15 83.875 252.275 83.7C253.853 86.3993 254.445 89.5627 253.95 92.65V92.775ZM156.125 242.875C155.175 243.8 156.45 246.825 156.65 249.45C156.65 249.675 156.65 250.65 156.5 250.725C155.125 251.175 153.85 249.1 153.075 247.85C152.3 246.6 151.525 244.9 150.3 245.35C147.8 246.525 142 254.225 139.725 255.025C138.575 252.825 145.15 246.55 145.375 246.2C145.471 246.039 145.522 245.855 145.521 245.668C145.52 245.48 145.468 245.297 145.37 245.137C145.272 244.977 145.132 244.847 144.966 244.761C144.799 244.676 144.612 244.637 144.425 244.65C143.975 244.65 143.675 245.05 142.975 245.675C140.846 247.753 138.409 249.49 135.75 250.825C138.161 248.059 140.741 245.446 143.475 243C143.61 242.861 143.705 242.688 143.75 242.5C143.75 242.5 143.225 241.175 142.2 241.7C140.75 242.5 133.7 246.575 131.475 247.625C131.175 247.425 131.35 247.125 131.475 246.825C135 242.5 142.75 237.25 147.5 233.925C148.057 233.351 148.521 232.693 148.875 231.975C152.165 235.036 155.674 237.852 159.375 240.4C158.235 241.148 157.149 241.975 156.125 242.875ZM214.3 265.6C213.75 265.25 213.35 264.925 213.275 264.475C211.9 254.275 219.55 196.475 219.425 194.2C219.425 194.067 219.398 193.934 219.347 193.811C219.295 193.688 219.219 193.577 219.123 193.484C219.028 193.391 218.915 193.318 218.79 193.269C218.666 193.22 218.533 193.197 218.4 193.2C217.125 193.2 219.375 193.2 187.525 223.7C185.425 225.675 169.375 241.025 166.7 242.05C163.025 241.775 149.2 230.75 146.95 227.275C151.3 218.475 204.05 146.075 222.3 135C223.7 134.15 226.1 132.825 228.725 131.425C229.633 132.281 230.611 133.059 231.65 133.75C237.45 139.25 245.525 146.1 251.65 151.25L246.875 160.725C246.803 160.85 246.764 160.993 246.764 161.137C246.764 161.282 246.803 161.425 246.875 161.55C285.65 217.175 285.075 216.55 285.325 216.55C287.811 229.404 289.356 242.422 289.95 255.5C289.95 259.025 289.95 258.725 290.1 258.475C290.25 258.225 290.1 258.65 290.1 258.65C284.05 265.25 224.175 271.4 214.3 265.6ZM352.5 182.775C341.175 184.35 328.375 182 325.9 181.9C324.525 175.235 321.784 168.928 317.85 163.375C317.79 163.294 317.701 163.239 317.602 163.22C317.503 163.202 317.401 163.221 317.316 163.275C317.23 163.329 317.169 163.413 317.142 163.51C317.116 163.607 317.128 163.711 317.175 163.8C318.625 166.75 323.475 179.475 324.675 182.575C324.3 183.775 335.975 232.05 332.675 238.55C329.725 244.425 312.55 251.825 306.35 253.95C305.124 240.032 303.121 226.194 300.35 212.5C301.2 205.3 300.1 162.5 299.775 146.675C299.765 146.491 299.704 146.314 299.598 146.163C299.492 146.013 299.345 145.896 299.175 145.825L287.95 141.1C287.899 135.159 287.523 129.225 286.825 123.325C314.85 128.175 347.5 144.2 350.225 144.225C354.175 144.225 383.525 121.725 389.6 120.825C392.3 120.4 403.9 130.525 405.25 133.325C393.4 149.875 372.575 171.625 362.925 179.15C359.816 181.229 356.227 182.477 352.5 182.775Z" fill="white"/>
<path d="M251.375 87.775C251.346 87.6088 251.284 87.4501 251.193 87.308C251.102 87.166 250.984 87.0434 250.845 86.9475C250.706 86.8515 250.55 86.7841 250.385 86.7492C250.22 86.7143 250.05 86.7125 249.884 86.744C249.718 86.7755 249.56 86.8396 249.42 86.9326C249.279 87.0256 249.158 87.1457 249.064 87.2859C248.97 87.426 248.905 87.5834 248.873 87.7489C248.84 87.9144 248.841 88.0848 248.875 88.25C249.375 90.75 249.475 91.325 250.575 91.325C250.783 91.3257 250.988 91.2746 251.171 91.1762C251.354 91.0778 251.51 90.9352 251.624 90.7615C251.738 90.5877 251.807 90.3882 251.825 90.181C251.842 89.9739 251.808 89.7656 251.725 89.575C251.65 89.175 251.425 88 251.375 87.775ZM259.025 104.325C260.65 104.8 262.2 104.025 262.15 103.625C262.1 103.225 262.15 103.425 259.95 102.6C258.475 102.05 256.85 100.1 256.275 100.4C255.7 100.7 256.575 102.3 256.775 102.6C257.31 103.411 258.102 104.019 259.025 104.325ZM304.75 80.575C301.475 94.3 299.075 105.95 298.675 108.275C298.409 109.287 298.358 110.343 298.525 111.375C299.85 114.2 316.975 119.775 319.15 118.675C321.325 117.575 326.975 104.85 333.55 91.725C337.578 91.8537 341.608 91.5604 345.575 90.85C349.752 90.0837 353.817 88.7988 357.675 87.025C366.125 83.125 375.375 66.425 376.625 58.025C377.562 48.9051 375.631 39.72 371.1 31.75C350.125 -4.625 288.6 14.95 293.6 55.35C295.028 64.5943 298.874 73.2967 304.75 80.575ZM320 110.35C320 110.75 319.55 110.7 317.5 110.35C313.307 109.823 309.247 108.526 305.525 106.525C303.775 105.575 303.3 105.375 303.475 104.95C303.65 104.525 304.025 104.675 306.725 105.425C306.975 105.425 314.725 107.925 316.95 108.7C319.825 110 320 110 320 110.35ZM319.55 69.675C322.22 69.8134 324.88 69.2624 327.275 68.075C329.501 69.1534 331.909 69.8063 334.375 70C330.175 77.825 321.65 93.775 318.9 102.275L308.3 99.35C310.8 93.2 316.325 78.8 319.5 69.675H319.55ZM318.675 67.6C316.809 67.318 315.087 66.4317 313.772 65.077C312.458 63.7223 311.625 61.9739 311.4 60.1C310.7 55.1 313.9 49.5 318.725 50.825C321.75 51.65 322.125 54.05 321.6 57.075C321.15 59.275 319.525 64.8 318.625 67.5L318.675 67.6ZM325.475 61.6C325.742 59.9641 326.356 58.4042 327.275 57.025C327.712 56.2731 328.352 55.659 329.121 55.2525C329.89 54.8459 330.757 54.6631 331.625 54.725C333.475 55.275 334.275 58.775 332.75 60.975C331.284 62.92 329.46 64.5663 327.375 65.825C326.658 65.404 326.086 64.7735 325.738 64.0182C325.389 63.2629 325.28 62.4191 325.425 61.6H325.475ZM302.5 29.825C313.7 16.35 334.775 11 350 16.55C358.271 19.3891 365.228 25.1377 369.575 32.725C373.885 40.3089 375.729 49.0462 374.85 57.725C373.7 65.5 364.85 81.65 357.075 85.225C349.966 88.4675 342.21 90.041 334.4 89.825C333.55 89.825 332.65 89.825 332.325 90.425C330.85 93.425 328.15 99.225 325.5 104.675C323.67 103.791 321.772 103.056 319.825 102.475C322.725 94.175 331.875 77.875 336.225 69.975C339.994 70.2979 343.783 69.6435 347.225 68.075C348.155 67.5854 348.926 66.8408 349.448 65.9284C349.969 65.0159 350.22 63.9737 350.17 62.9238C350.12 61.874 349.772 60.8601 349.166 60.0013C348.56 59.1424 347.722 58.4742 346.75 58.075C342.875 56.175 339.4 60.725 337.375 64.55C336.825 65.55 336.2 66.725 335.5 68.05C333.478 67.9171 331.484 67.5049 329.575 66.825C331.476 65.4889 333.162 63.8702 334.575 62.025C335.367 60.8297 335.768 59.4182 335.723 57.9852C335.678 56.5523 335.19 55.1686 334.325 54.025C333.646 53.2363 332.702 52.7224 331.671 52.5797C330.64 52.437 329.593 52.6753 328.725 53.25C326.974 54.3258 325.571 55.8841 324.684 57.7378C323.797 59.5914 323.464 61.6617 323.725 63.7C323.997 64.8506 324.617 65.8894 325.5 66.675C323.86 67.3542 322.1 67.6943 320.325 67.675C321.325 64.725 322.95 59.4 323.375 57.225C323.642 55.985 323.701 54.7094 323.55 53.45C323.356 52.3689 322.855 51.3667 322.105 50.5639C321.356 49.7612 320.39 49.192 319.325 48.925C313.25 47.2 308.775 53.925 309.65 60.2C309.897 62.4487 310.862 64.558 312.402 66.2151C313.942 67.8722 315.975 68.989 318.2 69.4C315 78.4 310 92.925 307.5 99.125L302 97.7C305.525 80 305.95 80.425 305.45 80.2C299.77 72.9575 296.135 64.3245 294.925 55.2C294.336 50.6756 294.706 46.0779 296.011 41.706C297.316 37.3341 299.527 33.2859 302.5 29.825ZM337.2 68.2C338.95 65.025 342.45 58.075 345.85 59.775C346.53 60.049 347.122 60.5035 347.563 61.0895C348.003 61.6755 348.276 62.3706 348.35 63.1C348.3 67.5 341.45 68.275 337.1 68.2H337.2ZM432.9 79.225C435.913 77.4532 439.471 76.8483 442.9 77.525C446.667 77.5924 450.265 79.0984 452.956 81.7342C455.648 84.3699 457.229 87.9357 457.375 91.7C455.11 90.3858 452.462 89.8914 449.875 90.3C443.6 90.85 435.4 94.25 436.5 100.3C437.4 105.3 444 104.625 449 103.275C454 101.925 457.975 99.475 459 94.65C465.075 99.075 466.5 106.825 466.75 114.4C466.75 114.506 466.792 114.608 466.867 114.683C466.942 114.758 467.044 114.8 467.15 114.8C467.256 114.8 467.358 114.758 467.433 114.683C467.508 114.608 467.55 114.506 467.55 114.4C467.725 105.925 466.2 97.625 459.275 92.8C459.346 90.6295 458.976 88.467 458.187 86.4436C457.399 84.4202 456.207 82.5779 454.686 81.0284C453.164 79.4788 451.344 78.2541 449.335 77.4284C447.327 76.6028 445.171 76.1934 443 76.225C439.529 75.7182 435.991 76.4436 433 78.275C432.075 78.725 432.5 79.4 432.9 79.225ZM455.7 97.15C452.875 100.85 444.875 102.775 441.175 102.15C439.8 101.925 438.675 101.35 438.375 99.925C437.475 94.925 446.1 92.2 451.25 92.025C453.347 91.8643 455.439 92.4003 457.2 93.55C457.011 94.8571 456.495 96.0953 455.7 97.15ZM421.45 50C424.125 46.7 422.325 40.95 414.85 40.925C411.95 40.925 410.55 43.875 410.75 46.7C411.2 53.425 418.775 53.225 421.45 50ZM412.5 46.575C412.5 44.925 413.275 42.775 415 42.8C419.025 42.8 420.875 44.675 420.875 46.75C420.775 51.475 412.175 53.925 412.5 46.575ZM411.475 330C389.5 321.225 379.3 363.7 361.35 400.2C361.237 401.734 361.287 403.276 361.5 404.8C361.5 408.625 361.925 433.95 364.15 436.825C364.75 437.975 367.275 436.825 368.45 436.1C378.429 429.922 387.834 422.86 396.55 415C396.624 414.915 396.68 414.816 396.715 414.708C396.749 414.601 396.761 414.487 396.75 414.375C401.4 407.75 418.825 373.25 423.05 355.95C426 343.7 423.075 334.575 411.475 330ZM419.325 361.75C407.56 360.243 396.186 356.527 385.8 350.8C391.65 339.725 398.875 327.1 410.8 331.85C424.075 337.125 423.8 348.05 419.325 361.675V361.75ZM377.725 426.75C376.957 426.106 376.118 425.553 375.225 425.1C371.847 423.382 367.943 423.007 364.3 424.05C364.05 421.075 362.625 401.725 362.625 401.55C381.35 408.4 375.575 405.425 394.125 414.65C392.175 416.5 384.85 421.625 377.725 426.7V426.75ZM390.625 354.4C393.063 355.732 395.566 356.942 398.125 358.025C392.395 367.026 387.331 376.434 382.975 386.175C378.775 394.95 378.925 394.9 374.65 404.475C372.15 403.675 369.65 402.925 367.15 402.175C369.85 396.8 389.05 357.5 390.625 354.35V354.4ZM375.625 404.725C383.75 390.15 392.025 372.025 399.125 358.35C401.625 359.4 404.125 360.25 406.625 361C405.3 363.5 401.425 370.15 400.4 372.075C399.375 374 389.1 394.25 388.375 395.8C387.225 398.3 384.075 405.275 383.1 407.5C380.55 406.375 378.1 405.525 375.525 404.675L375.625 404.725ZM384 407.825C385.525 405.05 391.8 393.4 392.575 391.9C393.75 389.575 406.85 362.8 407.575 361.25C409.875 361.9 412.3 362.45 413.85 362.75C409.275 375.25 396.1 399.325 391.35 411.2C387.025 409.175 386.05 408.675 383.9 407.775L384 407.825ZM385.525 351.525L390 354.025C380.982 369.383 373.126 385.394 366.5 401.925L362.75 400.775C377.275 369.825 377.95 365.775 385.425 351.475L385.525 351.525ZM395.825 413.375L392.05 411.575C396.125 403.575 408.875 383.05 414.7 362.925C416.1 363.175 417.475 363.4 418.8 363.575C412.375 380.717 404.662 397.348 395.725 413.325L395.825 413.375ZM317.5 429.6C318.496 428.775 319.209 427.658 319.536 426.406C319.864 425.155 319.79 423.832 319.325 422.625C319.113 420.883 318.314 419.265 317.06 418.038C315.806 416.81 314.171 416.047 312.425 415.872C310.679 415.697 308.926 416.122 307.453 417.077C305.981 418.032 304.878 419.46 304.325 421.125C301.125 419.05 297.65 416.85 294.325 414.75C296.825 411.425 304.175 412.9 304.925 415.625C304.944 415.729 305.003 415.821 305.089 415.882C305.175 415.943 305.282 415.968 305.386 415.952C305.49 415.936 305.584 415.879 305.647 415.795C305.711 415.71 305.738 415.605 305.725 415.5C305.35 411.15 296.3 408.6 292.65 413.725C289.425 411.75 285.425 409.35 282.075 407.525C284.95 405.025 291.375 406.425 292.075 409.025C292.108 409.114 292.171 409.188 292.254 409.235C292.337 409.281 292.433 409.297 292.526 409.279C292.619 409.261 292.703 409.21 292.762 409.136C292.822 409.062 292.853 408.97 292.85 408.875C292.525 404.825 284.15 402.1 280.35 406.55C278.758 405.658 277.083 404.921 275.35 404.35C275.033 404.219 274.685 404.182 274.348 404.244C274.011 404.306 273.699 404.464 273.45 404.7C267.125 412.575 245.8 433.025 235.95 435.4C235.702 435.437 235.469 435.539 235.273 435.695C235.077 435.852 234.926 436.057 234.835 436.29C234.744 436.523 234.716 436.776 234.753 437.024C234.791 437.271 234.893 437.505 235.05 437.7C237.213 439.895 239.69 441.757 242.4 443.225C239.9 445.725 237.95 447.975 236.5 449.6C235.75 450.4 235.35 465.7 236 469.075C236.097 469.405 236.31 469.69 236.6 469.875C239.75 472.025 280.325 489.575 284.475 487.225C287.25 485.65 320.375 451.175 320.9 450.125C321.7 448.475 321.425 437.475 321.375 433.075C321.175 431.75 318.7 430.325 317.5 429.6ZM237.5 462.625V457.05C247.875 462.05 271.625 472.25 280.625 475.1C282.925 475.85 283.125 475.75 284.325 475.1C291.2 470.7 315.475 443.35 319.925 439.175V444.45C306.425 457.975 283.5 481.675 283.075 480.325C280.6 480.175 239.65 463.625 237.5 462.625ZM316.875 421.175C317.774 422.689 318.257 424.414 318.275 426.175C318.266 426.735 318.129 427.286 317.873 427.785C317.617 428.283 317.25 428.716 316.8 429.05C314.7 427.65 310.725 425.05 306.025 422C308.6 416.925 314.325 416.85 316.775 421.175H316.875ZM236.875 437.175C247.525 434.025 267.75 414.525 274.55 406.075C276.187 406.53 277.764 407.177 279.25 408C276.75 412.65 279.425 417.75 280.375 417.025C280.9 416.625 279.95 416.475 279.8 414.025C279.736 412.235 280.141 410.46 280.975 408.875C284.425 410.675 288.475 413.025 291.9 415C289.8 419.675 292.325 424.3 293.2 423.625C294.075 422.95 292.8 423.1 292.65 420.65C292.589 419.043 292.897 417.444 293.55 415.975C297.075 418.05 300.675 420.2 303.975 422.225C303.466 423.471 303.265 424.82 303.386 426.16C303.508 427.5 303.95 428.791 304.675 429.925C304.741 430.011 304.839 430.068 304.947 430.082C305.055 430.096 305.164 430.066 305.25 430C305.336 429.934 305.392 429.836 305.407 429.728C305.421 429.62 305.391 429.511 305.325 429.425C304.876 428.432 304.654 427.351 304.675 426.261C304.697 425.171 304.962 424.1 305.45 423.125C311.275 426.675 315.975 429.65 317.425 430.625C317.15 430.875 291.075 454.075 282.2 460.975C276.375 459.45 245.8 444.275 236.875 437.175ZM237.825 451.1C249.15 456.1 274.875 467.7 280.8 468.825C281.825 469.025 282.225 469.1 284.175 467.55C292.5 460.875 319.575 432.55 319.825 432.85C319.837 432.925 319.837 433 319.825 433.075V438.075C314.25 442.55 283.25 475.1 282.75 473.55C280.25 473.55 239.625 456.975 237.55 456.05C237.5 455 237.725 452.2 237.825 451.1ZM283.35 485.55C280.85 486.975 242.775 471.5 237.675 468.35C237.483 466.757 237.392 465.154 237.4 463.55C248.35 468.95 280.2 482.4 283.125 482.275C287.4 482.05 317.625 448.025 319.775 445.65C319.8 446.927 319.674 448.202 319.4 449.45C318.975 450.275 285 484.625 283.35 485.55ZM76.2249 344.625C76.3999 347.3 76.525 349.625 76.525 351.8C76.525 352.132 76.6566 352.449 76.8911 352.684C77.1255 352.918 77.4434 353.05 77.775 353.05C78.1065 353.05 78.4244 352.918 78.6588 352.684C78.8933 352.449 79.025 352.132 79.025 351.8C79.025 349.475 78.8999 347.175 78.7249 344.45C78.7017 344.118 78.5478 343.81 78.297 343.592C78.0461 343.374 77.719 343.264 77.3874 343.288C77.0559 343.311 76.7472 343.465 76.5292 343.715C76.3112 343.966 76.2017 344.293 76.2249 344.625ZM457.15 294.5C456.987 294.509 456.827 294.551 456.68 294.624C456.534 294.696 456.403 294.797 456.296 294.92C456.188 295.043 456.107 295.187 456.056 295.343C456.005 295.498 455.986 295.662 456 295.825C456.15 298.125 456.3 300.6 456.3 303C456.3 303.332 456.432 303.649 456.666 303.884C456.9 304.118 457.218 304.25 457.55 304.25C457.881 304.25 458.199 304.118 458.434 303.884C458.668 303.649 458.8 303.332 458.8 303C458.8 300.5 458.65 298 458.475 295.65C458.466 295.487 458.423 295.327 458.351 295.18C458.279 295.034 458.178 294.903 458.055 294.796C457.931 294.688 457.788 294.607 457.632 294.556C457.477 294.505 457.313 294.486 457.15 294.5ZM69.75 338.4C70.0815 338.4 70.3994 338.268 70.6338 338.034C70.8683 337.799 71 337.482 71 337.15C71 336.818 70.8683 336.501 70.6338 336.266C70.3994 336.032 70.0815 335.9 69.75 335.9C66.7249 335.9 64.2 336.125 61.7 336.075C61.3661 336.075 61.0455 336.206 60.8071 336.44C60.5687 336.673 60.4315 336.991 60.4249 337.325C60.4249 337.657 60.5566 337.974 60.7911 338.209C61.0255 338.443 61.3434 338.575 61.6749 338.575C64.25 338.625 67.075 338.525 69.75 338.4ZM449.4 287.1C446.4 287.1 443.875 287.275 441.35 287.3C441.018 287.3 440.7 287.432 440.466 287.666C440.232 287.901 440.1 288.218 440.1 288.55C440.1 288.882 440.232 289.199 440.466 289.434C440.7 289.668 441.018 289.8 441.35 289.8C444.05 289.8 446.85 289.8 449.55 289.6C449.877 289.574 450.18 289.421 450.395 289.173C450.61 288.926 450.72 288.604 450.7 288.276C450.68 287.949 450.533 287.643 450.29 287.423C450.047 287.203 449.728 287.087 449.4 287.1ZM75.55 322.95C75.7 325.25 75.8499 327.725 75.8499 330.125C75.8563 330.455 75.9901 330.769 76.2231 331.002C76.4562 331.235 76.7704 331.369 77.0999 331.375C77.4315 331.375 77.7494 331.243 77.9838 331.009C78.2183 330.774 78.3499 330.457 78.3499 330.125C78.3499 327.625 78.2 325.125 78.05 322.775C78.0267 322.443 77.8728 322.135 77.622 321.917C77.3711 321.699 77.044 321.589 76.7125 321.612C76.3809 321.636 76.0722 321.79 75.8542 322.04C75.6362 322.291 75.5267 322.618 75.55 322.95ZM458.125 281.325C458.125 278.825 457.975 276.325 457.8 273.975C457.788 273.811 457.745 273.651 457.671 273.503C457.598 273.356 457.496 273.225 457.372 273.117C457.248 273.009 457.104 272.926 456.947 272.874C456.791 272.822 456.627 272.801 456.462 272.812C456.298 272.824 456.138 272.868 455.991 272.941C455.844 273.015 455.712 273.116 455.604 273.24C455.496 273.365 455.414 273.509 455.362 273.665C455.309 273.821 455.288 273.986 455.3 274.15C455.45 276.45 455.6 278.925 455.6 281.325C455.6 281.657 455.732 281.974 455.966 282.209C456.2 282.443 456.518 282.575 456.85 282.575C457.184 282.575 457.504 282.444 457.743 282.21C457.981 281.977 458.118 281.659 458.125 281.325ZM94 338.075C94.1641 338.069 94.3255 338.03 94.4747 337.961C94.6239 337.892 94.758 337.795 94.8695 337.674C94.981 337.553 95.0675 337.412 95.1242 337.257C95.1809 337.103 95.2066 336.939 95.2 336.775C95.1747 336.448 95.0267 336.142 94.7856 335.92C94.5444 335.697 94.2281 335.574 93.9 335.575C90.875 335.7 88.3499 335.8 85.8249 335.75C85.4934 335.75 85.1755 335.882 84.9411 336.116C84.7066 336.351 84.5749 336.668 84.5749 337C84.5749 337.332 84.7066 337.649 84.9411 337.884C85.1755 338.118 85.4934 338.25 85.8249 338.25C88.4999 338.3 91.3 338.2 94 338.075ZM473.65 286.775C471.15 286.9 468.375 286.975 465.6 286.975C465.435 286.968 465.27 286.995 465.116 287.053C464.961 287.112 464.82 287.201 464.701 287.316C464.582 287.43 464.487 287.567 464.423 287.719C464.358 287.871 464.325 288.035 464.325 288.2C464.325 288.534 464.456 288.854 464.689 289.093C464.923 289.331 465.241 289.468 465.575 289.475C468.425 289.475 470.725 289.475 473.75 289.275C473.914 289.269 474.075 289.23 474.225 289.161C474.374 289.092 474.508 288.995 474.619 288.874C474.731 288.753 474.818 288.612 474.874 288.457C474.931 288.303 474.957 288.139 474.95 287.975C474.919 287.65 474.77 287.348 474.53 287.126C474.29 286.905 473.976 286.78 473.65 286.775ZM36.55 264C36.875 264.25 107.375 253.8 110.4 251.95C110.567 251.828 110.701 251.665 110.789 251.477C110.876 251.289 110.914 251.082 110.9 250.875C110.9 247.65 106.675 217.375 104.65 209.825C104.4 208.9 104.15 207.975 103.575 207.65C99.75 205.35 32.35 218.05 28.325 220.65C28.2159 220.714 28.1216 220.801 28.0484 220.905C27.9751 221.008 27.9246 221.126 27.9 221.25C27.05 224.275 34.375 262.5 36.55 264ZM29.425 221.85C34.225 219.675 95.4 208.475 102.4 209.35C104.1 213.725 108.65 245.775 108.95 250.475C105.475 251.5 37.5 263.175 37.25 263.225C37 263.275 36.975 263.575 36.45 262C34.25 255.4 29.3 227.5 29.425 221.85Z" fill="white"/>
<path d="M115.9 254.175C116.036 253.922 116.097 253.636 116.075 253.35C116.075 249.375 110.375 205.25 108.35 201.725C108.191 201.465 107.967 201.252 107.699 201.107C107.431 200.962 107.129 200.891 106.825 200.9C98.45 199.875 27.8 213.675 23.15 216.9C22.5 217.35 22.6 218.475 22.675 219.675C23.075 226.25 30.175 269.5 32.675 269.25C32.95 269.25 32.85 269.05 32.2 270.375C28.3 278.4 20.9 304.1 21.05 309.275C21.05 311.45 21.55 314.275 23.7 314.125C39.125 312.225 114.75 300.225 136.5 295.75C137.35 295.575 137.9 294.8 137.875 293.525C137.618 291.401 136.974 289.342 135.975 287.45C132.925 281.725 120.275 259.05 115.9 254.175ZM32.825 268.475C30.875 265.975 23.7 222.9 24.25 218.125C29.75 215.275 99.45 201.8 106.75 202.9C108.75 208.4 113.925 248.125 114.25 252.9C105.4 255.95 44.125 265.85 32.825 268.475ZM33.925 269.225C36.025 268.7 107.55 256.725 114.1 255C117.675 258.325 133.825 287.05 134.875 289.5C120.525 292 35.4 306.225 22.875 308.125C23.05 300.55 30.825 274.075 33.925 269.225Z" fill="white"/>
<path d="M43.325 295.15C45.5 294.825 91.65 289.275 108.325 284.75C108.428 284.723 108.516 284.657 108.57 284.566C108.624 284.474 108.639 284.365 108.613 284.263C108.586 284.16 108.52 284.072 108.428 284.018C108.337 283.964 108.228 283.948 108.125 283.975C104.85 284.65 64.9 289.975 43.275 294.375C43.2153 294.364 43.1539 294.367 43.0954 294.384C43.037 294.4 42.9831 294.43 42.9379 294.47C42.8926 294.511 42.8571 294.561 42.8341 294.617C42.811 294.673 42.8011 294.734 42.805 294.794C42.8089 294.855 42.8266 294.914 42.8566 294.967C42.8867 295.019 42.9283 295.065 42.9784 295.099C43.0285 295.133 43.0858 295.156 43.1458 295.164C43.2059 295.173 43.2671 295.168 43.325 295.15ZM77.05 121.2C76.1161 123.309 75.3309 125.481 74.7 127.7C74.6628 128.056 74.761 128.413 74.975 128.7C77.5 132.5 103.375 161.675 110.125 165.775C111.05 166.35 112.15 166.75 112.825 165.925C117.728 159.824 124.128 155.095 131.4 152.2C137.319 150.106 143.525 148.934 149.8 148.725C154.8 148.275 155.675 147.775 157.6 144.5C159.871 140.19 162.884 136.314 166.5 133.05C171.111 129.018 176.23 125.606 181.725 122.9C181.972 122.76 182.166 122.541 182.274 122.278C182.383 122.016 182.401 121.724 182.325 121.45C181.48 119.299 180.362 117.266 179 115.4C179.9 115.1 180.9 114.825 180.9 113.925C180.9 111.425 159.1 79.875 153.05 73.925C152.425 73.3 151.525 72.475 150.7 72.525C138.2 73.225 126.025 85.025 118.975 95.325C110.9 95.025 105.675 94.3 96.475 98.175C89.9802 100.932 84.1246 105 79.275 110.125C78.525 110.9 73.425 116.3 73.35 116.725C73.275 117.15 73.425 117.15 77.05 121.2ZM177.05 120.5C166.625 122.275 159.975 130.95 155.075 140.375C152.9 144.575 153.1 144.775 150.8 144.725C146.778 144.497 142.744 144.648 138.75 145.175C135.821 145.613 132.941 146.333 130.15 147.325C123.8 149.575 116.525 156.775 112.65 162.125C112.568 162.235 112.463 162.326 112.343 162.393C112.223 162.46 112.09 162.501 111.953 162.512C111.816 162.524 111.678 162.507 111.548 162.462C111.419 162.416 111.3 162.344 111.2 162.25C103.075 153.875 88.7 139.175 81.475 130.725C81.125 130.35 81.725 129.8 82.075 130.2C86.75 135.2 98.825 147.175 111.775 160.2C116.15 154.625 122.9 147.875 129.575 145.525C133.215 144.227 137.002 143.387 140.85 143.025C144.453 142.751 148.072 142.751 151.675 143.025C153.15 141.325 160.45 122.025 177 119.875C177.048 119.911 177.088 119.957 177.116 120.01C177.145 120.063 177.161 120.121 177.163 120.181C177.165 120.242 177.154 120.301 177.13 120.356C177.106 120.412 177.07 120.461 177.025 120.5H177.05ZM150.675 74.55C155.675 78.05 176.025 108.175 178.675 113.45C174.077 114.907 169.637 116.825 165.425 119.175C161.436 121.175 157.943 124.039 155.201 127.56C152.459 131.08 150.537 135.168 149.575 139.525C140.6 124.925 128.075 108.85 119.75 97.025C120.25 96.7 134.3 75.525 150.675 74.55ZM97.025 99.55C106.15 95.875 111.2 96.725 118.75 97.05C126.25 109.85 139.725 127.9 148.6 139.725C140.409 137.787 131.789 138.972 124.425 143.05C120 145.55 114.6 151.55 111.275 155.275C106.475 151.425 78.775 121.925 74.325 116.925C81.175 109.175 87.5 103.35 97.025 99.45V99.55ZM51.275 163.125C50.6571 162.691 49.9267 162.446 49.1723 162.42C48.4179 162.393 47.6719 162.586 47.025 162.975C46.5539 163.185 46.1288 163.486 45.7739 163.86C45.4191 164.235 45.1414 164.675 44.9569 165.157C44.7723 165.639 44.6845 166.152 44.6983 166.668C44.7121 167.183 44.8274 167.691 45.0375 168.163C45.2476 168.634 45.5485 169.059 45.9229 169.414C46.2973 169.768 46.7379 170.046 47.2196 170.231C47.7013 170.415 48.2147 170.503 48.7303 170.489C49.246 170.475 49.7539 170.36 50.225 170.15C50.9776 169.985 51.6624 169.596 52.1887 169.033C52.7149 168.471 53.0577 167.761 53.1715 166.999C53.2854 166.238 53.165 165.459 52.8263 164.767C52.4876 164.075 51.9466 163.502 51.275 163.125ZM49.625 168.125C47.875 168.675 46.825 168.125 46.4 167.275C45.6 165.5 46.6 162.775 49.2 163.575C51.025 164.25 52.5 167.325 49.625 168.25V168.125ZM178.4 48.725C179.125 50.2 182.5 49.65 183.975 49.175C184.75 48.925 185.25 48.65 185.325 47.9C185.55 46.025 185.8 29.775 184.95 28.2C184.862 28.0348 184.728 27.8993 184.563 27.8104C184.398 27.7214 184.211 27.683 184.025 27.7C181.358 27.6926 178.704 28.0801 176.15 28.85C175.125 29.475 177.5 47.075 178.4 48.725ZM176.675 29.45C178.984 29.1196 181.32 29.0108 183.65 29.125C183.8 30.975 183.4 47 183.375 47.25C182.319 47.6285 181.191 47.7652 180.075 47.65C179.9 47.075 179.6 45.525 179.225 43.575C178.123 38.9156 177.272 34.2005 176.675 29.45ZM48.85 142.025C49.0899 142.148 49.3555 142.212 49.625 142.212C49.8945 142.212 50.1601 142.148 50.4 142.025C51.3659 141.429 52.1319 140.559 52.6 139.525C52.6636 139.36 52.6832 139.18 52.6569 139.005C52.6306 138.83 52.5593 138.664 52.45 138.525C51.25 137.1 38.15 121.925 36.55 122.875C34.5855 124.147 32.7217 125.568 30.975 127.125C30.9046 127.188 30.8482 127.265 30.8095 127.351C30.7707 127.437 30.7504 127.531 30.75 127.625C30.7 128.925 45.25 140.575 48.85 142.025ZM36.85 123.525C38.675 124.85 44.825 132.45 50.525 139.175C50.2798 139.561 49.9762 139.907 49.625 140.2C43.6322 136.364 37.9103 132.121 32.5 127.5C33.8563 126.076 35.3098 124.748 36.85 123.525ZM76.125 68.375C76.675 58.675 82.325 54.175 88.225 53.025C86.55 59.175 86.825 67.175 92.9 68.2C95.8 68.675 97.225 67.175 99.325 65.425C108.3 57.925 101.05 50.425 90.925 50.95C94.7 40.6 103.425 32.175 115 31.9C115.106 31.9 115.208 31.8579 115.283 31.7828C115.358 31.7078 115.4 31.6061 115.4 31.5C115.4 31.3939 115.358 31.2922 115.283 31.2172C115.208 31.1421 115.106 31.1 115 31.1C102.5 30.85 92.675 39.85 88.8 51.1C82.125 52.25 75.5 57.25 75.325 68.225C75.3121 68.2787 75.3102 68.3345 75.3195 68.389C75.3288 68.4435 75.3491 68.4955 75.3791 68.5419C75.4091 68.5883 75.4483 68.6281 75.4942 68.6588C75.5401 68.6896 75.5918 68.7107 75.6461 68.7209C75.7004 68.7311 75.7562 68.7301 75.8102 68.7181C75.8641 68.706 75.915 68.6831 75.9598 68.6507C76.0046 68.6184 76.0423 68.5773 76.0707 68.5299C76.0991 68.4824 76.1176 68.4298 76.125 68.375ZM90.35 52.725C94.075 52.475 99.625 53.625 101.15 57C102.025 58.925 101.15 61.3 98.05 63.9C97.2084 64.7431 96.2483 65.459 95.2 66.025C91.45 67.625 87.3 63 90.35 52.725ZM97.5 406.3C95.0847 405.653 92.5643 405.496 90.0873 405.837C87.6102 406.179 85.2265 407.012 83.0764 408.289C80.9264 409.566 79.0533 411.259 77.5676 413.27C76.0818 415.282 75.0133 417.57 74.425 420C73.3144 425.049 74.255 430.333 77.04 434.688C79.8249 439.044 84.226 442.114 89.275 443.225C94.3241 444.336 99.6075 443.395 103.963 440.61C108.319 437.825 111.389 433.424 112.5 428.375C112.974 425.94 112.962 423.435 112.464 421.004C111.966 418.574 110.991 416.266 109.597 414.214C108.202 412.162 106.416 410.406 104.339 409.048C102.263 407.69 99.9388 406.756 97.5 406.3ZM105.225 426.675C104.222 430.676 101.821 434.185 98.455 436.57C95.0895 438.954 90.9819 440.055 86.875 439.675C83.105 438.202 79.9752 435.447 78.0364 431.893C76.0975 428.34 75.4738 424.217 76.275 420.25C77.2105 416.152 79.5896 412.528 82.9773 410.04C86.365 407.552 90.5351 406.366 94.725 406.7C98.5323 408.273 101.663 411.139 103.565 414.792C105.467 418.446 106.02 422.654 105.125 426.675H105.225Z" fill="white"/>
<path d="M130.8 413.425C128.624 412.674 126.291 412.493 124.025 412.9C123.086 410.747 121.93 408.694 120.575 406.775C122.2 405.3 126.65 401.2 125.575 399.275C121.749 394.699 117.207 390.773 112.125 387.65C110.003 386.461 107.666 385.705 105.25 385.425C103.65 385.65 99.85 391.875 99 393.275C98.45 393.275 96.5 392.65 96.35 392.575C96.35 390.775 95.825 384.275 94.2 383.525C92.3828 382.856 90.4958 382.395 88.575 382.15C86.8 381.875 70.825 384.8 69.65 386.95C68.875 388.4 70.675 393.875 71.2 395.4C69.8517 396.142 68.5568 396.977 67.325 397.9C64.825 399.675 65.5 399.6 65.05 399.4C64.5061 399.14 63.9234 398.971 63.325 398.9C61.3279 397.729 58.9864 397.287 56.7 397.65C54.4 398.4 48.975 410.75 48.1 413.925C47.8136 414.726 47.7362 415.586 47.875 416.425C48.475 418.075 52.475 419.4 54.15 419.925C53.6874 423.142 53.6874 426.408 54.15 429.625C51.95 430.225 47.375 431.575 47.625 433.825C47.875 436.075 53.725 450.925 56.15 452.1C57.4784 452.843 58.9474 453.3 60.4628 453.442C61.9782 453.584 63.5066 453.408 64.95 452.925C65.7629 452.519 66.5479 452.06 67.3 451.55C68.3 452.3 69.35 452.975 70.425 453.625C69.65 455.55 67.925 459.85 68.475 461.8C68.75 462.825 69.575 463.15 70.725 463.575C73.9 464.725 91 468.825 93.6 468.375C94.575 468.225 95.1 467.2 95.4 466.225C95.9554 464.006 96.2821 461.736 96.375 459.45C97.6589 459.323 98.9355 459.131 100.2 458.875C100.972 460.234 101.96 461.458 103.125 462.5C104.4 463.4 105.475 462.95 106.925 462.025C107.625 462.925 108.675 464.175 109.8 464.3C112.625 464.625 124.3 453.625 125.5 451.375C126.5 449.5 122.85 446.15 121.225 444.675C122.983 442.03 124.363 439.152 125.325 436.125C127.128 436.397 128.953 436.497 130.775 436.425C131.6 436.425 132.55 436.125 132.9 435.35C134.425 431.875 133.975 418.7 132.9 415.35C132.75 414.375 131.625 413.725 130.8 413.425ZM131.4 415.725C132.25 418.975 132.525 431.25 131.275 434.425C129.113 434.638 126.932 434.537 124.8 434.125C124.572 434.086 124.338 434.134 124.144 434.259C123.95 434.384 123.809 434.577 123.75 434.8C122.754 438.18 121.209 441.373 119.175 444.25C119.03 444.441 118.965 444.68 118.993 444.918C119.021 445.156 119.14 445.373 119.325 445.525C121.079 446.915 122.569 448.608 123.725 450.525C122.475 452.575 112.7 461.525 110 462.275C109.6 462.275 108.5 460.775 108.225 460.375C107.301 458.987 106.466 457.543 105.725 456.05C105.617 455.832 105.431 455.663 105.204 455.575C104.978 455.487 104.727 455.487 104.5 455.575C97.25 458.3 94.5 456.7 94.5 458.5C94.5032 461.195 94.064 463.872 93.2 466.425C87.3248 465.786 81.5392 464.495 75.95 462.575C76.2199 459.906 76.9649 457.307 78.15 454.9C78.9 453.225 75.9 453.7 70.3 448C70.1197 447.833 69.8831 447.74 69.6375 447.74C69.3918 447.74 69.1552 447.833 68.975 448C66.475 450.05 63.225 452.05 62.575 451.725C61.3 451.1 55.425 437.775 55.075 435.075C56.8531 433.836 58.8717 432.984 61 432.575C61.2269 432.511 61.4229 432.366 61.5516 432.169C61.6804 431.971 61.7331 431.734 61.7 431.5C61.0873 427.96 61.0873 424.34 61.7 420.8C61.7382 420.582 61.6923 420.358 61.5717 420.172C61.4511 419.987 61.2647 419.854 61.05 419.8C59.1653 419.306 57.3508 418.575 55.65 417.625C55.1 417.225 55.15 417.25 55.2 416.825C56.8181 410.989 59.4131 405.469 62.875 400.5C64.225 400.125 67.875 402.8 69.125 403.75C69.2556 403.877 69.4304 403.948 69.6125 403.948C69.7945 403.948 69.9693 403.877 70.1 403.75C71.2487 402.559 72.4855 401.456 73.8 400.45C77.6 397.575 78.625 397.95 78.3 396.95C77.1507 394.442 76.5052 391.732 76.4 388.975C76.7874 388.653 77.2271 388.399 77.7 388.225C80.0339 387.302 82.4319 386.55 84.875 385.975C87.8362 385.15 90.8798 384.655 93.95 384.5C94.475 384.725 94.95 387 95.075 387.7C96 392.7 95.375 393.725 96.1 393.8C103.225 394.5 104.675 396.475 105.175 395.6C106.561 393.176 108.177 390.89 110 388.775C110.525 388.25 110.5 388 112.075 388.9C116.78 391.975 120.994 395.742 124.575 400.075C124.95 400.725 121.7 404.175 119.325 406.2C118.5 406.925 119.675 407.25 121.825 411.35C123.975 415.45 123.475 416.6 124.625 416.35C126.842 415.819 129.123 415.609 131.4 415.725ZM478.375 206.825C473.134 204.684 467.639 203.231 462.025 202.5C457.925 201.85 453.1 201.2 449.025 200.675C452.95 195.125 464.575 181.075 466.525 177.65C467.075 176.725 466.025 175.425 465.25 174.65C460.9 170 452.5 168.25 446.05 167.25C442.35 166.65 426.9 164.75 424.275 166C421.125 167.5 397.825 202.5 397.125 207.825C397.125 208.725 397.425 209.075 398.3 209.4C401.975 210.75 418.55 212.85 422.25 213.725C417.25 222.475 395.025 252.05 392.85 256.225C392.325 257.275 392.65 257.9 393.275 258.1C395.525 258.993 397.84 259.712 400.2 260.25C401.1 260.525 403.075 259.3 405.95 257.55C418.85 249.8 474.2 213.25 478.45 208.525C478.567 208.414 478.659 208.279 478.72 208.13C478.781 207.98 478.808 207.819 478.801 207.658C478.794 207.497 478.752 207.339 478.679 207.195C478.605 207.051 478.502 206.925 478.375 206.825ZM424.65 236.825C403.4 250.85 396.225 254.95 395.975 255.125C399.4 249.9 420.675 220.75 424.325 213.775C424.389 213.64 424.421 213.493 424.421 213.344C424.42 213.195 424.386 213.048 424.321 212.914C424.257 212.78 424.163 212.662 424.047 212.569C423.93 212.475 423.795 212.409 423.65 212.375C421.15 211.475 402.95 209.525 398.65 208C399.2 203.35 421.9 168.2 424.65 166.8C427.4 165.4 454.075 168.575 459.075 172.15C456.45 177.275 441.95 195.225 439.6 199.4C439.125 200.25 438.975 201.075 439.9 201.3C440.825 201.525 464.325 204.275 469.45 205.95C463.2 211.175 431.65 232.125 424.65 236.725V236.825ZM264.275 83.975C264.275 84.2 264.425 84.475 264.8 85.925C264.898 86.2395 265.115 86.5038 265.404 86.6622C265.693 86.8207 266.032 86.8611 266.35 86.775C266.668 86.6822 266.937 86.4667 267.096 86.176C267.255 85.8854 267.293 85.5433 267.2 85.225C266.95 84.25 266.725 83.425 266.575 83.025C266.429 82.7505 266.187 82.54 265.894 82.4347C265.602 82.3295 265.281 82.3368 264.994 82.4555C264.706 82.5741 264.474 82.7955 264.341 83.0764C264.208 83.3574 264.184 83.6777 264.275 83.975Z" fill="white"/>
</svg>
