<svg width="500" height="500" viewBox="0 0 500 500" fill="none" xmlns="http://www.w3.org/2000/svg">
<path d="M121.25 352.5C122.2 352.65 127.4 352.9 127.4 352C127.4 351.475 126.45 351.5 126.45 351.5C126.575 347.5 131.65 346.5 135.275 348.6C136.274 349.175 137.198 349.872 138.025 350.675C132.9 350.95 126.1 354.45 126.55 359.525C126.808 360.848 127.363 362.096 128.173 363.174C128.983 364.252 130.026 365.133 131.225 365.75C132.724 366.872 134.43 367.683 136.246 368.138C138.062 368.593 139.95 368.682 141.8 368.4C145.095 367.56 147.995 365.597 150 362.85C154.531 362.994 158.965 361.513 162.5 358.675C162.649 358.557 162.773 358.409 162.863 358.242C162.953 358.074 163.008 357.89 163.025 357.7C163.025 356.825 163.025 356.875 158.025 351.325C157.883 351.167 157.706 351.045 157.508 350.97C157.309 350.895 157.096 350.869 156.885 350.893C156.675 350.918 156.473 350.992 156.297 351.111C156.121 351.23 155.976 351.389 155.875 351.575C155.789 351.684 155.713 351.801 155.65 351.925C155.253 352.671 154.611 353.257 153.832 353.585C153.054 353.913 152.186 353.962 151.375 353.725C148.875 353 145.65 346.375 139.775 342.425C134.65 338.975 127.775 337.95 122.925 342.05C120.838 343.842 119.353 346.234 118.675 348.9C118.405 349.722 118.459 350.616 118.825 351.4C119.482 352.036 120.339 352.425 121.25 352.5ZM130.65 361.775C129.965 361.285 129.489 360.556 129.317 359.731C129.146 358.906 129.291 358.047 129.725 357.325C130.834 355.793 132.374 354.626 134.15 353.975C132.718 356.404 131.544 358.976 130.65 361.65V361.775ZM154.2 357.825C154.8 356.025 154.2 356.65 155.2 356.2C155.958 355.823 156.643 355.315 157.225 354.7L159.5 357.4C157.616 358.594 155.533 359.441 153.35 359.9C153.6 359.25 154 358.25 154.2 357.7V357.825ZM145.15 351.45C147.525 354.425 149.5 357.075 153.125 356.775C152.608 357.852 152.189 358.973 151.875 360.125C150.05 360.25 149.8 359.825 149.075 360.125C147.65 360.675 145.3 365.8 139.6 365.775C139.955 364.982 140.183 364.139 140.275 363.275C141.888 362.949 143.398 362.237 144.675 361.2C145.222 360.726 145.578 360.068 145.675 359.35C145.675 358.475 145.375 357.35 143.525 355.875C144.214 354.415 144.758 352.891 145.15 351.325V351.45ZM136.75 360.9C134.55 359.725 138.3 357.65 140.725 357.725C141.282 357.729 141.827 357.891 142.296 358.192C142.765 358.493 143.139 358.92 143.375 359.425C143.041 359.963 142.601 360.427 142.081 360.788C141.562 361.15 140.974 361.401 140.353 361.528C139.733 361.654 139.094 361.653 138.474 361.523C137.854 361.394 137.268 361.139 136.75 360.775V360.9ZM139.7 345.6C141.398 347.043 142.939 348.66 144.3 350.425C143.509 351.868 142.904 353.405 142.5 355C141.449 354.698 140.348 354.616 139.264 354.758C138.181 354.9 137.137 355.263 136.2 355.825C131.625 358.325 132.7 363.8 139.05 363.175C138.677 363.894 138.399 364.659 138.225 365.45C135.69 364.945 133.319 363.82 131.325 362.175C133.097 359.421 134.477 356.434 135.425 353.3C136.397 352.854 137.448 352.606 138.517 352.571C139.586 352.537 140.651 352.717 141.65 353.1L142.175 351.125L141.625 350.875C140.45 350.075 139.925 349.45 138.575 348.375C139.076 347.462 139.454 346.487 139.7 345.475V345.6ZM130 341.6C133.129 341.657 136.158 342.708 138.65 344.6C138.202 345.619 137.867 346.683 137.65 347.775C136.452 346.835 135.038 346.207 133.537 345.95C132.035 345.692 130.493 345.813 129.05 346.3C129.577 344.783 129.897 343.202 130 341.6ZM124.275 343.55C125.661 342.472 127.326 341.812 129.075 341.65C128.299 343.331 127.817 345.132 127.65 346.975C126.905 347.422 126.295 348.062 125.886 348.829C125.477 349.595 125.283 350.457 125.325 351.325C123.573 351.422 121.821 351.158 120.175 350.55C120.547 347.773 122.003 345.256 124.225 343.55H124.275ZM86.925 339.375C82.425 337.425 72.425 343.2 70.6 346.3C70.336 346.984 70.336 347.741 70.6 348.425C72.175 354.4 86.875 375.5 89.6 378.775C90.075 379.375 90.725 378.55 90.3 377.85C89 375.7 89.15 380.025 95.8 358.5C96.416 358.259 96.9898 357.921 97.5 357.5C97.7319 357.243 97.8602 356.909 97.8602 356.562C97.8602 356.216 97.7319 355.882 97.5 355.625C97.273 355.345 97.0127 355.093 96.725 354.875L98.3 349.05L104.55 352.5C103.286 355.659 102.364 358.945 101.8 362.3C99.2794 363.209 96.9172 364.508 94.8 366.15C93.325 367.775 95.65 370.775 97.1 372.575C98.55 374.375 99.775 375.6 100.05 375.875C100.325 376.15 101.2 375.875 101.125 375.425C100.966 375.063 100.756 374.726 100.5 374.425C99.1453 372.317 97.9823 370.091 97.025 367.775C98.968 366.612 101.019 365.641 103.15 364.875C103.925 364.6 106.325 363.85 106.975 364.25C110.182 365.94 113.528 367.353 116.975 368.475C117.114 368.541 117.274 368.55 117.419 368.498C117.565 368.446 117.684 368.339 117.75 368.2C117.816 368.061 117.825 367.901 117.773 367.756C117.721 367.61 117.614 367.491 117.475 367.425L113.15 364.8C114.071 362.712 114.661 360.494 114.9 358.225L125.575 364C126.225 364.375 126.725 363.35 126.25 363.075C125.775 362.8 93.375 342.2 86.925 339.375ZM83.125 342.025C83.9974 341.763 84.9275 341.763 85.8 342.025C86.375 342.275 87.775 343.025 89.675 344.075C89.0341 345.844 88.5979 347.681 88.375 349.55C86.7 348.6 85.7 347.875 84.375 348.1C83.6528 348.262 82.9772 348.587 82.4 349.05C82.65 347.1 82.875 345.6 83.125 342.025ZM73.125 347.525C75.7178 345.053 78.8633 343.236 82.3 342.225C80.9657 348.122 80.0303 354.102 79.5 360.125C76.979 356.132 74.8523 351.904 73.15 347.5L73.125 347.525ZM84.475 368.55C83.1 366.275 81.6 363.75 80.175 361.275C81.025 357.7 81.3 356.05 81.825 352.675C83.1928 355.047 84.7744 357.29 86.55 359.375C85.542 362.352 84.8548 365.427 84.5 368.55H84.475ZM88.85 375.75C87.95 374.325 86.8 372.4 85.3 369.925C86.249 366.788 86.8773 363.563 87.175 360.3C87.725 361.625 92.625 359.725 93.95 359.225C92.975 362.3 89.575 373 88.875 375.75H88.85ZM88.1 359.525C86.5507 356.844 85.181 354.063 84 351.2L84.775 350.775C85.125 350.975 93.675 356.025 94.3 356.425C92.3516 357.664 90.2827 358.703 88.125 359.525H88.1ZM95.6 354.025C93.725 352.775 91.175 351.25 89.225 350.125C89.8922 348.355 90.3291 346.506 90.525 344.625L97.625 348.625C97.5 349.575 96.65 351.525 95.75 354.025H95.6ZM112.15 364.025L108.3 361.7C106.589 361.025 104.686 361.025 102.975 361.7C103.944 358.778 104.647 355.774 105.075 352.725L114.125 357.725C113.2 359.764 112.585 361.929 112.3 364.15L112.15 364.025Z" fill="white"/>
<path d="M485.875 372.925C481.825 335.225 446.925 277.25 426.075 245.575C437.717 246.506 449.401 246.798 461.075 246.45C464.4 246.45 473.1 245.85 474.775 245.525C475.75 245.325 475.9 244.4 474.425 244.35C472.95 244.3 462.45 243.8 461.025 243.775H435.6C431.7 243.925 425.6 244.275 425.25 244.275C417.75 232.85 412.525 225.7 412.475 225.675C412.418 225.617 412.348 225.571 412.272 225.542C412.195 225.513 412.114 225.5 412.032 225.505C411.95 225.51 411.87 225.532 411.798 225.57C411.726 225.608 411.662 225.661 411.612 225.726C411.562 225.791 411.526 225.865 411.507 225.945C411.488 226.024 411.486 226.107 411.501 226.187C411.517 226.268 411.549 226.344 411.596 226.411C411.643 226.478 411.704 226.534 411.775 226.575C412.925 227.5 463.45 301.325 478.9 352.175C485.025 372.35 488.65 397.675 468.9 404.675C422 421.425 54.675 426.875 19.95 407.175C15.125 404.45 14 398.775 14.95 391.125C16.425 380.5 22.15 366.125 29.05 350.025C36.825 357.525 101.325 416.75 111.775 414.525C122.225 412.3 181 385 183.425 379.775C184.834 376.146 185.579 372.293 185.625 368.4C185.921 367.993 186.059 367.492 186.013 366.99C185.967 366.489 185.74 366.022 185.375 365.675C181.5 361.825 104.625 300.875 99.675 301.05C96.225 301.2 89.975 304.75 87 306.5C86.0354 304.922 84.5993 303.687 82.8947 302.969C81.19 302.251 79.3029 302.087 77.5 302.5C75.8001 303.187 74.278 304.25 73.0482 305.609C71.8184 306.969 70.913 308.59 70.4 310.35C70.428 310.485 70.5017 310.606 70.6087 310.694C70.7158 310.781 70.8495 310.828 70.9875 310.828C71.1255 310.828 71.2592 310.781 71.3662 310.694C71.4733 310.606 71.547 310.485 71.575 310.35C73.0787 307.807 75.4624 305.904 78.275 305C79.4444 304.82 80.6408 304.976 81.7251 305.45C82.8094 305.924 83.7369 306.695 84.4 307.675L56.6 319.55C55.1239 318.033 53.2811 316.922 51.25 316.325C46.5 315.075 43.3 318.2 41.4 322.775C41.3582 322.907 41.363 323.049 41.4137 323.177C41.4644 323.305 41.5578 323.413 41.6782 323.48C41.7987 323.548 41.9387 323.572 42.0748 323.548C42.2108 323.524 42.3345 323.454 42.425 323.35C45.625 318.725 49.325 317.15 53.75 320.85C48.4 323.225 40.925 326.6 35.675 329.2C36.05 328.6 90 230.9 90 230.65C92.375 226.25 97.15 218.375 102.075 217.35C104.301 216.865 106.572 216.613 108.85 216.6C105.375 222.35 77.175 269.1 77.125 275.7C77.125 283.2 78.425 282.025 82.425 283.2C86.425 284.375 310.25 283 310.65 283C314.525 283 329.675 282.5 331.075 281.475C335.425 278.275 334.45 273.5 332.55 268.475C332.1 267.275 329.825 262.3 326.775 255.65C339.9 251.7 349.775 256.725 350.675 278.15C351.575 296.675 344.275 302.325 330.3 301.525C319.075 300.875 311.325 297.575 308.875 301.95C306.125 306.825 313.725 317.775 317.025 322.325C316.55 322.325 295.625 321.9 290.35 321.675C282.917 321.387 275.474 321.479 268.05 321.95C262.937 322.063 257.854 322.759 252.9 324.025C251.025 324.95 248.6 329.775 247.575 331.8C245.55 335.775 236.325 360.725 233.775 367.925C232.275 372.075 227.2 385.825 230.6 388.25C230.475 390.925 230.9 394.5 233.25 395.75C235.6 397 267.9 397.9 270.375 397.95C274.75 398.075 318.975 398.65 347.2 397.4C375.425 396.15 387.75 393.45 387.025 393.525C387.742 393.314 388.386 392.908 388.885 392.351C389.384 391.795 389.718 391.111 389.85 390.375C390.236 388.527 390.115 386.61 389.5 384.825C392.65 378.7 368.825 327.85 362.225 324.275C361.835 324.055 361.397 323.935 360.95 323.925C359.625 323.925 329.975 322.675 318.45 322.3C315.95 318.775 307.825 305.5 310.95 302.675C315.7 298.525 355.375 319.325 353.25 277.925C352.15 259.2 343.525 248.225 326.025 254.575C324.5 251.275 311.7 223.925 308.275 216.65C321.543 217.444 334.854 217.151 348.075 215.775C348.265 218.108 348.936 220.377 350.046 222.438C351.156 224.499 352.681 226.308 354.525 227.75C364.525 235.25 404.325 234.125 411.55 224.95C413.575 222.181 414.974 219.006 415.652 215.644C416.329 212.281 416.269 208.812 415.475 205.475C416.14 205.052 416.656 204.431 416.95 203.7C417.35 202.925 416.95 201.95 415.225 201.6C413 201.267 410.749 201.133 408.5 201.2C408.5 199.15 408.625 195.325 408.5 190.975C408.725 190.825 410.35 188.875 410.525 188.65C412.517 186.322 414.09 183.666 415.175 180.8C416 178.475 416.325 175.8 414.15 174.5C410.8 172.675 408.45 176.025 407.325 179.775C406.275 174 403.85 165.525 398.05 166.375C388.2 167.875 395 191.75 398.2 201.2C395.389 200.804 392.536 200.804 389.725 201.2C392.85 193.35 394.45 183.2 386.425 181.675C385.208 181.406 383.94 181.499 382.775 181.944C381.611 182.388 380.603 183.164 379.875 184.175C379.714 183.609 379.413 183.093 378.999 182.676C378.584 182.258 378.071 181.953 377.506 181.788C376.942 181.623 376.344 181.604 375.77 181.733C375.197 181.862 374.665 182.135 374.225 182.525C370.55 185.175 372.65 191.25 376.925 193.25C376.7 195.82 376.7 198.405 376.925 200.975C374.264 200.653 371.57 200.712 368.925 201.15C368.777 195.046 368.108 188.965 366.925 182.975C368.444 181.894 369.722 180.509 370.677 178.908C371.633 177.307 372.245 175.525 372.475 173.675C372.825 170.35 371.65 167.575 368.875 166.85C365.4 165.95 363.35 168.375 362.75 171.85C359.675 167.6 353.65 166.075 350.725 170.95C341.35 161.2 336.825 166.65 339.2 170.95C340.975 174.25 345.6 176.1 349.2 177.125C349.2 182.725 351.7 187.45 354.8 192.275C356.875 195.525 359.2 198.65 361 200.95C357.11 200.825 353.217 201.076 349.375 201.7C347.025 202.325 346.65 204.025 348.825 205.25C348.137 208.18 347.885 211.196 348.075 214.2C334.645 213.485 321.181 213.803 307.8 215.15C306.95 213.325 304.425 208 304.125 207.375C303.825 206.75 306.225 199.5 309.6 132.1C325.1 130.8 394.8 132.35 401.2 129.875C401.567 129.743 401.892 129.516 402.142 129.218C402.393 128.919 402.559 128.559 402.625 128.175C404.75 121.2 406.2 61.25 402.625 55.675C401.75 54.3 398.625 53.875 396.9 53.625C374.625 50.375 281.675 51.775 276.9 54.3C272.125 56.825 274.15 81.475 275.05 86.375C226.775 84.825 115.3 87.85 104.8 91.775C102.3 92.675 101.375 96.1 100.875 98.675C96.725 120.1 108.375 189.05 112.275 210.35C112.025 210.35 112.275 210.35 109.225 215.1C106.643 214.909 104.048 215.043 101.5 215.5C95.8 216.375 90.55 224.25 87.65 229.15C87.525 229.4 80.15 241.65 79.05 243.65C72.775 242.675 43.6 243.05 39.9 243.25C36.2 243.45 32.4 243.725 29.05 243.975C28.45 243.975 28.4 245.125 29.05 245.15C36.05 245.575 38.625 245.725 44.05 245.8C57.325 246 76.9 246.55 77.525 246.475C76.225 248.75 56.975 283 54.4 287.85C43.2 308.85 34.4 328.075 33.875 329.7C30.9689 331.022 28.2394 332.701 25.75 334.7C24.947 336.903 24.4671 339.21 24.325 341.55C24.2 345.575 25.65 346.55 27.875 348.8C21.9047 361.592 16.9965 374.853 13.2 388.45C11.9606 393.951 11.9094 399.653 13.05 405.175C14.0708 410.696 15.9788 416.014 18.7 420.925C19.9223 422.166 21.5064 422.989 23.225 423.275C29.8 425.125 50.175 427.5 57 428.275C56.4855 431.33 56.3428 434.436 56.575 437.525C56.5817 440.708 57.0448 443.873 57.95 446.925C57.9666 447.077 58.043 447.217 58.1626 447.313C58.2822 447.409 58.435 447.454 58.5875 447.438C58.74 447.421 58.8797 447.344 58.9758 447.225C59.0719 447.105 59.1166 446.952 59.1 446.8C59.4999 443.684 59.6087 440.537 59.425 437.4C59.4085 434.38 59.0649 431.371 58.4 428.425C61.85 428.725 65.175 428.975 68.075 429.075C67.6138 431.993 67.488 434.954 67.7 437.9C67.7084 441.083 68.1714 444.248 69.075 447.3C69.075 447.452 69.1356 447.599 69.2434 447.707C69.3512 447.814 69.4975 447.875 69.65 447.875C69.8025 447.875 69.9487 447.814 70.0566 447.707C70.1644 447.599 70.225 447.452 70.225 447.3C70.6384 444.185 70.7556 441.037 70.575 437.9C70.5578 434.981 70.2225 432.072 69.575 429.225C75.15 429.35 157.2 436.725 298.9 433.925C336.875 433.175 382.525 431.425 420.125 427.3C419.629 430.315 419.486 433.377 419.7 436.425C419.712 439.601 420.184 442.759 421.1 445.8C421.082 445.884 421.083 445.97 421.103 446.054C421.123 446.137 421.162 446.215 421.216 446.281C421.27 446.348 421.338 446.401 421.415 446.438C421.492 446.475 421.577 446.494 421.663 446.494C421.748 446.494 421.833 446.475 421.91 446.438C421.987 446.401 422.055 446.348 422.109 446.281C422.163 446.215 422.202 446.137 422.222 446.054C422.242 445.97 422.243 445.884 422.225 445.8C422.662 442.687 422.779 439.537 422.575 436.4C422.548 433.312 422.187 430.236 421.5 427.225C424.275 426.925 430.7 426.125 431.25 426.05C430.758 429.048 430.624 432.095 430.85 435.125C430.852 438.308 431.315 441.475 432.225 444.525C432.233 444.6 432.256 444.674 432.293 444.74C432.329 444.807 432.378 444.866 432.438 444.913C432.497 444.961 432.565 444.996 432.638 445.018C432.711 445.039 432.787 445.046 432.862 445.038C432.938 445.029 433.011 445.006 433.078 444.97C433.144 444.933 433.203 444.884 433.251 444.825C433.298 444.766 433.334 444.698 433.355 444.625C433.376 444.552 433.383 444.475 433.375 444.4C433.786 441.293 433.895 438.153 433.7 435.025C433.684 431.944 433.323 428.875 432.625 425.875C443.9 424.35 478.375 419.7 483.075 410.075C488.625 399.1 488.175 384.825 485.875 372.925ZM258.375 332.675C258.65 332 267.025 330.175 276.175 332.675C276.259 332.657 276.345 332.658 276.429 332.678C276.512 332.698 276.59 332.737 276.656 332.791C276.723 332.845 276.776 332.913 276.813 332.99C276.85 333.067 276.869 333.152 276.869 333.237C276.869 333.323 276.85 333.408 276.813 333.485C276.776 333.562 276.723 333.63 276.656 333.684C276.59 333.738 276.512 333.777 276.429 333.797C276.345 333.817 276.259 333.818 276.175 333.8C271.619 334.609 266.966 334.727 262.375 334.15C260.225 333.8 257.5 333.775 258.3 332.675H258.375ZM386.9 392.125C363.775 396.525 236.025 395.525 234.1 394.625C232.175 393.725 232 390.825 231.95 388.925C245.8 393.425 381.125 389.95 388.65 385.975C389.05 388.175 389.15 391.7 386.825 392.125H386.9ZM338.375 332.95C338.375 332.1 343.875 331.625 344.125 331.6C347.395 331.348 350.68 331.348 353.95 331.6C355.775 331.8 358.3 332.05 358.1 332.825C357.9 333.6 354.125 333.925 353.475 334.025C351.032 334.25 348.579 334.35 346.125 334.325C344.475 334.275 338.2 333.975 338.3 332.95H338.375ZM370.5 341.275C376.755 353.193 382.006 365.611 386.2 378.4C386.733 380.015 387.028 381.7 387.075 383.4C375.8 386.9 245.85 390.5 232.7 386.725C232.075 386.55 231.9 386.725 231.75 385.675C230.8 378.875 241.925 351.85 244.5 345.55C291.8 343.975 370 341.55 370.425 341.275H370.5ZM349.45 176C346.716 174.498 344.235 172.575 342.1 170.3C341.125 168.825 341.35 167.8 344.225 169.2C346.025 170.025 348.55 171.5 350.25 172.525C349.813 173.637 349.544 174.809 349.45 176ZM409.45 180.475C411.45 176.875 413.425 175.85 413.225 177.975C412.151 181.778 410.623 185.437 408.675 188.875C408.525 186.375 408.35 184.7 408.15 183.05C408.25 182.7 408.75 181.65 409.375 180.475H409.45ZM398.825 202.225C399.325 203.65 399.65 204.5 399.675 204.55C399.703 204.621 399.744 204.686 399.797 204.74C399.849 204.795 399.912 204.839 399.982 204.869C400.052 204.899 400.127 204.915 400.203 204.916C400.279 204.917 400.354 204.903 400.425 204.875C401.525 204.45 399.9 203.425 397.3 188.35C396.525 183.85 394.225 169.975 398.775 169.325C402.475 168.775 404.475 177.95 405.175 181.575C406.472 188.562 407.307 195.628 407.675 202.725C407.673 202.863 407.721 202.998 407.811 203.104C407.9 203.209 408.025 203.279 408.162 203.301C408.298 203.322 408.438 203.293 408.556 203.219C408.673 203.146 408.76 203.032 408.8 202.9C408.808 202.758 408.808 202.617 408.8 202.475C411.06 202.542 413.306 202.852 415.5 203.4C415.221 203.726 414.87 203.983 414.475 204.15C409.225 206.85 393.35 206.325 387.875 206.225C388.625 204.725 389.15 203.575 389.725 202.2C392.713 202.691 395.76 202.7 398.75 202.225H398.825ZM379.325 196.75C379.9 191.75 381.175 183.775 386.225 184.725C391.275 185.675 390 193 388.9 197.9C388.222 200.711 387.387 203.482 386.4 206.2H378.9C378.84 203.046 378.957 199.891 379.25 196.75H379.325ZM376.15 185C376.266 184.889 376.404 184.804 376.556 184.75C376.707 184.696 376.868 184.674 377.028 184.686C377.188 184.697 377.344 184.743 377.485 184.818C377.627 184.894 377.751 184.998 377.85 185.125C378.248 185.524 378.608 185.959 378.925 186.425C378.215 188.019 377.719 189.701 377.45 191.425C376.15 189.625 374.475 186.35 376.15 185ZM368.275 169.8C371.525 170.825 368.975 179.375 366.8 181.975C366.199 179.284 365.302 176.668 364.125 174.175C364.85 171.975 366.075 169.1 368.275 169.775V169.8ZM362.125 202.5C363.35 204.05 364.15 205 364.15 205C364.249 205.098 364.381 205.157 364.52 205.165C364.659 205.173 364.797 205.13 364.907 205.045C365.017 204.959 365.092 204.836 365.119 204.699C365.145 204.562 365.121 204.42 365.05 204.3C365.05 204.3 360.625 198 356.975 191.475C354.225 186.475 351.6 181.475 352.325 175.95C352.9 171.6 355.2 169.75 359.075 172.275C364.675 175.875 367.225 198.075 368.025 204.775C368.033 204.95 368.095 205.119 368.202 205.258C368.309 205.396 368.457 205.499 368.625 205.55C369.3 205.55 369.2 204.825 369.175 204.475C369.15 204.125 369.175 202.375 369.175 202.2C371.831 202.536 374.519 202.536 377.175 202.2C377.325 204.025 377.5 205.45 377.625 206.2C368.75 206.2 358.025 206.8 350.675 203.925C354.453 203.178 358.279 202.701 362.125 202.5ZM350.15 206.175C353.807 207.592 357.661 208.435 361.575 208.675C366 209.075 396.125 209.125 399.55 208.95C404.715 208.865 409.828 207.91 414.675 206.125C415.14 209.195 414.965 212.328 414.16 215.327C413.356 218.325 411.939 221.125 410 223.55C403.925 230.675 365.5 232.3 356.275 225.8C350.2 221.625 349.1 213.275 350.15 206.15V206.175ZM330 279.575C330.525 281.25 92.15 281.325 91.9 281.3C81.9 281.3 84.4 281.3 81.05 280.475C80.15 280.275 79.975 280.275 79.8 279.4C79.5879 278.027 79.5292 276.636 79.625 275.25C79.6774 275.353 79.7621 275.435 79.866 275.485C79.9699 275.534 80.0872 275.549 80.2 275.525C80.2 275.525 329.925 272.125 331.55 272.075C332.225 275 332.325 277.725 330 279.575ZM400.325 127.85C400.325 127.85 400.475 127.6 400.525 127.675C400.575 127.75 400.325 127.825 400.2 127.85H400.325ZM276 64.8C276 63.175 276.65 57.025 278.1 56.275C281.4 54.625 386.275 53.225 400.6 57.7C403.1 62.95 402.3 121.925 400.2 127.85C387.9 129.775 326 129.625 309.9 131.275C310.875 111.6 311.3 95.025 310.5 91.8C310.346 91.3794 310.096 91.0003 309.771 90.6923C309.446 90.3844 309.053 90.1559 308.625 90.025C303.15 87.65 282.55 86.975 276.55 86.775C275.771 79.477 275.587 72.1278 276 64.8ZM103.125 127.75C102.75 122.5 100.9 96 105.9 94.15C108.4 93.275 117.2 92.4 129.975 91.65C154.45 90.125 193.025 88.9 228.125 88.65C235.925 88.65 301.825 88.075 308.275 92.5C310.175 101.15 304.1 197.25 302.75 206.525C243.675 208.45 173.675 211.35 114.1 209.9C113.1 204.175 105.45 160 103.125 127.75ZM113.325 211.575C113.33 211.517 113.33 211.458 113.325 211.4C155.45 212.7 287.275 208.375 303.325 208.275C305.1 212.4 330.025 267.7 331.075 270.775C330.8 270.775 80 274.175 79.675 274.425C82.825 263.875 108.875 219.275 113.325 211.575ZM182.05 379.075C180.2 382.675 124.15 407.725 112.625 411.2C112.848 410.048 112.932 408.872 112.875 407.7C129.9 401.8 166.85 386.225 183.425 375.2C183.109 376.546 182.648 377.854 182.05 379.1V379.075ZM183.775 373.55C178.775 376.5 174 378.55 112.85 406.35C112.852 405.218 112.701 404.091 112.4 403C120.4 399.25 174.65 378.225 184.325 369.85C184.2 370.925 184.025 372.225 183.775 373.575V373.55ZM55 322.25C56.2022 323.666 56.9462 325.414 57.1337 327.262C57.3212 329.11 56.9433 330.971 56.05 332.6C55.65 333.225 56.6 333.875 57 333.225C58.5093 331.58 59.4015 329.462 59.5245 327.233C59.6476 325.004 58.994 322.801 57.675 321C69.825 315.425 81.775 310.175 85.05 308.75C85.8693 310.415 86.3079 312.241 86.3338 314.096C86.3598 315.951 85.9725 317.788 85.2 319.475C84.9 320.275 85.8 320.575 86.225 320.05C87.6 318.303 88.4557 316.204 88.6944 313.994C88.9332 311.783 88.5452 309.55 87.575 307.55C90.275 306.025 96.575 302.55 99.65 302.55C103.5 302.55 181.625 366.1 183.075 367.55C176.55 374.275 115.975 398.25 110.875 400.7C100.125 398.2 34.525 341.775 28.375 335.975C32.2 332.8 50.7 324.25 55 322.25ZM26.475 337.125C34.275 344.75 99.35 401.55 110.25 403.35C110.031 404.292 109.931 405.258 109.95 406.225C92.45 397.675 42.45 354.375 25.9 340.45C25.975 340.45 26.35 338 26.55 337.125H26.475ZM26.85 345.7C26.1448 344.626 25.795 343.358 25.85 342.075C42.2 358.575 88.35 399.15 109.925 407.6C109.88 408.937 110.015 410.274 110.325 411.575C97.5 408.7 28.55 347.75 26.925 345.7H26.85ZM481.85 409.25C465.7 441.3 27.45 432.925 20.35 420.425C17.3405 415.194 15.3074 409.459 14.35 403.5C15.3144 405.612 16.9253 407.363 18.95 408.5C55.75 429.925 421.875 424.325 469.675 407.15C479.8 403.5 484.9 395.625 486.05 384.65C486.728 393.077 485.267 401.539 481.8 409.25H481.85Z" fill="white"/>
<path d="M107.5 239.225C284.275 241.725 301.15 240.2 306.1 239.425C307.275 239.25 308.025 238.85 307.975 237.475C307.975 233.85 299.475 217.225 297.225 216.075C296.225 215.55 117.225 218.075 116.6 218.275C116.484 218.303 116.374 218.355 116.28 218.429C116.185 218.502 116.107 218.594 116.05 218.7C114.35 221.475 106.05 235.175 106.425 238.275C106.466 238.534 106.595 238.77 106.791 238.944C106.988 239.117 107.238 239.217 107.5 239.225ZM117.325 220C119.125 219.775 295.225 218.025 296.3 218.125C298.166 220.81 299.837 223.625 301.3 226.55C297.2 226.55 113.95 227.525 113 227.55C114.1 225.35 115.55 222.85 117.325 220ZM112.325 228.75C113.3 228.75 298.725 227.8 301.9 227.725C303.545 230.788 304.845 234.025 305.775 237.375C296.875 238.8 215.775 238.1 108.4 237.375C109.403 234.347 110.701 231.425 112.275 228.65L112.325 228.75ZM245.475 247.725C244.976 246.621 244.161 245.69 243.133 245.049C242.106 244.408 240.911 244.087 239.7 244.125C233.35 244.125 180.025 242.65 175.225 244.6C172.161 248.313 169.79 252.547 168.225 257.1C168.075 258.2 168.625 258.7 169.3 258.775C184.3 260.4 234.025 261.95 246.925 259.575C248.525 259.275 248.725 257.575 248.4 255.95C247.626 253.141 246.648 250.392 245.475 247.725ZM170 257.1C171.436 253.043 173.385 249.187 175.8 245.625C179.6 244.375 229.025 246.975 239.775 246.95C240.415 246.927 241.048 247.089 241.598 247.418C242.148 247.746 242.591 248.226 242.875 248.8C244.09 251.397 245.037 254.111 245.7 256.9C233.025 258.875 179.2 257.75 170 257.1ZM419.1 250.925C415.575 246.075 397.9 246.3 391.975 246.475C386.975 246.475 368.8 247.3 368.8 252.2C368.821 252.597 368.936 252.983 369.136 253.327C369.336 253.67 369.615 253.961 369.95 254.175C370.425 254.55 367.15 287.5 371.65 305.175C373.125 311.025 375.025 313.925 380.6 316.35C391.3 321 409.05 319.975 416.175 310.05C417.6 307.15 417.3 298.7 417.425 296.125C428.5 298.325 437.575 293.825 439.925 281.9C441.4 274.225 439.5 269.2 436.225 266.15C434.037 264.369 431.451 263.143 428.686 262.577C425.922 262.011 423.062 262.122 420.35 262.9C420.255 262.932 420.154 262.941 420.056 262.926C419.957 262.911 419.863 262.872 419.782 262.813C419.702 262.755 419.636 262.677 419.591 262.588C419.546 262.499 419.524 262.4 419.525 262.3C419.525 260.975 420 252 419.1 250.925ZM371.6 251.45C378.35 247.5 405.85 247.2 414.725 251.225C415.025 251.375 416.15 251.95 416.15 252.2C416.15 252.45 415 253.05 414.725 253.175C408.025 256.2 384.1 257.575 371.525 252.975C370.65 252.5 371.525 251.55 371.525 251.45H371.6ZM421.05 265.45C423.322 264.795 425.719 264.701 428.035 265.176C430.352 265.65 432.518 266.679 434.35 268.175C437.05 270.675 438.4 274.975 437.15 281.35C436.901 283.566 436.133 285.693 434.908 287.556C433.683 289.42 432.036 290.968 430.1 292.075C426 293.92 421.383 294.274 417.05 293.075C416.837 292.998 416.61 292.965 416.384 292.979C416.158 292.993 415.937 293.054 415.736 293.157C415.534 293.26 415.356 293.404 415.212 293.579C415.068 293.754 414.962 293.957 414.9 294.175C414.225 296.075 415.175 303.75 413.8 308.6C407.475 317.175 391.3 317.95 381.725 313.925C376.875 311.85 375.525 309.7 374.225 304.525C370.875 292.25 370.675 267.25 371.425 254.95C379.3 258.675 406.575 259.75 417.3 254.25C417.3 262 416.35 263.3 418.3 264.875C418.677 265.16 419.112 265.358 419.574 265.458C420.036 265.557 420.514 265.554 420.975 265.45H421.05ZM178.2 318.425C171.634 312.856 164.571 307.902 157.1 303.625C154.222 301.927 151.161 300.56 147.975 299.55C145.3 298.85 144.175 300.225 144.725 302.05C145.852 304.67 147.342 307.119 149.15 309.325C154.902 316.607 161.517 323.163 168.85 328.85C180 338.175 194.45 349.475 205 357.5C205.537 357.893 206.148 358.174 206.796 358.328C207.443 358.482 208.115 358.504 208.772 358.395C209.429 358.286 210.057 358.046 210.62 357.691C211.183 357.335 211.669 356.871 212.05 356.325C213.9 354.3 215.05 350.75 212.975 348.825C210.575 346.675 195.9 332.85 178.2 318.425ZM154.25 312.875L150.825 307.35C152.044 306.844 153.075 305.97 153.775 304.85L159.2 307.05C157.839 307.32 156.609 308.042 155.71 309.1C154.811 310.158 154.297 311.488 154.25 312.875ZM161.925 319.25C160.118 317.73 158.445 316.057 156.925 314.25C157.1 311.225 158.05 309.875 161.075 309.775C163.09 310.738 164.994 311.92 166.75 313.3C165.406 313.627 164.206 314.387 163.334 315.461C162.463 316.536 161.968 317.867 161.925 319.25ZM204.675 355.625C201.9 353.3 165 322 162.725 320C162.916 318.6 163.527 317.292 164.478 316.247C165.429 315.202 166.674 314.471 168.05 314.15C176.675 320.55 189.075 331.15 210.7 349.15C209.858 349.107 209.017 349.249 208.236 349.566C207.455 349.883 206.753 350.367 206.179 350.984C205.604 351.601 205.172 352.336 204.913 353.138C204.653 353.94 204.572 354.788 204.675 355.625ZM402.775 383.325C405.9 385.45 408.075 384.475 410.1 381.525C415.1 374.425 432.6 343 432.6 342.75C432.6 342.5 432.8 342.975 431.975 332.875C431.939 332.495 431.802 332.132 431.578 331.824C431.353 331.515 431.05 331.273 430.7 331.122C430.349 330.971 429.965 330.917 429.587 330.966C429.208 331.015 428.85 331.165 428.55 331.4L420 337.625C420 337.625 401.025 376.85 400.825 377.2C400.482 378.298 400.485 379.474 400.834 380.57C401.183 381.666 401.86 382.628 402.775 383.325ZM429.25 334.45C429.4 336.275 429.6 338.7 429.75 340.375C427.893 339.486 425.949 338.791 423.95 338.3L429.25 334.45ZM422.1 340C424.267 341.536 426.77 342.53 429.4 342.9C429.025 343.55 409.925 378.4 409.725 378.75C409.144 377.569 408.19 376.612 407.01 376.029C405.83 375.446 404.491 375.269 403.2 375.525C405.15 371.9 421.4 341.25 422.1 340Z" fill="white"/>
<path d="M410.6 290.425C410.33 290.047 409.988 289.726 409.593 289.481C409.198 289.237 408.759 289.073 408.3 289C406.821 288.605 405.318 288.304 403.8 288.1C404.65 294.05 405.15 300.6 405.125 301.175C405.087 301.556 404.9 301.906 404.605 302.149C404.31 302.393 403.931 302.51 403.55 302.475C403.167 302.431 402.817 302.239 402.574 301.94C402.331 301.641 402.215 301.259 402.25 300.875C402.25 300.45 402.1 298.725 401.975 287.85C396.975 287.225 372.9 285.35 373.85 290.15C373.85 290.4 371.875 302.65 379.525 308.525C387.175 314.4 402.475 313.25 407.825 307.275C409.343 305.456 410.345 303.263 410.725 300.925C411.315 297.446 411.273 293.889 410.6 290.425ZM416.6 267.8C416.6 268.925 415.1 277.525 414.1 289.075L415.3 289.325C419.699 290.259 424.281 289.759 428.375 287.9C429.803 287.107 430.985 285.937 431.792 284.517C432.599 283.097 432.999 281.482 432.95 279.85C433.12 277.821 432.767 275.782 431.925 273.928C431.083 272.073 429.781 270.466 428.141 269.257C426.502 268.049 424.581 267.281 422.56 267.026C420.54 266.771 418.488 267.037 416.6 267.8ZM417.725 268.65C419.321 268.397 420.952 268.49 422.509 268.921C424.066 269.352 425.512 270.112 426.75 271.15C427.939 272.24 428.859 273.591 429.44 275.095C430.022 276.6 430.247 278.219 430.1 279.825C429.875 286.25 423.275 287.475 416.95 286.825C417.25 282.275 417.5 277.05 417.725 268.65ZM390.95 121.9C390.943 122.345 391.025 122.788 391.19 123.201C391.355 123.615 391.6 123.992 391.912 124.31C392.223 124.628 392.595 124.882 393.004 125.056C393.414 125.23 393.855 125.322 394.3 125.325C394.98 125.34 395.65 125.152 396.223 124.785C396.796 124.417 397.246 123.888 397.517 123.263C397.788 122.639 397.867 121.948 397.743 121.279C397.62 120.61 397.299 119.992 396.823 119.506C396.348 119.019 395.738 118.686 395.071 118.547C394.405 118.409 393.712 118.472 393.082 118.729C392.452 118.986 391.913 119.425 391.533 119.99C391.153 120.554 390.95 121.219 390.95 121.9ZM117.325 204.375C117.9 205.5 118.65 205.625 119.125 205.275C119.6 204.925 277.925 203.55 289.7 202.925C292.232 202.964 294.757 202.644 297.2 201.975C302.825 196.975 305.025 103.5 302.825 99.175C297.2 87.95 121.15 95.175 110.325 98.45C101.7 101.05 113.35 196.4 117.325 204.375ZM109.85 102.5C109.85 102.05 110.4 100.3 110.825 100.175C122.8 96.575 296.675 90.65 301.4 100.05C301.803 101.931 301.988 103.852 301.95 105.775C302.375 116.675 301.95 140.025 300.825 160.95C300.6 164.95 298.825 197.725 296.225 200.7C285.85 202.9 125.975 203.4 118.875 203.675C114.825 194.275 106.075 119 109.85 102.5ZM394.625 66.775C395.304 66.7899 395.973 66.6023 396.545 66.2362C397.118 65.8701 397.568 65.3421 397.84 64.7191C398.111 64.0962 398.191 63.4067 398.07 62.7381C397.948 62.0696 397.63 61.4523 397.157 60.9648C396.684 60.4774 396.076 60.1417 395.411 60.0005C394.747 59.8594 394.055 59.9191 393.424 60.1721C392.794 60.4252 392.253 60.8601 391.87 61.4215C391.487 61.9829 391.28 62.6455 391.275 63.325C391.265 63.7724 391.344 64.2173 391.508 64.6338C391.671 65.0503 391.916 65.4302 392.228 65.7512C392.54 66.0723 392.912 66.3281 393.324 66.5039C393.735 66.6796 394.178 66.7718 394.625 66.775Z" fill="white"/>
<path d="M158.775 165.5H188.475C191.912 165.487 195.203 164.11 197.626 161.673C200.049 159.236 201.407 155.937 201.4 152.5V128.4C201.4 124.956 200.044 121.65 197.625 119.198C195.206 116.746 191.919 115.346 188.475 115.3H158.775C157.053 115.293 155.346 115.628 153.754 116.284C152.162 116.94 150.715 117.904 149.497 119.122C148.279 120.34 147.315 121.787 146.659 123.379C146.003 124.971 145.668 126.678 145.675 128.4V152.5C145.682 154.214 146.026 155.909 146.688 157.49C147.349 159.071 148.316 160.506 149.533 161.713C150.749 162.92 152.191 163.876 153.777 164.526C155.363 165.176 157.061 165.507 158.775 165.5ZM147.8 128.4C147.846 125.51 149.019 122.753 151.069 120.717C153.12 118.68 155.885 117.526 158.775 117.5H188.475C189.935 117.483 191.383 117.756 192.736 118.303C194.09 118.849 195.322 119.658 196.361 120.683C197.4 121.708 198.225 122.929 198.79 124.275C199.354 125.621 199.647 127.065 199.65 128.525V152.5C199.643 153.961 199.349 155.406 198.784 156.754C198.219 158.101 197.394 159.324 196.356 160.352C195.319 161.38 194.088 162.194 192.736 162.747C191.384 163.3 189.936 163.582 188.475 163.575H158.775C157.327 163.568 155.895 163.277 154.56 162.717C153.225 162.157 152.013 161.339 150.994 160.311C149.975 159.282 149.168 158.063 148.62 156.723C148.072 155.383 147.793 153.948 147.8 152.5V128.4ZM239.075 183.35C239.575 184.825 240.825 184.5 241.175 183.575C241.65 182.25 244.425 172.725 244.775 171.075C246.7 170.475 241.275 172.35 258.05 166.25C258.224 166.183 258.374 166.064 258.479 165.91C258.584 165.756 258.641 165.574 258.641 165.387C258.641 165.201 258.584 165.019 258.479 164.865C258.374 164.711 258.224 164.592 258.05 164.525L232.35 154.25C232.192 154.175 232.018 154.143 231.843 154.157C231.669 154.171 231.502 154.23 231.358 154.329C231.214 154.427 231.098 154.562 231.022 154.719C230.946 154.876 230.913 155.051 230.925 155.225C230.925 155.225 237.7 179.375 239.075 183.35ZM233.5 156.925L255.15 165.45C252.25 166.525 247.35 168.375 245 169.325C243.95 169.725 243.525 169.9 243.275 170.225C243.025 170.55 243.9 168.6 240.225 179.925L233.5 156.925ZM292.5 83.625C292.529 83.7749 292.611 83.9097 292.729 84.0058C292.848 84.1018 292.997 84.1528 293.15 84.15C293.675 84.15 309.85 85.7 313.15 84.825C315.275 84.25 315.65 80.5 315.85 78.3C316.1 74.975 315.85 66.825 314.45 64.05C312.55 60.3 298.525 61.55 294.45 62.275C293.368 62.4272 292.335 62.8202 291.425 63.425C290.895 64.0397 290.587 64.8144 290.55 65.625C290.525 71.679 291.179 77.7167 292.5 83.625ZM293.225 65.35C297.175 64.125 308.425 63.65 312 65.35C313.225 68.6 313.875 79.775 312.4 82.375C310.075 82.975 295.875 82.975 293.5 83C293.425 81.05 292.275 70.525 293.225 65.35ZM326.05 83.525C326.084 83.6728 326.166 83.8049 326.284 83.9001C326.402 83.9954 326.548 84.0482 326.7 84.05C327.225 84.05 343.4 85.6 346.7 84.725C348.825 84.15 349.2 80.4 349.425 78.2C349.65 74.875 349.425 66.725 348 63.95C346.1 60.175 332.075 61.45 328 62.175C326.921 62.3375 325.889 62.7296 324.975 63.325C324.457 63.9464 324.15 64.7172 324.1 65.525C324.077 71.5789 324.731 77.6165 326.05 83.525ZM326.775 65.25C330.725 64 341.975 63.55 345.55 65.25C346.775 68.5 347.425 79.675 345.95 82.25C343.625 82.875 329.425 82.875 327.05 82.9C326.975 80.95 325.825 70.425 326.775 65.25ZM361.15 84.625C361.179 84.7749 361.261 84.9097 361.379 85.0058C361.498 85.1018 361.647 85.1528 361.8 85.15C362.325 85.15 378.5 86.7 381.8 85.825C383.925 85.25 384.3 81.5 384.5 79.3C384.75 75.975 384.5 67.825 383.1 65.05C381.2 61.3 367.175 62.55 363.1 63.275C362.02 63.4336 360.988 63.8261 360.075 64.425C359.545 65.0397 359.237 65.8144 359.2 66.625C359.175 72.679 359.829 78.7167 361.15 84.625ZM361.875 66.35C365.825 65.125 377.075 64.65 380.65 66.35C381.875 69.6 382.525 80.775 381.05 83.375C378.725 83.975 364.525 83.975 362.15 84C362.075 82.05 360.925 71.525 361.875 66.35ZM326.275 121.975C326.45 122.475 326.85 122.525 326.925 122.5C327.475 122.5 343.625 124.05 346.925 123.175C349.05 122.6 349.425 118.85 349.65 116.65C349.875 113.325 349.65 105.175 348.25 102.425C346.325 98.65 332.3 99.925 328.25 100.625C327.161 100.78 326.12 101.173 325.2 101.775C324.677 102.403 324.37 103.183 324.325 104C324.302 110.046 324.956 116.075 326.275 121.975ZM327.025 103.7C330.975 102.475 342.2 102 345.775 103.7C347 106.95 347.65 118.125 346.175 120.725C343.85 121.325 329.675 121.325 327.3 121.35C327.2 119.4 326.05 108.875 327.025 103.7ZM384.725 101.4C388.725 95.5 392.225 90.175 392.35 89.925C392.475 89.675 390.65 87.425 389.575 89.025C381.925 100.8 382.975 99.675 382.425 99.475C378.025 97.875 363.825 98.425 361.6 100.5C360.1 101.9 360.675 106.975 360.85 109.15C359.25 108.25 358.025 107.6 357.575 107.425C356.425 106.975 356.5 108.1 357.125 108.5L361.025 111C361.341 114.285 361.85 117.549 362.55 120.775C362.574 120.927 362.654 121.065 362.774 121.162C362.894 121.259 363.046 121.308 363.2 121.3C363.725 121.3 379.9 122.85 383.2 121.975C387.5 120.775 386.175 105 384.725 101.4ZM363.275 102.425C369.156 101.087 375.249 100.976 381.175 102.1L372.5 115.775C371.625 115.275 366.95 112.525 363.05 110.325C362.885 107.715 362.961 105.096 363.275 102.5V102.425ZM382.45 119.425C380.1 120.05 365.925 120.05 363.55 120.075C363.55 119.075 363.175 115.8 363 112.175L372.5 118.075C372.74 118.101 372.983 118.059 373.2 117.953C373.416 117.846 373.599 117.681 373.725 117.475C374.525 116.45 378.55 110.6 382.65 104.575C383.425 109.075 383.675 117.275 382.5 119.425H382.45ZM283.05 65.95C283.728 65.9599 284.394 65.7681 284.964 65.3989C285.533 65.0297 285.98 64.4998 286.247 63.8764C286.515 63.2529 286.591 62.5641 286.467 61.8971C286.342 61.2302 286.023 60.6152 285.548 60.1303C285.074 59.6453 284.466 59.3121 283.802 59.1731C283.138 59.034 282.448 59.0953 281.818 59.3491C281.189 59.603 280.65 60.038 280.268 60.5989C279.886 61.1599 279.68 61.8216 279.675 62.5C279.675 63.4021 280.028 64.2685 280.659 64.9134C281.29 65.5583 282.148 65.9304 283.05 65.95Z" fill="white"/>
</svg>
