<svg width="500" height="500" viewBox="0 0 500 500" fill="none" xmlns="http://www.w3.org/2000/svg">
<path d="M238.9 86.425C239.475 85.95 239.525 84.625 239.625 83.325C240.425 68.4203 240.475 53.4848 239.775 38.575C239.45 35.25 239.325 35.125 235.775 34.85C226.175 34.025 185.025 34.85 183.125 36.6C181.825 37.85 182.475 81.925 183.65 85.9C183.738 86.084 183.871 86.2425 184.038 86.3606C184.204 86.4787 184.397 86.5525 184.6 86.575C187.775 87.1 236.175 88.675 238.9 86.425ZM183.675 37.15C185.8 35.775 232.725 35.525 237.7 36.9C238.975 43 238.225 81.275 237.5 85.05C228.675 86.25 190.15 85.45 185.175 84.925C183.818 69.0385 183.317 53.0904 183.675 37.15ZM241.2 100.65C241.162 100.38 241.051 100.126 240.879 99.9147C240.707 99.7033 240.481 99.5426 240.225 99.45C235.925 97.9 186.85 98.925 184.9 100.8C183.675 101.95 184.125 145.8 185.4 150.1C185.488 150.284 185.621 150.442 185.788 150.561C185.954 150.679 186.147 150.752 186.35 150.775C190.45 151.45 234.05 152.5 239.8 151C240.65 150.775 240.925 150.45 241.075 149.9C242.075 146.125 242.5 105.75 241.2 100.65ZM239.25 149.225C230.4 150.425 192.075 149.675 186.925 149.225C185.75 143.35 184.8 105.1 185.425 101.45C187.65 99.95 234.875 99.925 239.45 101.175C240.625 106.725 240 145 239.25 149.225ZM306 85.875C306.55 85.425 306.6 84.075 306.725 82.775C307.475 67.8678 307.475 52.9322 306.725 38.025C306.4 34.7 306.25 34.6 302.75 34.3C293.125 33.5 252 34.3 250.1 36.05C248.8 37.275 249.425 81.375 250.625 85.35C250.697 85.54 250.823 85.7049 250.987 85.8247C251.152 85.9445 251.347 86.0141 251.55 86.025C255 86.575 303.25 88.125 306 85.875ZM250.775 36.6C255.775 35.075 300.325 35.1 304.775 36.35C305.95 41.95 305.425 80.125 304.575 84.5C295.725 85.7 257.375 84.925 252.25 84.5C250.889 68.572 250.397 52.5816 250.775 36.6ZM90.5 183.6C90.85 184.575 92.15 185 93.225 185.25C102.375 187.475 135.975 186.275 146.35 184.3C147.45 184.1 149.65 183.7 150.25 182.775C152.55 179.075 151.625 119.6 148.875 116.3C146.125 113 97.8 113.575 93.55 116.825C90.35 119.3 89.6 181 90.5 183.6ZM94.625 118.1C98.675 115.275 146.35 114.45 148.275 116.775C150.775 119.775 150.475 178.25 148.75 181.775C144.075 184.275 98.25 185.85 92.325 182.975C91.525 182.5 92.275 123.225 94.625 118.1ZM29.4 201.325C29.5988 201.623 29.8658 201.869 30.1789 202.043C30.492 202.217 30.842 202.314 31.2 202.325C40.1847 203.058 49.2198 202.908 58.175 201.875C58.993 201.843 59.7802 201.554 60.425 201.05C61.775 199.275 61.075 174.4 59.55 172.9C58.025 171.4 33.625 171.325 31.175 172.9C30.8007 173.22 30.5525 173.663 30.475 174.15C29.3451 183.161 28.9855 192.253 29.4 201.325ZM58.975 200C54.5349 200.618 50.058 200.936 45.575 200.95C45.9097 200.269 46.2854 199.61 46.7 198.975C48.1843 197.033 50.1174 195.479 52.3336 194.447C54.5497 193.415 56.983 192.936 59.425 193.05C59.4145 195.374 59.2642 197.694 58.975 200ZM32.25 174.225C35.25 173.05 58.275 172.725 59.025 173.45C59.2512 174.206 59.3855 174.987 59.425 175.775C55.6 176.275 55 183.5 54.9 187.35C53.3497 184.835 51.629 182.43 49.75 180.15C49.092 179.623 48.3115 179.271 47.481 179.127C46.6506 178.983 45.7971 179.051 45 179.325C43.175 180.125 43.525 182.375 43.775 184.15C44.417 186.423 45.3231 188.613 46.475 190.675C44.975 189.475 38.975 184.625 37.275 184.325C35.575 184.025 33.925 184.125 33.075 185.625C30.575 190.025 36.6 197.325 40.175 200.9C37.1671 200.939 34.1601 200.772 31.175 200.4C30.8764 191.66 31.2358 182.911 32.25 174.225Z" fill="white"/>
<path d="M20.5 210.525C20.85 211.35 22 211.65 23 211.825C30.5 213.375 57.5 212.5 65.875 211.15C66.825 210.975 68.625 210.7 69.15 210C71.1 207.35 70.275 165.95 68 163.55C66.075 161.55 26.825 161.375 23.15 163.775C22.6661 164.241 22.3572 164.858 22.275 165.525C20.35 173.075 19.75 208.675 20.5 210.525ZM24.1 165.15C27.55 163.275 65.825 162.65 67.35 164.1C68.875 165.55 69.1 204.675 67.65 208.875C62.825 210.425 33.125 211.675 22.275 209.775C21.775 208.075 22.225 170.5 24.1 165.15ZM401.325 159.5C402.296 160.61 403.331 161.662 404.425 162.65C404.45 162.692 404.485 162.729 404.525 162.757C404.566 162.786 404.612 162.805 404.66 162.814C404.709 162.823 404.759 162.822 404.807 162.811C404.855 162.799 404.9 162.777 404.939 162.747C404.979 162.717 405.011 162.679 405.034 162.635C405.057 162.592 405.071 162.543 405.075 162.494C405.078 162.445 405.071 162.395 405.054 162.349C405.036 162.302 405.01 162.26 404.975 162.225C403.047 158.447 400.327 155.13 397 152.5C396.969 152.466 396.931 152.438 396.889 152.418C396.847 152.398 396.802 152.386 396.755 152.384C396.709 152.382 396.662 152.388 396.619 152.404C396.575 152.42 396.535 152.444 396.5 152.475C396.466 152.506 396.438 152.544 396.418 152.586C396.398 152.628 396.386 152.673 396.384 152.72C396.382 152.766 396.388 152.813 396.404 152.856C396.42 152.9 396.444 152.941 396.475 152.975C397.878 155.301 399.502 157.486 401.325 159.5ZM375.95 168.875C376.943 165.079 377.105 161.114 376.425 157.25C376.425 157.157 376.388 157.068 376.323 157.003C376.257 156.937 376.168 156.9 376.075 156.9C375.982 156.9 375.893 156.937 375.828 157.003C375.762 157.068 375.725 157.157 375.725 157.25C375.408 158.699 375.199 160.17 375.1 161.65C374.839 164.038 374.889 166.45 375.25 168.825C375.2 169.3 375.9 169.35 375.95 168.875ZM343.375 166.05C344.501 164.423 345.448 162.68 346.2 160.85C347.056 159.051 347.686 157.154 348.075 155.2C348.064 155.139 348.037 155.082 347.996 155.035C347.956 154.988 347.904 154.953 347.846 154.933C347.787 154.912 347.725 154.908 347.664 154.92C347.603 154.931 347.547 154.959 347.5 155C347.25 155.4 346.475 156.55 346 157.5C344.529 160.138 343.451 162.976 342.8 165.925C342.755 165.969 342.724 166.025 342.708 166.086C342.693 166.147 342.694 166.211 342.711 166.271C342.729 166.332 342.763 166.386 342.809 166.429C342.855 166.472 342.911 166.501 342.973 166.515C343.034 166.528 343.098 166.525 343.158 166.505C343.218 166.485 343.271 166.449 343.312 166.402C343.353 166.354 343.381 166.296 343.392 166.235C343.403 166.173 343.397 166.109 343.375 166.05ZM188.55 338.5C201.775 339.35 201.95 325.05 188.55 327.325C180 327.775 182.625 338.05 188.55 338.5ZM188.55 328.075C199.725 327.5 198.825 337.225 188.55 336.6C185 336.425 181.875 329.2 188.65 328.075H188.55ZM236.9 330.75C250.175 331.6 250.3 317.3 236.9 319.575C228.45 320 231 330.3 236.9 330.75ZM236.9 320.325C248.075 319.75 247.2 329.475 236.9 328.85C233.4 328.675 230.25 321.45 237 320.325H236.9ZM265.3 336.85C278.55 337.7 278.7 323.4 265.3 325.65C256.825 326.125 259.375 336.4 265.3 336.85ZM265.3 326.425C276.475 325.85 275.6 335.575 265.3 334.95C261.8 334.775 258.625 327.5 265.4 326.425H265.3ZM273.025 316.4C286.25 317.25 286.45 302.95 273.025 305.225C264.55 305.675 267.125 315.975 273.025 316.4ZM273.025 306C284.2 305.425 283.3 315.125 273.025 314.525C269.525 314.325 266.35 307.1 273.125 306H273.025ZM173.325 285.4C176.754 286.228 180.366 285.821 183.525 284.25C188.525 281.55 188.75 275.4 185.8 270.6C181.225 263.1 171.7 263.875 168.3 269.25C166.844 271.838 166.356 274.86 166.925 277.775C167.263 279.482 168.026 281.077 169.145 282.41C170.264 283.743 171.702 284.771 173.325 285.4ZM168.8 277.5C168.291 275.026 168.634 272.453 169.775 270.2C170.975 268.479 172.733 267.225 174.751 266.651C176.769 266.077 178.924 266.218 180.85 267.05C186 269.95 188.725 279.7 182.65 282.675C179.943 283.969 176.88 284.322 173.95 283.675C172.649 283.151 171.497 282.312 170.599 281.235C169.7 280.157 169.082 278.874 168.8 277.5Z" fill="white"/>
<path d="M174.05 271.225C173.75 270.725 172.15 270.275 172.275 271.8C172.4 273.325 175 272.75 174.05 271.225ZM179.625 271.275C180.175 270.4 178 268.775 177.775 270.85C177.7 271.525 178.65 272.75 179.625 271.275ZM173.4 277.5C172.475 278.125 175.35 281 178.9 279.4C179.446 279.176 179.92 278.805 180.268 278.329C180.617 277.852 180.827 277.288 180.875 276.7C180.89 276.652 180.895 276.602 180.89 276.553C180.886 276.503 180.872 276.455 180.848 276.411C180.825 276.367 180.794 276.328 180.755 276.296C180.717 276.264 180.673 276.24 180.625 276.225C180.577 276.21 180.527 276.205 180.478 276.21C180.428 276.214 180.38 276.228 180.336 276.252C180.292 276.275 180.253 276.307 180.221 276.345C180.189 276.383 180.165 276.427 180.15 276.475C179.296 277.171 178.28 277.641 177.197 277.842C176.114 278.043 174.997 277.968 173.95 277.625C173.889 277.541 173.8 277.481 173.699 277.458C173.597 277.435 173.491 277.45 173.4 277.5ZM203.575 290.35C205.85 291.3 216.625 291.025 218.4 288.775C218.85 288.225 218.55 287.675 218.225 287.05C217.125 284.95 211 274.7 208.8 275.075C206.6 275.45 204.4 281.325 203.8 283.25C203.2 285.175 201.75 289.575 203.575 290.35ZM206.075 280.8C206.4 279.825 207.8 276.025 208.8 275.8C209.8 275.575 216.3 287.55 216.45 287.8C212.498 288.843 208.384 289.132 204.325 288.65C204.564 285.959 205.187 283.315 206.175 280.8H206.075ZM268.475 160.25C268.438 160.021 268.321 159.813 268.145 159.663C267.968 159.513 267.744 159.431 267.513 159.431C267.281 159.431 267.057 159.513 266.881 159.663C266.704 159.813 266.587 160.021 266.55 160.25C266.575 160.836 266.676 161.415 266.85 161.975C266.87 162.113 266.92 162.246 266.996 162.363C267.072 162.48 267.172 162.58 267.29 162.655C267.408 162.731 267.541 162.779 267.679 162.799C267.818 162.818 267.959 162.808 268.093 162.768C268.227 162.728 268.35 162.66 268.456 162.568C268.561 162.476 268.645 162.363 268.703 162.235C268.761 162.108 268.79 161.97 268.79 161.83C268.789 161.69 268.759 161.552 268.7 161.425C268.587 161.041 268.512 160.648 268.475 160.25ZM273.825 168.725C274.466 168.44 275.05 168.042 275.55 167.55C275.95 167.175 275.775 166.75 275.2 166.85L273.525 167.2C273.192 165.982 272.983 164.734 272.9 163.475C272.9 162.525 272.475 159.475 271.975 159.275C271.475 159.075 271.35 160.05 271.2 160.9C270.75 163.75 271.125 169.775 273.825 168.725ZM277.95 159.575C277.987 159.804 278.104 160.012 278.281 160.162C278.457 160.312 278.681 160.394 278.913 160.394C279.144 160.394 279.368 160.312 279.545 160.162C279.721 160.012 279.838 159.804 279.875 159.575V158.2C279.844 157.946 279.719 157.713 279.525 157.546C279.33 157.38 279.081 157.292 278.825 157.3C278.569 157.325 278.332 157.449 278.164 157.644C277.997 157.84 277.911 158.093 277.925 158.35C277.825 158.525 277.95 159.575 277.95 159.575ZM278.925 170.3C278.575 170.3 278.925 170.3 277.05 171.775C276.869 171.922 276.676 172.056 276.475 172.175C274.625 173.25 273.775 172.65 273.6 173.2C273.425 173.75 274.9 174.625 276.525 174.225C279.175 173.575 279.6 170.5 278.925 170.3ZM97.925 175.35C98.2 176.2 99.25 176.575 100.125 176.775C107.25 178.575 132.8 177.55 140.4 176.05C141.35 175.85 142.9 175.525 143.475 174.75C145.275 171.775 144.4 125.6 142.325 123C140.25 120.4 103.65 120.725 100.3 123.325C97.8 125.325 97.225 173.3 97.925 175.35ZM138.175 152.85C138.92 152.583 139.717 152.486 140.504 152.569C141.292 152.651 142.051 152.909 142.725 153.325C142.832 160.151 142.573 166.977 141.95 173.775L141.45 173.95C139.746 167.586 136.279 161.832 131.45 157.35C133.513 155.578 135.769 154.043 138.175 152.775V152.85ZM129 132.85C133.125 135.5 133 142.3 125.8 142.375C121.425 142.375 119.55 140.275 119.55 137.775C119.524 136.665 119.807 135.57 120.369 134.612C120.931 133.655 121.748 132.872 122.729 132.353C123.71 131.834 124.817 131.598 125.924 131.673C127.032 131.747 128.097 132.129 129 132.775V132.85ZM104.35 153.85C111.675 149.475 117.1 149.225 124.35 153.85C130.825 158.025 137.925 166.35 139.625 174.375C132.125 175.725 103.325 176.875 99.625 174.85C99.3 173.5 99.175 159.35 99.175 157.8C100.766 156.294 102.499 154.946 104.35 153.775V153.85ZM343.6 433.05C342.441 433.137 341.294 433.338 340.175 433.65C339 434.1 337.975 434.825 338.55 435.95C339.275 437.559 340.382 438.967 341.775 440.05C342.125 440.425 342.675 439.875 342.325 439.5C341.975 439.125 341.925 438.35 340.525 435.575C341.714 435.06 342.859 434.45 343.95 433.75C344.022 433.693 344.072 433.613 344.091 433.523C344.111 433.434 344.1 433.34 344.059 433.258C344.018 433.176 343.95 433.111 343.866 433.073C343.783 433.035 343.689 433.027 343.6 433.05ZM338.525 425.875C338.048 425.833 337.569 425.928 337.145 426.151C336.721 426.373 336.369 426.712 336.132 427.128C335.895 427.544 335.783 428.019 335.808 428.497C335.833 428.975 335.995 429.436 336.275 429.825C336.297 429.911 336.347 429.987 336.417 430.042C336.487 430.096 336.574 430.126 336.663 430.126C336.751 430.126 336.838 430.096 336.908 430.042C336.978 429.987 337.028 429.911 337.05 429.825C337.052 429.189 337.219 428.565 337.534 428.012C337.85 427.46 338.303 426.999 338.85 426.675C339.225 426.4 339.15 425.75 338.525 425.875ZM274.2 177.3C273.939 177.292 273.683 177.369 273.469 177.52C273.256 177.671 273.098 177.887 273.019 178.136C272.94 178.384 272.944 178.652 273.031 178.898C273.118 179.145 273.282 179.356 273.5 179.5C273.761 179.665 274.075 179.724 274.378 179.663C274.68 179.603 274.948 179.428 275.125 179.175C275.237 178.998 275.302 178.794 275.313 178.585C275.324 178.375 275.281 178.166 275.188 177.978C275.096 177.79 274.956 177.629 274.783 177.51C274.61 177.391 274.409 177.319 274.2 177.3ZM278.6 178.95C278.286 178.98 277.993 179.124 277.777 179.354C277.561 179.584 277.436 179.884 277.425 180.2C277.422 180.433 277.489 180.661 277.616 180.856C277.744 181.051 277.926 181.204 278.14 181.295C278.355 181.386 278.591 181.411 278.82 181.368C279.049 181.324 279.259 181.213 279.425 181.05C279.61 180.887 279.74 180.671 279.798 180.431C279.856 180.192 279.839 179.94 279.749 179.711C279.659 179.481 279.5 179.285 279.294 179.149C279.089 179.013 278.846 178.943 278.6 178.95ZM278.525 175.175C278.475 175.353 278.467 175.54 278.501 175.722C278.535 175.904 278.611 176.075 278.722 176.223C278.833 176.37 278.977 176.49 279.143 176.573C279.308 176.656 279.49 176.699 279.675 176.7C279.852 176.694 280.025 176.652 280.184 176.576C280.344 176.499 280.486 176.391 280.601 176.257C280.716 176.123 280.802 175.966 280.854 175.797C280.905 175.628 280.921 175.45 280.9 175.275C280.845 175.007 280.702 174.766 280.494 174.589C280.286 174.411 280.025 174.309 279.752 174.297C279.479 174.286 279.209 174.366 278.987 174.525C278.765 174.684 278.602 174.913 278.525 175.175ZM285.325 180.325C285.584 180.332 285.837 180.254 286.047 180.103C286.257 179.951 286.411 179.735 286.485 179.487C286.559 179.239 286.549 178.974 286.457 178.732C286.365 178.49 286.195 178.286 285.975 178.15C285.795 178.04 285.589 177.979 285.378 177.975C285.167 177.97 284.958 178.02 284.773 178.122C284.588 178.223 284.433 178.372 284.324 178.552C284.214 178.733 284.154 178.939 284.15 179.15C284.156 179.46 284.282 179.755 284.501 179.974C284.72 180.193 285.015 180.319 285.325 180.325ZM287.5 174.75C287.667 174.716 287.825 174.646 287.964 174.546C288.102 174.446 288.217 174.317 288.302 174.169C288.386 174.021 288.438 173.856 288.454 173.686C288.47 173.516 288.45 173.345 288.394 173.184C288.339 173.022 288.249 172.874 288.132 172.75C288.015 172.626 287.872 172.529 287.714 172.464C287.556 172.399 287.386 172.369 287.216 172.375C287.045 172.381 286.878 172.424 286.725 172.5C286.464 172.63 286.26 172.85 286.149 173.12C286.039 173.389 286.03 173.69 286.125 173.965C286.22 174.241 286.412 174.472 286.665 174.616C286.918 174.761 287.215 174.808 287.5 174.75Z" fill="white"/>
<path d="M474.675 296.675C469.912 295.238 464.794 295.53 460.225 297.5C470.55 284.25 476.1 271 476.1 253.15C476.1 243.025 475.1 233.5 465.525 230.325C459.625 228.35 449.3 231.425 443.7 234.275C443.7 223.675 444.575 83.95 440.775 73.85C440.475 72.975 438.775 72.6 437.775 72.35C427 69.725 375.275 65.025 372.775 67.2C371.15 68.6 371.7 79.175 371.8 81.275C368.425 81.275 352.35 81.05 350.2 83.625C346.875 87.55 329.175 133.2 330.2 138.275C330.249 138.562 330.389 138.825 330.6 139.025C341.2 149.35 411.3 147.475 414.5 141.05C416.575 137.3 402.5 87.825 400 85C397.5 82.175 376.675 81.425 372.7 81.375C372.438 77.2037 372.589 73.0167 373.15 68.875C373.4 67.825 373.575 67.925 373.975 67.85C380.675 66.625 435.35 72.025 439.45 74.6C441.3 80.3 441.325 116.675 442.15 235.275C435.023 239.352 429.383 245.596 426.05 253.1C422.75 252.6 418.25 256.35 415.9 258.7C412.697 261.97 409.909 265.623 407.6 269.575C407.172 262.343 405.973 255.178 404.025 248.2C398.35 232.925 381.25 205.7 369.325 217.2C364.803 222.297 361.73 228.512 360.425 235.2C356.075 231.069 351.288 227.422 346.15 224.325C343.125 213.695 336.439 204.477 327.275 198.3C323.55 195.683 319.601 193.399 315.475 191.475C315.442 191.395 315.4 191.32 315.35 191.25C312.85 188.425 306.425 187.575 302.6 187.425C302.95 184.55 300.475 172.05 299.875 169C300.62 169.014 301.355 168.824 302 168.45C304.5 168.3 314.3 167.825 316.075 166.25C316.402 165.878 316.611 165.416 316.675 164.925C317.091 162.351 317.358 159.755 317.475 157.15C318.7 138.675 317.875 139.65 318.45 139.65C326.35 142.575 328.95 134.95 318.45 131.25V130.5C321.525 129.825 325.1 128.4 323.675 125.5C323.096 124.684 322.321 124.027 321.42 123.59C320.52 123.153 319.524 122.95 318.525 123C318.525 116.65 320.2 27.775 316.2 23C311.725 17.675 175 20.3 170.325 25.25C167.5 28.1 169.25 153.65 172.5 165.6C172.675 166.225 173.35 166.35 174 166.45C184.825 168.2 249 168.95 264 169.1C264.317 170.714 264.726 172.308 265.225 173.875C266.373 176.736 268.072 179.344 270.225 181.55C272.109 182.867 274.329 183.621 276.625 183.725C275.875 185.425 274.425 188.575 273.675 190.15C266.622 192.228 259.891 195.274 253.675 199.2C236.875 210.775 224.45 232.325 215 250C213.232 253.501 211.703 257.117 210.425 260.825C200.025 260.55 157.275 262.05 156.15 263.325C155.575 263.875 156.15 265.025 156.3 266.05C158.25 273.275 165.525 296.825 168.525 305.275C164 306 159.475 306.925 154.95 307.775C154.83 307.441 154.688 307.115 154.525 306.8C154.463 306.655 154.372 306.524 154.258 306.415C154.144 306.305 154.01 306.22 153.862 306.164C153.715 306.108 153.558 306.082 153.4 306.088C153.242 306.094 153.087 306.132 152.945 306.199C152.802 306.267 152.674 306.362 152.569 306.479C152.464 306.597 152.383 306.735 152.332 306.884C152.282 307.033 152.261 307.192 152.273 307.349C152.285 307.506 152.328 307.66 152.4 307.8C152.448 307.906 152.49 308.014 152.525 308.125C147.175 308.85 144 308.775 132.2 310.45C132.119 310.181 131.944 309.95 131.708 309.799C131.471 309.648 131.189 309.586 130.911 309.625C130.633 309.665 130.378 309.802 130.192 310.013C130.007 310.224 129.903 310.494 129.9 310.775C123.05 311.8 116.925 312.875 109.65 314.225C109.551 313.91 109.434 313.601 109.3 313.3C109.174 313.015 108.941 312.79 108.652 312.673C108.362 312.557 108.039 312.557 107.75 312.675C107.607 312.735 107.477 312.823 107.367 312.934C107.258 313.044 107.172 313.175 107.114 313.32C107.056 313.464 107.027 313.618 107.029 313.773C107.031 313.929 107.063 314.082 107.125 314.225C107.125 314.375 107.125 314.5 107.3 314.65C101.1 315.8 94.8 317 88.725 318.125V317.075C88.6761 316.77 88.5162 316.495 88.2763 316.301C88.0363 316.107 87.7331 316.009 87.425 316.025C87.2704 316.041 87.1204 316.087 86.9837 316.161C86.8469 316.235 86.7263 316.335 86.6286 316.456C86.531 316.577 86.4583 316.716 86.4147 316.865C86.3712 317.014 86.3577 317.171 86.375 317.325C86.4 317.733 86.4 318.142 86.375 318.55C83.3 319.1 80.2 319.6 77.1 320.1C77.0058 319.846 76.827 319.633 76.5938 319.496C76.3606 319.359 76.0872 319.307 75.8199 319.348C75.5525 319.389 75.3075 319.521 75.1263 319.722C74.945 319.923 74.8386 320.18 74.825 320.45C54.275 323.625 58.575 322.6 52.825 311.15C51.8513 308.528 50.194 306.215 48.025 304.45C47.6815 304.251 47.3017 304.124 46.908 304.074C46.5144 304.024 46.1148 304.054 45.7327 304.161C45.3507 304.268 44.9939 304.451 44.6835 304.698C44.373 304.945 44.1151 305.252 43.925 305.6C42.325 307.85 43.45 315.425 43.925 318.325C44.4 321.225 46.95 334.675 48.7 336.425C49.35 337.075 51.475 337.125 53.375 337.225V337.8C36.025 339.425 14.025 345.55 12.475 363C11.325 376.075 21.925 381.25 34.7 384.025C33.9 388.4 23.2 445.525 23.775 448.85C24.475 452.625 33.525 454.825 35.05 450.75C37.4 444.375 45.975 392.575 47.1 385.75C59.8887 386.911 72.7664 386.66 85.5 385C86.65 391.8 95.175 443.3 97.525 449.675C99.025 453.725 108.1 451.525 108.775 447.775C109.375 444.45 98.775 387.925 97.75 382.325C111.975 378.075 126.475 369.375 124.5 354.6C142.7 353.775 163.525 351.525 181.525 349.175C181.508 352.398 182.262 355.578 183.725 358.45C185.5 361.775 191.875 364.05 195.45 365.2C194.8 368.675 182.625 433.4 183.25 436.925C183.875 440.45 193 442.875 194.5 438.825C197 432.2 206.1 376.625 207.525 368.325C235.225 374.05 248.075 372.375 258 371.25C258.25 374.225 263 435.725 264.575 438.75C266.225 442.2 275.55 441.95 275.95 437.65C276.575 430.725 270.95 376.4 270.425 369.625C285.664 367.689 300.634 364.032 315.05 358.725C318.05 370.15 325.675 398.725 326.325 401.05C319.068 403.899 312.929 409.021 308.825 415.65C304.42 417.613 300.129 419.825 295.975 422.275C293.68 423.283 291.473 424.479 289.375 425.85C287.392 427.105 285.69 428.756 284.375 430.7C284.23 431.022 284.155 431.372 284.155 431.725C284.155 432.078 284.23 432.428 284.375 432.75C284.984 433.989 285.834 435.094 286.875 436C291.45 439.975 293.775 438.1 302.475 450.525C306.925 456.85 308.55 464.925 314.125 471.75C318.05 476.55 320 481.75 329.125 479.425C334.125 478.175 336.875 476 343.7 474.15C347.175 473.225 350.75 472.55 354.225 471.5C375.775 465.05 370.7 466.8 385.45 464.7C387.95 464.325 390.625 463.75 393.2 463.35C397.715 462.981 402.246 462.847 406.775 462.95C407.345 462.801 407.856 462.482 408.24 462.035C408.624 461.589 408.863 461.036 408.925 460.45C409.144 459.137 409.202 457.802 409.1 456.475C409.356 453.434 408.6 450.393 406.95 447.825C418.5 449.825 448.925 447.425 451.475 445.925C451.711 445.803 451.903 445.611 452.025 445.375C453.525 442.15 455.65 413.3 455.675 402.25C456.513 402.117 457.347 401.958 458.175 401.775C459.925 401.35 460.175 393.175 459.075 390.95C458.985 390.733 458.849 390.537 458.677 390.378C458.504 390.218 458.299 390.098 458.075 390.025C450.925 388.4 431.35 388.8 423.65 389.1C423.368 379.785 422.357 370.507 420.625 361.35C429.893 359.22 438.904 356.094 447.5 352.025C463.525 344.1 472.825 340.975 483.55 325.5C491.225 314.5 487.35 300.875 474.675 296.675ZM399.4 85.4C401.9 87.9 413.575 132.9 413.375 139.85C413.225 145.6 342.35 147.35 332.125 137.875C332.25 130.05 348.925 87.55 351.4 84.55C353.875 81.55 396.15 81.9 399.4 85.4ZM449.75 233.725C453.925 232.35 460.75 230.725 464.925 232.125C473.575 235 474.175 244.075 474.175 253.15C474.175 272 467.825 285.45 456.4 299.225C451.15 302.12 446.363 305.786 442.2 310.1C444.447 300.74 444.997 291.054 443.825 281.5C443.632 279.802 443.272 278.127 442.75 276.5C444.492 271.229 446.648 266.105 449.2 261.175C453.225 253.675 454.85 253.8 454.2 253.175C454.167 253.138 454.127 253.108 454.082 253.087C454.036 253.067 453.987 253.057 453.938 253.057C453.888 253.057 453.839 253.067 453.793 253.087C453.748 253.108 453.708 253.138 453.675 253.175C448.386 259.146 444.348 266.117 441.8 273.675C439.475 267.475 433.475 256.35 427.6 253.675C429.701 248.992 432.757 244.799 436.571 241.364C440.385 237.929 444.873 235.327 449.75 233.725ZM417.1 260C419.222 257.601 421.991 255.865 425.075 255C429.825 254.25 440.975 271.6 441.9 281.85C443.225 292.344 442.374 302.999 439.4 313.15C436.898 315.877 434.568 318.758 432.425 321.775C427.7 328.475 425.175 329.825 421.225 340.55C421.9 314 424 279.9 424 278.775C424.025 278.717 424.035 278.654 424.03 278.592C424.024 278.529 424.003 278.469 423.968 278.417C423.934 278.365 423.886 278.322 423.83 278.293C423.775 278.264 423.713 278.249 423.65 278.25C423.225 278.25 423.225 278.775 423.175 279.175C422.5 285.55 420 327.5 419.5 343.775C415.075 322.45 404.5 314.4 400.925 309.225C399.55 292 404.75 272.175 417.1 260ZM367.1 279.175C369.6 286.05 374.075 295.825 379.6 300.55C373.897 299.351 367.982 299.644 362.425 301.4C363.7 296.925 366.425 284.55 367.15 279.1L367.1 279.175ZM358.975 307.5C358.931 306.825 359.097 306.152 359.45 305.575C364.45 298.975 391.425 298.8 406.95 319.625C414.46 330.233 418.606 342.855 418.85 355.85C411.925 344.15 387.925 321.2 372.45 315.85C372.354 315.817 372.249 315.823 372.157 315.868C372.066 315.912 371.996 315.991 371.962 316.088C371.929 316.184 371.936 316.289 371.98 316.38C372.025 316.472 372.104 316.542 372.2 316.575C390.425 323.25 419.075 354.3 418.7 360.625C417.153 360.595 415.605 360.695 414.075 360.925C411.907 360.924 409.742 360.757 407.6 360.425C400.75 359.25 396.35 356.1 385.925 346.3C378.588 339.59 371.776 332.327 365.55 324.575C363.175 320.45 358.9 312.325 358.975 307.5ZM361.975 236.175C363.128 229.581 366.088 223.437 370.525 218.425C380.875 208.425 397.15 235.35 402.125 248.75C404.235 256.575 405.492 264.605 405.875 272.7C401.026 283.204 398.771 294.718 399.3 306.275C392.15 295.475 382.2 272 378.575 253.775C377.9 250.55 375.175 233.525 375.175 231.55C375.475 231.05 374.425 230.475 374.375 231.55C374.982 242.591 376.597 253.553 379.2 264.3C383.023 277.695 388.375 290.605 395.15 302.775C400.55 312.775 401.625 308.925 389.7 303.45C387.28 302.392 384.77 301.556 382.2 300.95C380.865 299.97 379.626 298.865 378.5 297.65C368.625 286.225 359.575 254.4 361.975 236.2V236.175ZM174 313.675C177.675 313.875 181.775 312.85 183.3 309.55L201.175 310C201.01 311.612 201.475 313.225 202.472 314.501C203.469 315.778 204.921 316.62 206.525 316.85C207.99 317.042 209.478 316.93 210.897 316.522C212.317 316.113 213.637 315.416 214.775 314.475C215.368 313.953 215.829 313.298 216.12 312.564C216.411 311.829 216.524 311.037 216.45 310.25L228.225 310.425C228.85 311.325 263.825 307.25 266.95 305.775C268.5 305.05 268.05 302.5 267.15 301.05C267.45 301.05 267.3 301.05 267.65 301.625C267.862 302.147 268.217 302.597 268.675 302.925C272.957 303.447 277.302 302.942 281.35 301.45C282.15 300.9 282.05 300.25 281.875 299.225C304.075 296.075 302.225 296.725 314.825 293.825C315.525 293.675 306.075 296.95 300.45 299.975C297.735 301.405 295.214 303.178 292.95 305.25C287.25 310.725 274.7 350.05 264.675 351.95C252.432 354.002 239.965 354.355 227.625 353C227.98 352.126 228.07 351.167 227.884 350.242C227.697 349.317 227.242 348.468 226.575 347.8C225.532 346.843 224.311 346.101 222.981 345.617C221.651 345.132 220.239 344.914 218.825 344.975C214.475 344.975 212.3 347.65 213.075 351.125C201.632 349.278 190.337 346.613 179.275 343.15C178.175 340 174.575 317.5 174 313.675ZM173.6 309.175L181.1 309.5C180.196 310.387 179.105 311.059 177.906 311.466C176.707 311.872 175.432 312.004 174.175 311.85C174.075 311.575 173.875 310.475 173.6 309.175ZM214.6 310.225C214.612 310.391 214.612 310.559 214.6 310.725C214.528 311.338 214.311 311.925 213.968 312.438C213.624 312.951 213.164 313.375 212.625 313.675C210.787 314.734 208.659 315.18 206.55 314.95C205.531 314.74 204.603 314.218 203.895 313.457C203.187 312.695 202.735 311.731 202.6 310.7C202.588 310.475 202.588 310.25 202.6 310.025L214.6 310.225ZM237.825 291.775L231.8 292.525C250.175 267.925 239.75 279.025 237.825 291.775ZM230.6 294.275L238.1 293.425C238.725 294.525 244.725 296.475 245.875 296.85C245.656 297.267 245.472 297.702 245.325 298.15C239.95 297.75 234.3 297.375 228.45 297.175L230.6 294.275ZM280.125 300C276.721 300.968 273.186 301.39 269.65 301.25C266.956 295.05 264.652 288.687 262.75 282.2C265.613 279.693 269.046 277.925 272.75 277.05C273.85 279.675 280 297.35 280.125 300ZM266.6 299.325C252.55 300.2 249.1 300.7 246.875 300.15C246.725 294.075 257.15 290.925 263.2 289.95C264.4 293.625 265.65 296.975 266.6 299.3V299.325ZM237.725 304.8C240.575 304.4 262.725 301.45 265.575 302.125C265.922 302.723 266.087 303.409 266.05 304.1C262.6 305.15 229.225 309.6 228.925 309.625C228.606 308.656 228.438 307.645 228.425 306.625V306.425C229.675 306.4 225 306.55 237.725 304.775V304.8ZM227 298.85C232 299.05 237.225 299.325 245 299.95C245 300.625 245 301.25 245.7 301.75C246.4 302.25 248.2 301.525 237.15 303.6C234.031 304.022 230.964 304.768 228 305.825C226.5 298.25 226.425 299.525 227 298.825V298.85ZM225.9 352.225C213.025 350.875 213.9 351.325 213.875 350.775C213.801 350.115 213.909 349.447 214.186 348.843C214.464 348.24 214.901 347.724 215.45 347.35C218.25 345.525 227.5 347.725 225.9 352.2V352.225ZM313.65 191.575C312.975 192.1 289.725 209.775 286.3 211.925C284.567 209.224 282.655 206.643 280.575 204.2C283.375 201.1 302.225 188.125 302.225 188.125C303.025 188.125 310.7 188.95 313.65 191.55V191.575ZM264.2 195C267.258 193.764 270.399 192.745 273.6 191.95C278.6 204.075 277.3 201.425 278.15 203.575C274.5 205.216 270.944 207.061 267.5 209.1C265.975 205.475 263.7 198.825 264.2 195ZM316.7 120.15V123.3C309.2 124.275 309.2 125.8 309.2 124.825C313.275 122.5 315.9 121.875 316.725 120L316.7 120.15ZM306.9 139.55C306.39 139.096 305.817 138.717 305.2 138.425C304.825 138.225 305.2 138.425 305.2 137.85C305.294 137.388 305.294 136.912 305.2 136.45C305.822 136.614 306.458 136.714 307.1 136.75C306.975 137.5 306.95 138.55 306.925 139.45L306.9 139.55ZM298.75 126.125C297.95 127.2 297 128.3 296.25 129.425C297.356 125.041 299.658 121.051 302.9 117.9C303.968 117.213 304.987 116.453 305.95 115.625C309.05 112.05 303.45 108.4 298.9 112.475C295.519 115.379 293.205 119.33 292.325 123.7C291.675 127.025 292.65 126.625 291.45 126.325C290.351 125.928 289.149 125.928 288.05 126.325C287.25 123.975 282 124 280.225 125.275C279.5 125.8 280 125.7 279.425 125.275C278.306 124.96 277.132 124.898 275.986 125.093C274.84 125.287 273.752 125.734 272.8 126.4C272.575 126.55 271.775 127.55 271.325 128.025C270.341 127.976 269.359 128.147 268.45 128.525C267.51 128.956 266.774 129.736 266.4 130.7V131.275C265.954 131.194 265.496 131.194 265.05 131.275C263.366 131.977 262.027 133.316 261.325 135C260.917 135.766 260.801 136.655 261 137.5C258.825 138.675 256.55 140.375 256.925 142.825C257.134 143.44 257.447 144.015 257.85 144.525C257.225 144.975 255.525 145.175 255.875 148.975L254 148.825C252.7 142.25 251.9 101.475 252.55 101.025C255.525 99.65 301.75 99.475 306.525 100.8C307.088 106.448 307.322 112.125 307.225 117.8C303.869 119.927 300.992 122.728 298.775 126.025L298.75 126.125ZM314.575 164.875C311.504 165.695 308.351 166.173 305.175 166.3C305.615 165.979 305.95 165.534 306.137 165.022C306.324 164.51 306.355 163.954 306.225 163.425C306.715 163.332 307.176 163.122 307.567 162.813C307.959 162.504 308.27 162.105 308.475 161.65C308.751 160.908 308.751 160.092 308.475 159.35C308.325 159 308.175 159.35 308.95 158.925C309.415 158.705 309.828 158.388 310.16 157.995C310.492 157.603 310.737 157.143 310.877 156.648C311.016 156.153 311.048 155.634 310.97 155.125C310.893 154.617 310.707 154.131 310.425 153.7C310.81 153.257 311.057 152.711 311.137 152.129C311.217 151.548 311.126 150.956 310.875 150.425C310.464 149.699 309.834 149.121 309.075 148.775C309.448 148.151 309.605 147.422 309.524 146.699C309.443 145.977 309.127 145.301 308.625 144.775C308.625 142.625 308.825 139.925 308.925 136.9C311.503 136.924 314.032 137.604 316.275 138.875C316.125 142.95 315.575 161.075 314.6 164.775L314.575 164.875ZM174.1 164.875C170.75 150.5 168.7 28.15 170.85 25.95C175 21.4 305.725 19.725 315 24.25C315.458 25.8833 315.751 27.5583 315.875 29.25C317.675 47.625 317.15 99.25 316.825 118.175C315.65 115.4 311.95 115.675 309.15 116.75C309.214 111.222 308.939 105.695 308.325 100.2C308.298 99.9263 308.192 99.6666 308.018 99.4532C307.845 99.2398 307.612 99.0822 307.35 99C302.975 97.425 253.975 98.475 252.025 100.325C250.825 101.5 251.25 145.325 252.55 149.65C252.629 149.834 252.757 149.992 252.92 150.106C253.084 150.221 253.276 150.288 253.475 150.3C254.175 150.3 255.8 150.525 256.35 150.55C256.775 151.325 257.45 151.475 257.825 151.8C257.604 151.983 257.431 152.218 257.322 152.484C257.213 152.75 257.171 153.039 257.2 153.325C257.336 154.622 257.839 155.854 258.65 156.875C259.85 158.3 260.95 157.875 262.175 157.875C262.425 159.95 262.95 163.375 263.725 167.175C245.825 167.2 182.2 166.25 174.125 164.7L174.1 164.875ZM278.775 182.375C278.494 182.143 278.139 182.018 277.775 182.025C275.608 181.985 273.489 181.382 271.625 180.275C269.643 178.264 268.057 175.898 266.95 173.3C265.007 166.701 263.784 159.912 263.3 153.05C263.525 149.95 266.65 146.125 272.3 144.95C276.755 144.167 281.343 144.733 285.475 146.575C288.8 147.9 293.4 153.2 295.25 156.075C295.336 156.194 295.464 156.276 295.608 156.304C295.752 156.332 295.901 156.304 296.025 156.225C296.81 155.718 297.649 155.299 298.525 154.975C299.27 154.801 300.054 154.926 300.709 155.323C301.363 155.72 301.836 156.358 302.025 157.1C303.325 160.05 298.45 164.975 297.775 165.925C297.681 166.175 297.681 166.45 297.775 166.7C299.154 173.428 300.139 180.232 300.725 187.075C299.9 187.55 298.875 188.325 290.35 194.725C286.683 197.065 283.175 199.646 279.85 202.45C278.925 199.5 276.575 194.3 275.375 191.675C279.325 182.825 279.375 182.875 278.8 182.3L278.775 182.375ZM216.65 250.875C226.65 231.925 242.3 204.175 263.3 195.65C263.203 200.969 264.278 206.244 266.45 211.1C266.533 211.219 266.643 211.315 266.772 211.382C266.9 211.449 267.043 211.484 267.188 211.484C267.332 211.484 267.475 211.449 267.603 211.382C267.732 211.315 267.842 211.219 267.925 211.1C268.887 210.278 269.955 209.589 271.1 209.05C271.567 210.848 272.364 212.543 273.45 214.05C272.9 217.2 262.875 258.45 263.45 260.875C265.222 265.467 267.566 269.818 270.425 273.825C270.975 274.575 271.575 275.15 272.35 274.525C276.122 270.704 279.261 266.308 281.65 261.5C281.8 260.975 281.85 261.325 280.125 214.95C280.95 214 282.625 212 283.4 210.85C285.45 213.725 284.3 213.35 285.025 213.925C285.75 214.5 286.175 214.175 286.8 213.925C290.9 211.575 311.8 195.425 315.075 192.3C319.145 194.158 323.036 196.384 326.7 198.95C343.125 209.45 346.7 227.825 348.425 247.175C349.575 260.775 347.85 272.325 337.8 280.975C331.162 286.355 323.352 290.098 315 291.9C309.55 293.25 285.85 296.725 281.35 297.35C279.375 291.164 277.089 285.081 274.5 279.125C282.675 275.575 297.35 270.35 305.7 267.525C305.845 267.485 305.972 267.396 306.058 267.273C306.145 267.149 306.186 267 306.175 266.85C305.625 259.85 304.9 241.575 307.6 235.075C307.8 234.625 307.075 234.325 306.875 234.775C303.975 241.4 304.375 259.175 304.775 266.4C296.2 269.15 282.025 273.9 273.775 277.475C273.425 276.725 273.4 276.375 272.7 276.3C270.575 276.125 262.4 279.6 261.275 281.725C260.775 282.65 262.3 287.325 262.825 289C257.625 289.45 250.325 291.175 246.875 295.175C244.368 294.463 241.939 293.5 239.625 292.3C240.725 284.8 246.775 272.875 250.575 266.55C252.025 264.05 253.85 247.825 254.025 245.15C254.164 242.76 254.164 240.365 254.025 237.975C254.003 237.889 253.953 237.813 253.883 237.758C253.813 237.704 253.726 237.674 253.637 237.674C253.549 237.674 253.462 237.704 253.392 237.758C253.322 237.813 253.272 237.889 253.25 237.975C253.1 239.525 252.825 241.325 252.5 243.375C252.35 244.5 250.575 262.775 248.75 265.875C242.95 274.1 232.225 289.15 226.025 297.1C225.8 296.1 218.35 262.75 216.9 261.85C215.413 261.379 213.86 261.152 212.3 261.175C213.522 257.65 214.975 254.209 216.65 250.875ZM158.025 264.725C165.85 263.925 213.025 261.55 216.1 263.075C216.25 264.25 219.525 272.875 222.35 286.3C224.475 296.3 227.35 306.3 227.9 309.625C226.6 309.625 173.7 307.525 171.25 307.125C169.35 302.85 159.3 269.725 158.025 264.725ZM50 334.825C48.5 332.325 43.35 309.575 45.525 306.525C48.325 302.625 53.025 316.775 54.575 319.55C57.575 325.425 62.775 324.075 75.5 322.05C75.95 323.375 76.1 324.55 77.25 324.55C77.4424 324.546 77.631 324.497 77.8001 324.405C77.9692 324.313 78.1138 324.182 78.2216 324.023C78.3294 323.864 78.3974 323.681 78.4197 323.49C78.4421 323.299 78.4182 323.105 78.35 322.925C78.15 322.425 78 321.95 77.875 321.55C87.45 320.025 86.425 319.95 86.45 320.35C86.45 320.662 86.5738 320.96 86.7942 321.181C87.0145 321.401 87.3134 321.525 87.625 321.525C87.9366 321.525 88.2355 321.401 88.4559 321.181C88.6762 320.96 88.8 320.662 88.8 320.35V319.775C95.2 318.625 101.575 317.275 107.975 316.2C107.975 316.55 108.15 316.875 108.275 317.2C108.378 317.495 108.594 317.737 108.875 317.873C109.156 318.009 109.48 318.028 109.775 317.925C110.07 317.822 110.312 317.606 110.448 317.325C110.584 317.044 110.603 316.72 110.5 316.425C110.5 316.2 110.5 315.975 110.3 315.775C117.275 314.475 123.325 313.275 130.125 312.375V314.075C130.152 314.387 130.301 314.675 130.54 314.877C130.779 315.078 131.088 315.177 131.4 315.15C131.712 315.123 132 314.974 132.202 314.735C132.403 314.496 132.502 314.187 132.475 313.875V312.05C144.975 310.225 147.25 310.45 153.275 309.55L153.7 310.725C153.846 310.975 154.077 311.164 154.351 311.258C154.625 311.351 154.924 311.342 155.192 311.232C155.46 311.123 155.679 310.92 155.809 310.661C155.939 310.403 155.972 310.106 155.9 309.825C155.806 309.613 155.722 309.396 155.65 309.175C160.175 308.425 164.675 307.475 169.225 306.675C170.025 308.775 169.925 308.75 172.375 308.95C172.65 308.95 173.55 319.175 176.85 337.525C148.75 339.075 94.875 340.025 68.35 335.825C66.75 335.575 64.25 335.475 64.5 335.475C61.625 331.65 56.35 324.375 54.1 328.525C53.0576 330.513 52.7141 332.793 53.125 335C52.0805 335.018 51.036 334.959 50 334.825ZM77.825 338.925C74.9034 339.65 72.0309 340.56 69.225 341.65C68.039 340.331 66.9288 338.945 65.9 337.5C68.5 337.75 70.125 338.225 77.775 338.925H77.825ZM33.35 450C32.8 451.5 28.75 451.05 26.725 449.6C25.15 448.45 24.625 453.675 35.775 384.175C39.2362 384.869 42.7332 385.37 46.25 385.675C38.925 423.125 34.55 446.675 33.35 450ZM106.925 446.25C106.925 447.375 107.25 447.75 106.1 448.6C104.125 450.025 100.025 450.55 99.45 449.025C98.2 445.675 93.325 419.425 86.6 384.875C90.0818 384.312 93.529 383.552 96.925 382.6C99.775 400.425 106.75 444.3 106.925 446.125V446.25ZM66.925 373.2C52.625 373.2 22.175 372.675 14.975 360.25C18.675 345.725 39 341.025 53.9 339.5C55.1533 344.336 56.6893 349.094 58.5 353.75C59.3829 355.932 61.0382 357.711 63.15 358.75C64.8503 359.196 66.6281 359.262 68.3566 358.942C70.0852 358.622 71.7218 357.925 73.15 356.9C107.925 353.3 94.7 355.7 120.15 354.825C110.925 369.1 84.2 373.1 66.95 373.075L66.925 373.2ZM89.7 353.525C89.075 353.525 72.8 354.85 72.2 355.2C70.9987 356.07 69.6278 356.678 68.1763 356.984C66.7248 357.29 65.2253 357.287 63.775 356.975C62.1499 356.127 60.8818 354.726 60.2 353.025C58.675 349.2 52.275 331.7 55.825 329.5C58.5 329.85 66.5 342.775 68.45 343.7C68.6086 343.781 68.7843 343.824 68.9625 343.824C69.1407 343.824 69.3164 343.781 69.475 343.7C74.0194 341.921 78.7016 340.516 83.475 339.5C114.595 341.125 145.785 340.874 176.875 338.75C177.163 340.524 177.564 342.277 178.075 344C178.117 344.102 178.181 344.194 178.263 344.268C178.346 344.341 178.444 344.395 178.55 344.425C181.05 345.225 184.125 346.225 187.95 347.3C121.85 355.475 107.7 352.05 89.725 353.4L89.7 353.525ZM192.8 438.175C192.25 439.675 188.175 439.2 186.175 437.75C184.625 436.65 183.85 443.1 196.325 365.475C199.475 366.45 203.025 367.375 206.8 368.175C198.275 411.75 194.075 434.725 192.825 438.05L192.8 438.175ZM274.125 437.55C273.975 439.125 269.95 439.75 267.625 438.875C265.775 438.175 266.675 443.6 259.025 371.175C262.525 370.775 266.05 370.325 269.6 369.825C272.5 411.025 274.475 433.975 274.15 437.5L274.125 437.55ZM316.05 358.45C319.375 357.15 322.675 355.75 325.875 354.225L336.9 397.8C333.899 398.337 330.959 399.175 328.125 400.3C325 389.15 319.175 369.125 316.075 358.325L316.05 358.45ZM346.9 398.825C352.918 399.048 358.875 400.108 364.6 401.975C366.632 402.54 368.635 403.208 370.6 403.975C376.728 406.774 382.236 410.769 386.8 415.725C391.25 420.975 392.25 427.8 391.8 434.725C391.475 438.9 388.775 441.625 385.5 444.275C385.15 441.45 380.5 439.275 377.8 438.85C377.4 438.85 377.35 439 378.425 438.4C380.348 437.333 381.887 435.689 382.825 433.7C383.175 433.325 382.6 432.8 382.275 433.175C379.55 435.05 378.1 436.55 374.425 438.85C374.175 438.85 374.225 439.45 372.625 439.375C370.397 438.849 368.114 438.597 365.825 438.625C364.694 435.779 364.267 432.701 364.581 429.654C364.894 426.608 365.938 423.682 367.625 421.125C371.925 415.35 373.55 417.45 373.55 416.375C373.55 414.7 362.6 417.725 362.725 431.075C362.817 433.713 363.555 436.289 364.875 438.575C361.901 438.722 358.975 439.382 356.225 440.525C355.65 440 353.25 441.25 351.7 440.525C353.022 436.052 353.513 431.375 353.15 426.725C352.777 423.95 351.604 421.345 349.775 419.225C347.734 416.897 345.161 415.096 342.275 413.975C336.325 411.825 334.3 414.85 330.775 415.975C330.191 416.171 329.559 416.171 328.975 415.975C326.725 415.25 320.65 413.475 319.325 415.5C318.3 417.025 319.8 419.275 320.775 420.975C321.75 422.675 322.075 422.775 320.45 426.9C319.966 428.268 319.329 429.576 318.55 430.8C317.275 432.125 313 433.1 312.2 434.65C310.575 437.65 316.75 440.675 317.9 442.15C319.05 443.625 321.05 446.35 322.125 447.5C326.2 451.95 336.175 452.975 341.35 451.325C343.847 450.538 346.101 449.127 347.9 447.225C349.475 448.55 349.175 450.625 348.75 452.7C348.5 453.9 347.225 454.6 346.25 455.2C343.039 457.274 339.237 458.24 335.425 457.95C334.432 457.628 333.47 457.218 332.55 456.725C330.055 456.131 327.674 455.134 325.5 453.775C323.611 451.865 321.403 450.299 318.975 449.15C307.15 446.125 304.9 431.925 308.625 420.775C313.225 406.625 331.65 398.425 346.925 398.7L346.9 398.825ZM338.75 450.65C341.25 446.35 339.825 440.65 337.125 436.65C333.875 431.65 330.975 433.4 328.75 432.25C325.6 430.6 325.125 428.75 323.875 427.85C323.275 427.458 322.617 427.163 321.925 426.975C322.509 425.704 322.872 424.343 323 422.95C322.825 421.25 320.075 417.6 320.5 416.775C321.825 416.15 326.75 417.525 328.15 418C330.825 418.9 333.9 416.375 336.25 415.5C340.125 414.225 345.55 417.5 348.175 420.5C352.45 425.5 351.5 431.625 350.225 438C349.885 441.03 348.594 443.874 346.537 446.124C344.48 448.375 341.762 449.915 338.775 450.525L338.75 450.65ZM333.9 442.9C334.1 443.25 333.625 443.725 333.2 443.275C332.875 442.954 332.634 442.558 332.499 442.122C332.364 441.686 332.339 441.223 332.425 440.775C332.466 440.328 332.637 439.903 332.917 439.552C333.197 439.201 333.573 438.94 334 438.8C334.675 438.575 334.75 439.2 334.5 439.4C334.15 439.88 333.916 440.435 333.817 441.02C333.717 441.606 333.754 442.206 333.925 442.775L333.9 442.9ZM407.45 456.65C407.45 458.05 407.75 460.25 406.825 461.15C406.35 461.625 399.8 460.6 393.1 461.575C390.6 461.95 387.925 462.525 385.35 462.875C370.925 464.925 375.35 463.25 353.825 469.75C350.375 470.775 346.85 471.45 343.375 472.375C336.625 474.2 333.7 476.425 328.825 477.625C321.05 479.575 319.7 475.325 315.825 470.625C310.375 463.975 308.8 456.025 304.225 449.55C295.225 436.825 292.875 438.725 288.25 434.775C287.34 434.025 286.592 433.098 286.05 432.05C285.971 431.918 285.929 431.767 285.929 431.613C285.929 431.458 285.971 431.307 286.05 431.175C287.269 429.668 288.701 428.345 290.3 427.25C292.326 425.905 294.458 424.726 296.675 423.725C300.125 421.85 304.75 418.975 307.75 417.675C302.075 429.675 304.1 447.675 318.25 451.075C319.153 451.382 319.998 451.839 320.75 452.425C322.504 454.043 324.432 455.46 326.5 456.65C328.2 457.4 330.125 457.8 331.825 458.425C333.211 459.245 334.769 459.729 336.376 459.837C337.982 459.946 339.592 459.676 341.075 459.05C343.823 458.222 346.375 456.844 348.575 455C349.036 454.521 349.356 453.924 349.5 453.275C349.95 450.775 350.15 448.45 348.25 446.9C349.591 445.255 350.608 443.372 351.25 441.35C352.121 441.67 353.06 441.757 353.975 441.6C350.225 444.675 351.325 447.325 356.15 448.55C360.8 449.702 365.623 449.982 370.375 449.375C375.075 448.95 381.4 449.225 385.2 446.325C389 443.425 392.85 440.05 393.325 434.875C393.8 429.7 393.05 428.5 393.8 430.125C395.275 433.275 396.425 436.6 398.125 439.575C401.025 444.575 406.425 447.475 407.2 453.375C407.37 454.417 407.47 455.469 407.5 456.525L407.45 456.65ZM450.575 444.575C451.075 445.5 414.125 448.525 405.325 445.825C404.95 445.375 404.575 444.925 404.15 444.475C401.65 436.15 398.375 413.55 397.375 405.925C416.636 405.997 435.883 404.853 455 402.5C454.725 409.6 451.975 440.675 450.6 444.45L450.575 444.575ZM458.075 391.475C459.062 394.59 459.062 397.935 458.075 401.05C457.025 402.7 398.925 404.825 394.5 403.7C393.285 400.796 392.829 397.629 393.175 394.5C393.175 394.5 394.325 393.975 395.525 393.7C408 390.8 456.875 389.4 458.2 391.35L458.075 391.475ZM422.175 389.325C415.45 389.6 400.8 390.375 394.475 392C393.35 392.3 391.775 392.75 391.475 393.775C390.725 396.15 391.6 403.3 393.275 405.1C393.8 405.7 395.3 405.75 396.4 405.825C397.325 415.1 399.475 432.275 401.4 441.425C397.275 436.575 396.4 431.125 392.975 425.75C392.349 421.627 390.621 417.749 387.975 414.525C383.225 409.325 377.478 405.133 371.075 402.2C369.175 401.425 367.2 400.825 364.9 400.125C356.429 397.187 347.388 396.271 338.5 397.45C337.875 394.95 329.75 365.425 326.525 353.825C342.6 345.875 352.35 331.5 358.375 314.6C359.863 318.433 361.695 322.123 363.85 325.625C366.6 330.125 391.175 355.375 400.825 359.675C404.962 361.386 409.429 362.154 413.9 361.925C415.44 361.88 416.976 361.747 418.5 361.525C419.05 363.875 420.45 370.525 422.3 389.2L422.175 389.325ZM481.9 324.55C471.4 339.7 462.075 342.775 446.6 350.45C438.528 354.326 430.085 357.374 421.4 359.55C423.775 353.725 430.5 346.45 434.75 342.05C445.231 331.42 456.316 321.404 467.95 312.05C468.03 311.99 468.082 311.902 468.096 311.803C468.11 311.705 468.085 311.605 468.025 311.525C467.965 311.445 467.876 311.393 467.778 311.379C467.68 311.365 467.58 311.39 467.5 311.45C443.475 327.75 425 348.95 420.625 357.1C420.683 354.041 420.507 350.982 420.1 347.95C421.085 343.377 422.674 338.954 424.825 334.8C427.335 330.444 430.239 326.327 433.5 322.5C442.225 310.425 459.725 293.725 473.975 298.5C485.6 302.275 488.9 314.5 482.025 324.425L481.9 324.55Z" fill="white"/>
<path d="M121.475 321.125C121.675 321.122 121.871 321.07 122.045 320.972C122.219 320.875 122.367 320.735 122.473 320.566C122.58 320.398 122.643 320.205 122.656 320.005C122.67 319.806 122.633 319.607 122.55 319.425C122.075 318.375 121.825 317.375 121.15 316.15C120.997 315.879 120.745 315.677 120.446 315.589C120.148 315.5 119.826 315.531 119.55 315.675C119.413 315.748 119.292 315.848 119.194 315.968C119.096 316.089 119.023 316.227 118.979 316.376C118.935 316.525 118.921 316.681 118.937 316.835C118.954 316.989 119 317.139 119.075 317.275C120.175 319.3 120.15 321.125 121.475 321.125ZM99.225 323.8C99.2443 324.109 99.3826 324.399 99.611 324.609C99.8394 324.819 100.14 324.932 100.45 324.925C100.604 324.919 100.756 324.882 100.896 324.817C101.036 324.752 101.162 324.66 101.267 324.546C101.371 324.432 101.452 324.299 101.505 324.154C101.558 324.009 101.582 323.854 101.575 323.7C101.575 321.2 102.125 319.2 100.25 319.075C99.9358 319.107 99.6468 319.261 99.4455 319.504C99.2443 319.748 99.1471 320.06 99.175 320.375C99.3 321.575 99.175 322.5 99.225 323.8ZM143.125 317.275C143.152 317.587 143.301 317.875 143.54 318.077C143.779 318.278 144.088 318.377 144.4 318.35C144.712 318.323 145 318.174 145.202 317.935C145.403 317.696 145.502 317.387 145.475 317.075C145.475 315.9 145.475 314.85 145.275 313.5C145.192 313.221 145.011 312.981 144.764 312.826C144.518 312.671 144.223 312.61 143.935 312.656C143.648 312.702 143.387 312.851 143.201 313.075C143.015 313.3 142.917 313.584 142.925 313.875C143.1 315 143.025 316.05 143.125 317.275Z" fill="white"/>
</svg>
