<svg width="500" height="500" viewBox="0 0 500 500" fill="none" xmlns="http://www.w3.org/2000/svg">
<path fill-rule="evenodd" clip-rule="evenodd" d="M137.65 194.625C138.105 194.838 138.598 194.959 139.1 194.98C139.602 195.002 140.103 194.924 140.575 194.75C140.667 194.727 140.749 194.674 140.807 194.599C140.866 194.525 140.898 194.432 140.898 194.337C140.898 194.243 140.866 194.15 140.807 194.076C140.749 194.001 140.667 193.948 140.575 193.925C138.632 193.089 136.979 191.698 135.825 189.925C135.795 189.834 135.735 189.755 135.655 189.702C135.574 189.649 135.478 189.625 135.383 189.634C135.287 189.643 135.197 189.684 135.127 189.75C135.058 189.817 135.013 189.905 135 190C134.879 190.954 135.072 191.922 135.55 192.756C136.029 193.591 136.766 194.247 137.65 194.625ZM325.775 133.6C303.275 136.525 288.475 138.6 288.475 138.6C288.075 138.6 288.225 139 288.225 139.4V250.5C288.225 250.7 288.85 250.875 289.075 250.9C307.6 253 334.9 255.1 362.875 256.975C381.875 258.225 473.75 263.175 473.75 263.175C474.01 263.175 474.26 263.077 474.45 262.9C474.551 262.814 474.633 262.706 474.689 262.586C474.745 262.465 474.774 262.333 474.775 262.2C474.925 252.825 476.725 119.175 476.725 119.175C476.724 119.035 476.694 118.896 476.638 118.767C476.583 118.638 476.502 118.522 476.4 118.425C476.297 118.326 476.176 118.249 476.043 118.197C475.91 118.146 475.768 118.121 475.625 118.125C446.1 119.975 412.425 123.275 381.85 126.725C360.95 129.15 341.475 131.55 325.775 133.6ZM474.65 120.35L472.8 261.225C467.95 261.025 381.975 256.775 362.95 255.65C335.175 254 307.95 252.125 289.475 250.2V140.2C293.575 139.625 380.825 128.825 400.8 126.75C425.575 124.15 451.35 121.8 474.65 120.35Z" fill="white"/>
<path fill-rule="evenodd" clip-rule="evenodd" d="M328.9 192.175C328.847 204.812 333.799 216.955 342.675 225.95C347.068 230.42 352.307 233.97 358.087 236.393C363.866 238.816 370.07 240.064 376.337 240.064C382.605 240.064 388.809 238.816 394.588 236.393C400.368 233.97 405.607 230.42 410 225.95C416.691 219.18 421.207 210.565 422.966 201.21C424.726 191.856 423.649 182.188 419.875 173.45C423.273 173.462 426.603 172.502 429.473 170.685C432.344 168.867 434.635 166.267 436.077 163.19C437.519 160.114 438.052 156.689 437.612 153.32C437.173 149.951 435.78 146.777 433.597 144.174C431.414 141.57 428.533 139.644 425.292 138.623C422.051 137.603 418.586 137.53 415.305 138.412C412.024 139.295 409.064 141.097 406.773 143.607C404.482 146.116 402.956 149.227 402.375 152.575C395.223 147.91 386.945 145.259 378.413 144.901C369.882 144.544 361.411 146.493 353.894 150.543C346.376 154.594 340.09 160.596 335.696 167.918C331.302 175.24 328.963 183.611 328.925 192.15L328.9 192.175ZM415.2 151.85L418.175 158.6L424.275 143.2L427.675 145.325L420.625 164.375L415.625 164.85L411.425 155.675L415.2 151.85ZM376.325 145.75C385.581 145.776 394.603 148.666 402.15 154.025V155.675C402.15 160.071 403.777 164.312 406.717 167.58C409.658 170.848 413.703 172.912 418.075 173.375C421.801 181.867 422.891 191.282 421.207 200.402C419.522 209.521 415.139 217.924 408.625 224.525C404.414 228.789 399.398 232.174 393.868 234.485C388.339 236.795 382.405 237.985 376.413 237.985C370.42 237.985 364.486 236.795 358.957 234.485C353.427 232.174 348.411 228.789 344.2 224.525C335.682 215.891 330.887 204.262 330.845 192.133C330.803 180.005 335.517 168.343 343.975 159.65C348.166 155.29 353.187 151.814 358.743 149.426C364.3 147.039 370.278 145.789 376.325 145.75Z" fill="white"/>
<path fill-rule="evenodd" clip-rule="evenodd" d="M349.575 173.95L357.95 174.175C358.1 175.35 362.95 207.5 362.95 207.5C362.986 207.741 363.106 207.961 363.289 208.121C363.472 208.282 363.707 208.372 363.95 208.375L393 207.75C393.092 207.727 393.174 207.674 393.232 207.599C393.291 207.525 393.323 207.432 393.323 207.337C393.323 207.243 393.291 207.15 393.232 207.076C393.174 207.001 393.092 206.948 393 206.925C393 206.925 378.475 206.45 375.5 206.4H364.75C364.6 205.375 364.3 203.5 363.925 201.125C366.425 201.125 390.525 200.525 390.525 200.525C390.766 200.521 390.997 200.43 391.176 200.269C391.355 200.109 391.47 199.889 391.5 199.65L394 181.95C394.015 181.807 394.001 181.662 393.958 181.524C393.915 181.386 393.844 181.259 393.75 181.15C393.653 181.04 393.534 180.951 393.401 180.891C393.267 180.83 393.122 180.799 392.975 180.8C392.975 180.8 362.975 181.475 360.7 181.575C359.175 173.1 359.275 172.875 358.475 172.875L349.475 173.2C349.362 173.2 349.254 173.245 349.174 173.324C349.095 173.404 349.05 173.512 349.05 173.625C349.05 173.738 349.095 173.846 349.174 173.926C349.254 174.005 349.362 174.05 349.475 174.05L349.575 173.95ZM381.9 197.925V198.875C381.1 198.875 374.175 199.375 371.7 199.575C371.706 197.003 371.488 194.435 371.05 191.9L382.175 191.65C381.909 193.73 381.817 195.829 381.9 197.925ZM384.75 184.175V182.75H391.925L390.925 190H388.825C387.625 190 386.125 189.875 384.475 189.85C384.687 187.966 384.779 186.071 384.75 184.175ZM384.275 191.675C386.025 191.55 387.6 191.4 388.85 191.275L390.775 191.075L389.75 198.575L383.025 198.925C383.025 198.7 383.025 198.45 383.2 198.175C383.731 195.998 384.09 193.783 384.275 191.55V191.675ZM383.625 182.875C383.042 185.14 382.632 187.447 382.4 189.775L370.775 190.1C370.43 187.561 369.887 185.054 369.15 182.6C374.525 182.675 378.25 182.725 383.625 182.75V182.875ZM370.7 199.775L363.925 200.275C363.5 197.775 363.025 194.8 362.525 191.775L365.25 191.925H369C369.345 194.544 369.914 197.128 370.7 199.65V199.775ZM368.2 182.65C368.218 185.162 368.427 187.669 368.825 190.15L365.325 190.45L362.45 190.725C362.25 189.45 361.3 183.875 361.05 182.425C362.3 182.5 365 182.5 368.1 182.5L368.2 182.65Z" fill="white"/>
<path fill-rule="evenodd" clip-rule="evenodd" d="M487.175 107.975C487.071 107.879 486.949 107.806 486.816 107.758C486.682 107.711 486.541 107.691 486.4 107.7C453.55 109.825 416.075 113.6 382.05 117.55C358.775 120.25 278.125 131.125 278.125 131.125C277.725 131.125 277.925 131.525 277.925 131.925V259.25C277.925 259.45 278.575 259.625 278.8 259.65C299.125 262 329 264.375 359.7 266.475C360.35 268.975 363.075 278.975 364.4 286.675C364.866 289.012 365.092 291.391 365.075 293.775C365.095 294.204 364.991 294.629 364.775 295C362.275 297.5 348.05 301.875 347.625 302.05C347.414 302.113 347.231 302.247 347.108 302.429C346.985 302.611 346.929 302.831 346.95 303.05L347.35 307.9C347.361 308.124 347.454 308.336 347.61 308.497C347.767 308.658 347.976 308.757 348.2 308.775C406.675 316.575 403.2 316.45 403.725 316.275C408.828 314.126 413.774 311.619 418.525 308.775C419.995 307.87 421.347 306.787 422.55 305.55C423.23 304.885 423.647 303.998 423.725 303.05C423.169 299.49 422.333 295.979 421.225 292.55C418.725 284.125 415.25 273.3 414.15 270.05L484.3 273.775C484.434 273.786 484.568 273.767 484.694 273.72C484.819 273.672 484.932 273.597 485.025 273.5C485.123 273.412 485.201 273.304 485.253 273.183C485.305 273.062 485.329 272.931 485.325 272.8C485.5 262.05 487.5 108.9 487.5 108.9C487.521 108.731 487.503 108.56 487.446 108.399C487.39 108.239 487.297 108.094 487.175 107.975ZM375.95 310.475L349.225 306.875L348.95 303.6H349.175C351.25 303.9 366.8 305.9 369.9 306.25C376.625 307 400.775 309.425 402.4 309.575C402.036 311.087 402.036 312.663 402.4 314.175L375.95 310.475ZM419.75 292.825C420.756 296.093 421.491 299.437 421.95 302.825C421.86 303.306 421.604 303.74 421.225 304.05C420.099 305.143 418.849 306.099 417.5 306.9C413.214 309.452 408.762 311.715 404.175 313.675C404.38 312.184 404.261 310.666 403.825 309.225C405.125 308.675 409.6 306.725 413.6 304.8C415.878 303.768 418.061 302.538 420.125 301.125C420.164 301.088 420.194 301.043 420.215 300.994C420.236 300.944 420.247 300.891 420.247 300.837C420.247 300.784 420.236 300.731 420.215 300.681C420.194 300.632 420.164 300.587 420.125 300.55C420.045 300.471 419.937 300.426 419.825 300.426C419.713 300.426 419.605 300.471 419.525 300.55C417.974 301.521 416.343 302.357 414.65 303.05C410.075 305.025 404.125 307.25 402.9 307.7C401.8 307.7 353.725 302.95 351.35 302.7C366.35 297.475 366.35 296.025 366.575 293.775C366.549 291.251 366.256 288.737 365.7 286.275C364.25 278.775 361.375 269.275 360.5 266.275L414.125 270H413.25C414.125 272.775 417.5 284.125 419.75 292.875V292.825ZM483.375 271.55C478.2 271.325 382.175 266.55 361 265.125C330.075 263.2 299.775 261.05 279.175 258.825V132.65C283.55 132.025 380.875 119.6 403.1 117.2C430.6 114.225 459.475 111.5 485.425 109.85L483.375 271.55Z" fill="white"/>
<path fill-rule="evenodd" clip-rule="evenodd" d="M403.175 295.55C401.825 295.55 383.65 294.65 381.975 294.625C380.3 294.6 371.35 294.625 371.35 294.625C371.294 294.622 371.238 294.629 371.185 294.648C371.133 294.666 371.084 294.694 371.042 294.732C371 294.769 370.966 294.814 370.942 294.864C370.917 294.914 370.903 294.969 370.9 295.025C370.9 295.133 370.941 295.238 371.016 295.317C371.09 295.396 371.192 295.444 371.3 295.45C372.375 295.45 386.175 297.175 403.1 297.4H413.725C413.778 297.407 413.832 297.403 413.884 297.387C413.935 297.372 413.983 297.345 414.023 297.31C414.063 297.274 414.096 297.23 414.118 297.181C414.139 297.132 414.15 297.079 414.15 297.025C414.153 296.969 414.146 296.913 414.127 296.86C414.109 296.807 414.081 296.759 414.043 296.717C414.006 296.675 413.961 296.641 413.911 296.617C413.861 296.592 413.806 296.578 413.75 296.575C413.75 296.575 405.625 295.75 403.175 295.55ZM448.075 201.25L450.8 206.25L452.975 204.675L450.35 200.15L454.425 198.175L443.525 188.55L444.15 203.15L448.075 201.25ZM435.875 216.15C435.85 216.199 435.835 216.252 435.832 216.307C435.829 216.362 435.837 216.417 435.855 216.468C435.874 216.52 435.903 216.567 435.941 216.607C435.979 216.647 436.024 216.679 436.075 216.7C436.944 217.329 437.845 217.914 438.775 218.45C439.825 219.05 442.225 220.125 443.35 220.575C444.025 220.85 447.9 222.275 448.2 221.625C448.225 221.576 448.24 221.523 448.243 221.468C448.246 221.413 448.238 221.358 448.22 221.306C448.201 221.255 448.172 221.208 448.134 221.168C448.096 221.128 448.051 221.096 448 221.075L446.925 220.325C444.162 218.561 441.155 217.213 438 216.325C437.025 216.05 436.425 215.95 436.425 215.95C436.325 215.907 436.212 215.903 436.11 215.94C436.008 215.977 435.924 216.053 435.875 216.15ZM426.075 237.9C424.633 235.561 422.597 233.646 420.175 232.35C420.137 232.312 420.092 232.282 420.043 232.262C419.994 232.241 419.941 232.231 419.888 232.231C419.834 232.231 419.781 232.241 419.732 232.262C419.683 232.282 419.638 232.312 419.6 232.35C419.562 232.388 419.532 232.433 419.512 232.482C419.491 232.531 419.481 232.584 419.481 232.637C419.481 232.691 419.491 232.744 419.512 232.793C419.532 232.842 419.562 232.887 419.6 232.925C419.767 233.28 419.959 233.622 420.175 233.95C421.614 236.196 423.601 238.037 425.95 239.3C425.985 239.342 426.029 239.376 426.079 239.399C426.129 239.422 426.183 239.434 426.237 239.434C426.292 239.434 426.346 239.422 426.396 239.399C426.446 239.376 426.49 239.342 426.525 239.3C426.597 239.222 426.637 239.119 426.637 239.012C426.637 238.906 426.597 238.803 426.525 238.725L426.075 237.9ZM320.675 206.275C320.614 206.184 320.522 206.119 320.416 206.092C320.31 206.064 320.198 206.076 320.1 206.125C314.893 208.066 310.037 210.844 305.725 214.35C305.634 214.411 305.569 214.503 305.542 214.609C305.514 214.715 305.526 214.827 305.575 214.925C305.632 215.02 305.724 215.089 305.832 215.117C305.939 215.145 306.054 215.13 306.15 215.075C311.345 213.108 316.197 210.332 320.525 206.85C320.616 206.789 320.681 206.697 320.708 206.591C320.736 206.485 320.724 206.373 320.675 206.275ZM332.5 226.85C330.1 228.269 327.861 229.945 325.825 231.85C318.1 238.575 320.1 238.725 320.525 238.325C320.525 238.325 321.225 237.925 322.3 237.2C326.289 234.437 329.91 231.178 333.075 227.5C333.158 227.43 333.21 227.331 333.219 227.223C333.228 227.115 333.195 227.008 333.125 226.925C333.055 226.842 332.956 226.79 332.848 226.781C332.74 226.772 332.633 226.805 332.55 226.875L332.5 226.85ZM371.525 340.6C369.524 339.234 367.323 338.189 365 337.5C364.913 337.079 364.743 336.679 364.5 336.325C364.056 335.726 363.495 335.224 362.85 334.85C360.651 333.603 358.215 332.828 355.7 332.575C352.567 332.185 349.386 332.589 346.45 333.75C341.75 335.7 330.225 342.775 317.375 347.375C310.784 349.931 303.793 351.302 296.725 351.425C287.087 351.474 277.479 352.505 268.05 354.5C255.775 357 244.8 360.3 240.875 362.725L233.05 351.325H233.275C235.017 350.652 236.691 349.815 238.275 348.825C239.429 348.207 240.442 347.355 241.25 346.325C241.305 346.235 241.334 346.131 241.334 346.025C241.334 345.919 241.305 345.815 241.25 345.725C241.165 345.568 241.021 345.451 240.85 345.4C240.584 345.232 240.299 345.098 240 345C236.916 344.879 233.828 344.929 230.75 345.15C224.088 328.298 215.569 312.24 205.35 297.275C199.31 288.404 192.625 279.989 185.35 272.1C188.25 266.65 191.525 260.175 197.075 247.75C199.111 246.756 200.864 245.267 202.175 243.42C203.485 241.572 204.31 239.425 204.575 237.175C207.575 238.325 209.575 234.025 210.2 230.575C214.05 232.075 221 234.725 224.925 235.975C225.565 236.208 226.226 236.376 226.9 236.475C229.575 236.475 239.4 222.1 241.15 218.975C241.661 218.146 241.985 217.217 242.1 216.25C242.072 215.926 241.97 215.613 241.801 215.335C241.632 215.058 241.4 214.823 241.125 214.65C237.275 211.7 220.275 207.8 213.8 206.825C208.2 206 208.375 206.2 204.95 210.55C203.65 212.2 202.225 214.15 201 215.85C198.729 215.929 196.474 216.256 194.275 216.825C186.625 218.825 184.275 221.575 182.975 226.25C181.893 229.899 181.395 233.696 181.5 237.5C175.3 243.625 170.7 248.475 165.775 253.8C152.93 243.086 138.856 233.939 123.85 226.55L125.35 216.55C133.95 216.55 145.825 214.05 148.875 205.975C150.292 201.991 151.362 197.893 152.075 193.725C153.05 188.25 153.45 183.475 153.575 181.825L158.425 179.55C158.635 179.452 158.803 179.282 158.899 179.072C158.995 178.861 159.013 178.623 158.95 178.4C158.95 178.4 152.925 155.9 152.55 154.35C155.675 153.65 158 153 158 153C158 113 120.5 104.625 120.5 104.625C120.5 104.625 132.35 89.625 133.75 79.925C135.15 70.225 123.25 66.975 107.625 71.15C92 75.325 102.2 102.875 102.2 102.875C95.075 101.3 81.625 109.35 81.625 109.35C71.625 57.225 44.25 79.1 41.625 94.525C39 109.95 73.75 113.475 73.75 113.475C50.475 123.225 42.3 201.875 42.3 201.875C47.65 206 58.3 208.525 69.8 210.05C48.1044 225.349 31.4762 246.783 22.05 271.6C17.9182 282.302 15.1058 293.468 13.675 304.85C11.0177 327.62 12.7145 350.688 18.675 372.825C22.4577 387.546 27.4755 401.922 33.675 415.8C33.6963 415.849 33.7272 415.894 33.7657 415.931C33.8043 415.968 33.8498 415.998 33.8997 416.018C33.9496 416.037 34.003 416.047 34.0566 416.046C34.1103 416.045 34.1632 416.034 34.2125 416.013C34.2617 415.991 34.3063 415.96 34.3436 415.922C34.381 415.883 34.4103 415.838 34.4301 415.788C34.4498 415.738 34.4595 415.685 34.4586 415.631C34.4578 415.577 34.4463 415.524 34.425 415.475C28.4464 401.57 23.6218 387.196 20 372.5C14.3021 350.477 12.7926 327.58 15.55 305C17.0172 293.779 19.8291 282.775 23.925 272.225C33.3506 247.561 50.0239 226.329 71.75 211.325C112.325 217.025 167.675 246.325 204.075 298.15C214.398 312.98 223.043 328.911 229.85 345.65C220.714 354.066 210.649 361.413 199.85 367.55C194.434 370.645 188.822 373.384 183.05 375.75C177.303 378.129 171.365 380.02 165.3 381.4C160.8 375 139.075 337.5 138.9 337.3C138.876 337.252 138.843 337.209 138.802 337.173C138.761 337.138 138.714 337.112 138.662 337.095C138.611 337.079 138.557 337.073 138.503 337.078C138.449 337.083 138.397 337.099 138.35 337.125C138.298 337.148 138.252 337.183 138.214 337.225C138.177 337.268 138.149 337.318 138.132 337.373C138.116 337.427 138.111 337.485 138.118 337.541C138.126 337.597 138.145 337.652 138.175 337.7C138.175 337.7 139.175 339.9 140.875 343.375C146.625 355.1 156.075 371.95 164.55 381.9C162.05 385.925 157.7 394.9 162.45 394.525C165.425 394.3 169.15 390.5 169.95 390.025C181.303 402.085 194.317 412.464 208.6 420.85C218.75 426.5 229.875 430.625 240.75 430.85H240.9C255.475 428.35 270.9 420.15 285.2 409.975C309.475 392.7 330.675 369.975 339.825 360.75C341.337 359.235 342.949 357.824 344.65 356.525C347.383 357.004 350.15 357.263 352.925 357.3C355.007 357.336 357.089 357.202 359.15 356.9C362.698 356.488 366.112 355.302 369.15 353.425C370.775 352.432 372.206 351.153 373.375 349.65C374.266 348.538 374.743 347.15 374.725 345.725C374.687 344.842 374.43 343.983 373.975 343.225C373.353 342.187 372.518 341.292 371.525 340.6ZM82.5 211.35C100.4 212.725 116.975 212.325 116.975 212.325C116.075 206.375 108.025 177.925 108.025 177.925C101.75 178.425 96.25 173.925 100.125 165.2C104 156.475 113.05 162.7 113.05 162.7C120.572 160.145 127.354 155.784 132.8 150C133.551 152.096 134.745 154.006 136.3 155.6C137.9 157.225 145.8 155.825 151.6 154.55C152 156.75 152.675 160.025 153.425 163.425C153.975 166.05 156.5 176.825 156.8 178.075L152.1 180C150.95 180.525 152.1 181.4 149.95 193.125C149.27 197.17 148.25 201.151 146.9 205.025C146.249 206.542 145.304 207.915 144.12 209.065C142.936 210.215 141.536 211.119 140 211.725C135.125 213.713 129.937 214.821 124.675 215C124.5 214.993 124.329 215.054 124.199 215.171C124.068 215.288 123.988 215.45 123.975 215.625L121.35 225.35C108.981 219.207 95.9447 214.509 82.5 211.35ZM205 235.5C203.75 235.5 205.575 229.45 205.65 229.075L208.875 230.325C208.4 232.05 206.95 235.475 205 235.5ZM208.825 208.15C214.9 208.425 236.825 213.925 239.55 216.5C239.025 219.125 230.975 229.725 227.9 233.05C225.9 235.175 230.4 236.275 199.975 225.9C201.525 223.55 203.9 219.35 201.25 218.4C200.874 218.296 200.476 218.296 200.1 218.4C202.77 214.759 205.721 211.332 208.925 208.15H208.825ZM203.65 228.15C203.225 229.575 202.575 233.775 201.3 233.15C200.025 232.525 200.55 228.85 201.125 227.175L203.65 228.15ZM168.975 256.575L166.475 254.45C167.925 253.15 176.475 245.325 177.25 244.45C180.55 241.275 183.275 238.6 183.275 238.6C183.383 238.493 183.466 238.364 183.518 238.221C183.57 238.079 183.589 237.926 183.575 237.775C183.347 234.095 183.684 230.403 184.575 226.825C185.049 224.547 186.338 222.52 188.2 221.125C191.799 218.911 195.816 217.464 200 216.875L198.625 218.825C193.625 221.525 187.425 230.45 187.225 230.7C187.191 230.741 187.164 230.788 187.148 230.84C187.132 230.891 187.126 230.944 187.131 230.998C187.136 231.051 187.151 231.103 187.175 231.151C187.2 231.198 187.234 231.241 187.275 231.275C187.316 231.309 187.363 231.336 187.415 231.352C187.466 231.368 187.519 231.374 187.573 231.369C187.626 231.364 187.678 231.349 187.726 231.325C187.773 231.3 187.816 231.266 187.85 231.225C188.8 230.325 199.2 219.7 200.575 220.25C201.95 220.8 193.075 232.3 193.9 232.975C194.725 233.65 199.125 227.35 199.6 226.625L200.425 226.95C199.025 229.675 197.925 233.4 200.625 234.925C200.954 235.107 201.324 235.202 201.7 235.202C202.076 235.202 202.446 235.107 202.775 234.925C202.85 235.47 203.047 235.991 203.35 236.45C202.858 239.337 201.351 241.952 199.1 243.825C194.1 248.25 197.2 240.925 188.25 261.925C187.45 263.775 186.725 265.575 186.1 267.125C185.475 268.675 184.8 270.4 184.45 271.325C179.542 266.153 174.377 261.23 168.975 256.575ZM163.25 392.2C162.95 392.341 162.629 392.434 162.3 392.475C163.074 389.204 164.356 386.074 166.1 383.2C172.129 381.783 178.031 379.877 183.75 377.5C189.572 375.039 195.218 372.182 200.65 368.95C211.473 362.546 221.501 354.884 230.525 346.125C233.589 345.939 236.661 345.939 239.725 346.125C239.018 346.72 238.256 347.247 237.45 347.7C235.931 348.589 234.333 349.334 232.675 349.925C232.207 350.025 231.768 350.229 231.391 350.524C231.015 350.819 230.71 351.195 230.5 351.625C229.925 353.1 231.1 354.4 229.625 356.625C227.625 359.55 224.85 357.95 221.35 358.775C217.175 359.75 218.85 366.275 216.35 368.425C213.85 370.575 208.7 366.775 206.35 370.275C205.05 372.25 205.7 375.475 204.55 377.275C203.4 379.075 197.425 374.075 193.9 377.675C192.74 379.439 191.696 381.276 190.775 383.175C189.05 385.825 186.525 382.575 183.275 382.4C177.275 382.1 182.05 396.3 174 389.9C173.229 389.246 172.391 388.676 171.5 388.2C168.6 386.575 167.725 390.325 163.25 392.2ZM338.25 359.175C329.15 368.275 308.05 391 283.95 408.3C269.925 418.3 254.875 426.575 240.55 429.1C229.95 429.1 219.075 425.05 209.15 419.65C195.221 411.635 182.467 401.733 171.25 390.225C171.886 390.627 172.496 391.07 173.075 391.55C182.65 399.05 181.525 384.325 183.525 384.425C187.175 384.6 190.2 390.3 194.6 380.85C194.858 380.196 195.221 379.588 195.675 379.05C198.35 376.3 204.025 382.3 206.55 378.3C208.25 375.575 207.075 371.1 209.05 370.8C211.025 370.5 212.825 371.5 214.925 371.175C221.575 370.2 218.5 361.175 221.8 360.4C223.04 360.139 224.308 360.03 225.575 360.075C226.555 360.1 227.53 359.939 228.45 359.6C229.481 359.164 230.354 358.422 230.95 357.475C232.625 354.975 231.55 353.125 231.875 352.2C231.924 352.076 232.012 351.971 232.125 351.9L240.3 364.275C240.332 364.328 240.376 364.374 240.428 364.408C240.48 364.443 240.538 364.466 240.6 364.475C240.72 364.524 240.855 364.524 240.975 364.475C244.45 362.125 255.675 358.5 268.25 356.15C277.59 354.172 287.104 353.134 296.65 353.05C303.922 353.003 311.127 351.657 317.925 349.075C330.825 344.55 342.425 337.55 347.15 335.625C349.779 334.597 352.624 334.244 355.425 334.6C357.375 334.822 359.275 335.363 361.05 336.2C361.707 336.478 362.289 336.906 362.75 337.45C362.838 337.589 362.906 337.741 362.95 337.9H362.45C361.654 337.53 360.814 337.261 359.95 337.1C356.545 336.472 353.055 336.472 349.65 337.1C349.385 337.14 349.146 337.283 348.987 337.499C348.827 337.715 348.76 337.985 348.8 338.25C348.84 338.515 348.983 338.754 349.199 338.913C349.415 339.073 349.685 339.14 349.95 339.1C352.359 338.763 354.795 338.654 357.225 338.775H358.525C359.033 338.857 359.534 338.974 360.025 339.125C361.325 339.412 362.479 340.158 363.275 341.225C359.222 340.6 355.084 340.83 351.125 341.9H350.825C350.589 341.991 350.393 342.165 350.275 342.389C350.157 342.613 350.123 342.873 350.181 343.119C350.239 343.366 350.384 343.583 350.59 343.732C350.795 343.88 351.048 343.948 351.3 343.925H351.65C354.207 343.37 356.81 343.052 359.425 342.975H361.25C362.03 343.043 362.801 343.194 363.55 343.425C363.814 343.519 364.066 343.645 364.3 343.8C364.422 343.876 364.558 343.927 364.7 343.95C364.956 344.085 365.179 344.273 365.356 344.502C365.533 344.73 365.659 344.994 365.725 345.275L365.4 345.425C364.954 345.597 364.494 345.731 364.025 345.825C359.728 346.589 355.533 347.847 351.525 349.575C346.577 351.944 342.103 355.197 338.325 359.175H338.25ZM371.7 348.175C370.644 349.549 369.338 350.711 367.85 351.6C365.066 353.303 361.959 354.41 358.725 354.85C356.749 355.194 354.754 355.411 352.75 355.5C350.41 355.625 348.065 355.625 345.725 355.5C347.075 354.55 348.375 353.75 349.65 353C354.775 350.445 360.238 348.635 365.875 347.625C367.4 347.125 367.95 346.3 367.85 345.325C367.769 344.708 367.547 344.119 367.199 343.603C366.852 343.086 366.391 342.658 365.85 342.35C365.65 341.151 365.072 340.047 364.2 339.2L364.5 338.9C364.638 338.717 364.747 338.515 364.825 338.3C366.125 338.889 367.378 339.574 368.575 340.35C370.039 341.243 371.272 342.467 372.175 343.925C372.548 344.59 372.71 345.353 372.639 346.112C372.567 346.872 372.266 347.591 371.775 348.175H371.7Z" fill="white"/>
<path fill-rule="evenodd" clip-rule="evenodd" d="M203.725 221.85C210.994 224.996 218.522 227.505 226.225 229.35C233.325 231.025 228.2 228 213.725 223.475C208.5 221.85 204.55 220.975 204.175 220.975C204.12 220.947 204.059 220.931 203.998 220.929C203.936 220.927 203.874 220.938 203.817 220.962C203.76 220.986 203.709 221.022 203.668 221.068C203.626 221.114 203.595 221.168 203.577 221.227C203.558 221.286 203.553 221.348 203.561 221.41C203.569 221.471 203.591 221.53 203.624 221.582C203.657 221.634 203.701 221.678 203.753 221.712C203.805 221.745 203.864 221.767 203.925 221.775L203.725 221.85ZM214.775 212.075L209.55 210.825L207.325 213.2L213.1 214.725L214.775 212.075ZM367.5 212.5C366.2 212.5 365.15 213.95 365.15 215.75C365.15 217.55 366.2 218.975 367.5 218.975C368.8 218.975 369.825 217.525 369.825 215.75C369.825 213.975 368.875 212.5 367.5 212.5ZM390.2 212.5C388.9 212.5 387.85 213.95 387.85 215.75C387.85 217.55 388.9 218.975 390.2 218.975C391.5 218.975 392.525 217.525 392.525 215.75C392.525 213.975 391.475 212.5 390.2 212.5ZM143.45 171.975C143.672 171.979 143.892 171.937 144.097 171.852C144.303 171.767 144.488 171.641 144.643 171.482C144.797 171.323 144.918 171.133 144.996 170.926C145.075 170.718 145.11 170.497 145.1 170.275C145.1 169.125 145.1 168 145.225 166.85C145.27 166.392 145.14 165.935 144.862 165.569C144.584 165.202 144.178 164.955 143.725 164.875C141.525 164.575 141.8 167.65 141.8 170.125C141.792 170.584 141.957 171.03 142.263 171.373C142.569 171.716 142.993 171.931 143.45 171.975Z" fill="white"/>
</svg>
