<svg width="21" height="21" viewBox="0 0 21 21" fill="none" xmlns="http://www.w3.org/2000/svg">
<path fill-rule="evenodd" clip-rule="evenodd" d="M20.3333 9.17333V10.28C20.3333 13.9472 17.3485 16.92 13.6666 16.92L5.42961 16.92L7.46022 18.9435L5.88887 20.5085L1.17482 15.8133L5.88887 11.1181L7.46022 12.6832L5.42961 14.7066L13.6666 14.7067C16.0967 14.7067 18.0712 12.7642 18.1105 10.3532L18.1111 10.28L18.1111 9.17333H20.3333ZM14.7778 0.0514793L19.4918 4.74667L14.7778 9.44186L13.2064 7.87679L15.237 5.85333H6.99998C4.56993 5.85333 2.59538 7.79578 2.55613 10.2068L2.55554 10.28L2.5555 11.3866H0.333313V10.28C0.333313 6.6495 3.25868 3.69953 6.88973 3.64089L6.99998 3.64L15.237 3.63998L13.2064 1.61654L14.7778 0.0514793Z" fill="black"/>
</svg>
