<svg width="1344" height="418" viewBox="0 0 1344 418" fill="none" xmlns="http://www.w3.org/2000/svg">
<path d="M31.424 1C93.2656 57.9741 262.844 110.181 436.861 120.7C654.382 133.848 854.112 87.7385 1067.06 157.576C1235.08 212.681 1317.92 200.013 1340.16 177.559" stroke="black"/>
<path d="M27.8752 31.7963C89.7168 88.7704 259.295 140.977 433.312 151.496C650.834 164.644 850.563 118.535 1063.51 188.372C1231.53 243.477 1314.37 230.809 1336.61 208.356" stroke="black"/>
<path d="M24.3264 62.5924C86.1681 119.567 255.746 171.774 429.763 182.292C647.285 195.44 847.014 149.331 1059.96 219.169C1227.98 274.274 1310.82 261.605 1333.06 239.152" stroke="black"/>
<path d="M20.7777 93.3887C82.6194 150.363 252.197 202.57 426.215 213.088C643.736 226.237 843.466 180.127 1056.41 249.965C1224.43 305.07 1307.27 292.401 1329.51 269.948" stroke="black"/>
<path d="M17.2289 124.185C79.0706 181.159 248.649 233.366 422.666 243.885C640.187 257.033 839.917 210.923 1052.86 280.761C1220.88 335.866 1303.72 323.198 1325.96 300.744" stroke="black"/>
<path d="M13.6802 154.981C75.5218 211.955 245.1 264.162 419.117 274.681C636.639 287.829 836.368 241.72 1049.31 311.557C1217.33 366.662 1300.17 353.994 1322.42 331.541" stroke="black"/>
<path d="M10.1314 185.777C71.9731 242.751 241.551 294.958 415.568 305.477C633.09 318.625 832.819 272.516 1045.76 342.353C1213.79 397.458 1296.63 384.79 1318.87 362.337" stroke="black"/>
</svg>
